<svg width="16" height="16" viewBox="0 0 16 16" fill="none" xmlns="http://www.w3.org/2000/svg">
<path d="M15.4562 8.20626C15.4312 8.26251 14.7999 9.66251 13.3749 10.9438C13.2801 11.023 13.161 11.0671 13.0374 11.0688C12.9681 11.0687 12.8994 11.0543 12.836 11.0263C12.7725 10.9983 12.7155 10.9574 12.6687 10.9063L6.33743 3.94376C6.27856 3.87658 6.23851 3.79502 6.22135 3.70735C6.20419 3.61969 6.21053 3.52905 6.23973 3.44462C6.26892 3.3602 6.31994 3.28501 6.38759 3.22668C6.45525 3.16835 6.53713 3.12896 6.62493 3.11251C7.07933 3.0368 7.53927 2.99917 7.99993 3.00001C10.1812 3.00001 12.1624 3.83126 13.7312 5.39376C14.9062 6.57501 15.4374 7.75001 15.4562 7.80001C15.4839 7.86415 15.4982 7.93327 15.4982 8.00314C15.4982 8.073 15.4839 8.14212 15.4562 8.20626ZM13.3687 13.1625C13.4138 13.2105 13.4488 13.2671 13.4717 13.3289C13.4945 13.3907 13.5048 13.4564 13.5019 13.5222C13.499 13.588 13.483 13.6526 13.4547 13.7121C13.4265 13.7716 13.3866 13.8249 13.3374 13.8688C13.2447 13.9521 13.1247 13.9988 12.9999 14C12.9306 14 12.8619 13.9855 12.7985 13.9576C12.735 13.9296 12.678 13.8887 12.6312 13.8375L11.2562 12.325C10.2297 12.7745 9.12053 13.0045 7.99993 13C5.81868 13 3.83743 12.1688 2.26868 10.6063C1.09368 9.42501 0.562431 8.25001 0.543681 8.20626C0.515992 8.14212 0.501709 8.073 0.501709 8.00314C0.501709 7.93327 0.515992 7.86415 0.543681 7.80001C0.587431 7.70001 1.56243 5.55001 3.83118 4.15626L2.63118 2.83751C2.54502 2.73918 2.5008 2.61102 2.508 2.48049C2.51519 2.34995 2.57322 2.22743 2.66966 2.13916C2.7661 2.05089 2.89327 2.00391 3.02393 2.00827C3.15459 2.01264 3.27835 2.06801 3.36868 2.16251L13.3687 13.1625ZM9.10618 9.95626L6.15618 6.71251C5.86651 7.1307 5.7271 7.63472 5.7607 8.14233C5.79431 8.64994 5.99894 9.13118 6.34121 9.50753C6.68349 9.88389 7.1432 10.1332 7.64535 10.2146C8.1475 10.2961 8.66245 10.2051 9.10618 9.95626Z" fill="#6F6F6F"/>
</svg>
