<svg width="27" height="27" viewBox="0 0 27 27" fill="none" xmlns="http://www.w3.org/2000/svg">
<g clip-path="url(#clip0_140_164)">
<path fill-rule="evenodd" clip-rule="evenodd" d="M12.15 2.98125C12.5395 2.68915 13.0132 2.53125 13.5 2.53125C13.9868 2.53125 14.4605 2.68915 14.85 2.98125L22.725 8.8875C23.0044 9.09708 23.2312 9.36884 23.3875 9.68127C23.5437 9.99369 23.625 10.3382 23.625 10.6875V21.375C23.625 21.9717 23.3879 22.544 22.966 22.966C22.544 23.3879 21.9717 23.625 21.375 23.625H15.8625C15.5343 23.625 15.2195 23.4946 14.9875 23.2625C14.7554 23.0305 14.625 22.7157 14.625 22.3875V15.75C14.625 15.4516 14.5065 15.1655 14.2955 14.9545C14.0845 14.7435 13.7984 14.625 13.5 14.625C13.2016 14.625 12.9155 14.7435 12.7045 14.9545C12.4935 15.1655 12.375 15.4516 12.375 15.75V22.3875C12.375 22.55 12.343 22.7109 12.2808 22.8611C12.2186 23.0112 12.1275 23.1476 12.0125 23.2625C11.8976 23.3775 11.7612 23.4686 11.6111 23.5308C11.4609 23.593 11.3 23.625 11.1375 23.625H5.625C5.02826 23.625 4.45597 23.3879 4.03401 22.966C3.61205 22.544 3.375 21.9717 3.375 21.375V10.6875C3.375 10.3382 3.45633 9.99369 3.61254 9.68127C3.76875 9.36884 3.99556 9.09708 4.275 8.8875L12.15 2.98125ZM13.5 4.78125L5.625 10.6875V21.375H10.125V15.75C10.125 14.8549 10.4806 13.9964 11.1135 13.3635C11.7464 12.7306 12.6049 12.375 13.5 12.375C14.3951 12.375 15.2536 12.7306 15.8865 13.3635C16.5194 13.9964 16.875 14.8549 16.875 15.75V21.375H21.375V10.6875L13.5 4.78125Z" fill="#436129"/>
</g>
<defs>
<clipPath id="clip0_140_164">
<rect width="27" height="27" fill="white"/>
</clipPath>
</defs>
</svg>
