<svg width="29" height="29" viewBox="0 0 29 29" fill="none" xmlns="http://www.w3.org/2000/svg">
<path d="M1.20833 25.375V10.5427C0.845833 10.3212 0.553819 10.034 0.332292 9.68121C0.110764 9.32918 0 8.92157 0 8.45837C0 7.99518 0.241667 7.43129 0.725 6.76671C1.20833 6.10212 1.77222 5.45768 2.41667 4.83337C3.06111 5.45768 3.625 6.10212 4.10833 6.76671C4.59167 7.43129 4.83333 7.99518 4.83333 8.45837C4.83333 8.92157 4.72257 9.32918 4.50104 9.68121C4.27951 10.034 3.9875 10.3212 3.625 10.5427V15.7084H6.04167V13.2917C6.04167 12.7882 6.20278 12.3049 6.525 11.8417C6.84722 11.3785 7.31042 11.0764 7.91458 10.9355C7.69306 10.5931 7.52711 10.2205 7.41675 9.81775C7.30558 9.41497 7.25 9.00212 7.25 8.57921C7.25 7.77365 7.44132 7.02851 7.82396 6.34379C8.2066 5.65907 8.72014 5.09518 9.36458 4.65212L14.5 1.20837L19.6354 4.65212C20.2799 5.09518 20.7934 5.65907 21.176 6.34379C21.5587 7.02851 21.75 7.77365 21.75 8.57921C21.75 9.00212 21.6948 9.41497 21.5845 9.81775C21.4733 10.2205 21.3069 10.5931 21.0854 10.9355C21.6896 11.0764 22.1528 11.3785 22.475 11.8417C22.7972 12.3049 22.9583 12.7882 22.9583 13.2917V15.7084H25.375V10.5427C25.0125 10.3212 24.7205 10.034 24.499 9.68121C24.2774 9.32918 24.1667 8.92157 24.1667 8.45837C24.1667 7.99518 24.4083 7.43129 24.8917 6.76671C25.375 6.10212 25.9389 5.45768 26.5833 4.83337C27.2278 5.45768 27.7917 6.10212 28.275 6.76671C28.7583 7.43129 29 7.99518 29 8.45837C29 8.92157 28.8892 9.32918 28.6677 9.68121C28.4462 10.034 28.1542 10.3212 27.7917 10.5427V25.375H15.7083V20.5417C15.7083 20.1993 15.5927 19.9126 15.3615 19.6814C15.1295 19.4494 14.8424 19.3334 14.5 19.3334C14.1576 19.3334 13.8709 19.4494 13.6397 19.6814C13.4077 19.9126 13.2917 20.1993 13.2917 20.5417V25.375H1.20833ZM11.9625 10.875H17.0375C17.6819 10.875 18.2257 10.6535 18.6688 10.2105C19.1118 9.7674 19.3333 9.22365 19.3333 8.57921C19.3333 8.17643 19.2427 7.80869 19.0615 7.476C18.8802 7.14411 18.6285 6.8674 18.3062 6.64587L14.5 4.10837L10.6938 6.64587C10.3715 6.8674 10.1198 7.14411 9.93854 7.476C9.75729 7.80869 9.66667 8.17643 9.66667 8.57921C9.66667 9.22365 9.8882 9.7674 10.3313 10.2105C10.7743 10.6535 11.3181 10.875 11.9625 10.875ZM3.625 22.9584H10.875V20.5417C10.875 19.5348 11.2274 18.6789 11.9323 17.974C12.6372 17.2691 13.4931 16.9167 14.5 16.9167C15.5069 16.9167 16.3628 17.2691 17.0677 17.974C17.7726 18.6789 18.125 19.5348 18.125 20.5417V22.9584H25.375V18.125H20.5417V13.2917H8.45833V18.125H3.625V22.9584Z" fill="#436129"/>
</svg>
