<svg width="21" height="21" viewBox="0 0 21 21" fill="none" xmlns="http://www.w3.org/2000/svg">
<circle cx="10.5" cy="10.5" r="10.5" fill="black"/>
<path d="M4.726 14V6.3H8.07C8.554 6.3 8.97567 6.38433 9.335 6.553C9.69433 6.72167 9.973 6.96 10.171 7.268C10.369 7.576 10.468 7.939 10.468 8.357V8.489C10.468 8.951 10.358 9.325 10.138 9.611C9.918 9.897 9.64667 10.106 9.324 10.238V10.436C9.61733 10.4507 9.84467 10.5533 10.006 10.744C10.1673 10.9273 10.248 11.173 10.248 11.481V14H8.796V11.69C8.796 11.514 8.74833 11.371 8.653 11.261C8.565 11.151 8.41467 11.096 8.202 11.096H6.178V14H4.726ZM6.178 9.776H7.916C8.26067 9.776 8.52833 9.68433 8.719 9.501C8.917 9.31033 9.016 9.061 9.016 8.753V8.643C9.016 8.335 8.92067 8.08933 8.73 7.906C8.53933 7.71533 8.268 7.62 7.916 7.62H6.178V9.776ZM11.7202 16.2V8.544H13.0842V9.204H13.2822C13.4069 8.99133 13.6012 8.80433 13.8652 8.643C14.1292 8.47433 14.5069 8.39 14.9982 8.39C15.4382 8.39 15.8452 8.5 16.2192 8.72C16.5932 8.93267 16.8939 9.248 17.1212 9.666C17.3485 10.084 17.4622 10.59 17.4622 11.184V11.36C17.4622 11.954 17.3485 12.46 17.1212 12.878C16.8939 13.296 16.5932 13.615 16.2192 13.835C15.8452 14.0477 15.4382 14.154 14.9982 14.154C14.6682 14.154 14.3895 14.1137 14.1622 14.033C13.9422 13.9597 13.7625 13.8643 13.6232 13.747C13.4912 13.6223 13.3849 13.4977 13.3042 13.373H13.1062V16.2H11.7202ZM14.5802 12.944C15.0129 12.944 15.3685 12.8083 15.6472 12.537C15.9332 12.2583 16.0762 11.855 16.0762 11.327V11.217C16.0762 10.689 15.9332 10.2893 15.6472 10.018C15.3612 9.73933 15.0055 9.6 14.5802 9.6C14.1549 9.6 13.7992 9.73933 13.5132 10.018C13.2272 10.2893 13.0842 10.689 13.0842 11.217V11.327C13.0842 11.855 13.2272 12.2583 13.5132 12.537C13.7992 12.8083 14.1549 12.944 14.5802 12.944Z" fill="white"/>
</svg>
