<svg width="265" height="132" viewBox="0 0 265 132" fill="none" xmlns="http://www.w3.org/2000/svg">
<path d="M83.2231 0H167.541V131.405H83.2231V0Z" fill="#CCD591"/>
<path d="M49.8244 49.8244C49.8244 43.2813 48.5356 36.8024 46.0317 30.7574C43.5278 24.7124 39.8578 19.2198 35.2312 14.5932C30.6045 9.9666 25.1119 6.29656 19.067 3.79265C13.022 1.28875 6.54303 -2.86005e-07 0 0L4.17725e-06 49.8244H49.8244Z" fill="#F2C41E"/>
<path d="M244.742 49.8244C244.742 43.2813 243.453 36.8024 240.949 30.7574C238.445 24.7124 234.775 19.2198 230.148 14.5932C225.522 9.9666 220.029 6.29656 213.984 3.79265C207.939 1.28875 201.46 -2.86005e-07 194.917 0L194.917 49.8244H244.742Z" fill="#92A760"/>
<path d="M166.446 131.952C166.446 125.409 167.735 118.93 170.239 112.886C172.743 106.841 176.413 101.348 181.04 96.7213C185.666 92.0947 191.159 88.4247 197.204 85.9208C203.249 83.4168 209.728 82.1281 216.271 82.1281L216.271 131.952H166.446Z" fill="#F2C41E"/>
<path d="M7.62939e-06 131.405C7.62939e-06 120.476 2.15264 109.654 6.33499 99.5568C10.5173 89.4597 16.6475 80.2853 24.3755 72.5573C32.1035 64.8293 41.2779 58.6992 51.375 54.5168C61.4721 50.3345 72.2941 48.1818 83.2231 48.1818V131.405H7.62939e-06Z" fill="#436129"/>
<path d="M132.5 131.405C132.5 124.934 131.225 118.526 128.749 112.548C126.273 106.569 122.643 101.137 118.067 96.561C113.491 91.9852 108.059 88.3555 102.081 85.8791C96.102 83.4027 89.6943 82.1281 83.2231 82.1281V131.405H132.5Z" fill="#F2C41E"/>
<path d="M265 131.405C265 124.934 263.725 118.526 261.249 112.548C258.773 106.569 255.143 101.137 250.567 96.561C245.991 91.9852 240.559 88.3555 234.581 85.8791C228.602 83.4027 222.194 82.1281 215.723 82.1281V131.405H265Z" fill="#92A760"/>
</svg>
