<svg width="265" height="134" viewBox="0 0 265 134" fill="none" xmlns="http://www.w3.org/2000/svg">
<path d="M133.05 81.9191C133.05 75.3489 134.344 68.8431 136.858 62.773C139.373 56.703 143.058 51.1876 147.704 46.5417C152.35 41.8959 157.865 38.2107 163.935 35.6964C170.005 33.1821 176.511 31.888 183.081 31.888L183.081 81.9191H133.05Z" fill="#F2C41E"/>
<path d="M133.05 132.5C133.05 125.93 134.344 119.424 136.858 113.354C139.373 107.284 143.058 101.768 147.704 97.1226C152.35 92.4768 157.865 88.7916 163.935 86.2773C170.005 83.763 176.511 82.4689 183.081 82.4689L183.081 132.5H133.05Z" fill="#F2C41E"/>
<path d="M212.22 0H265V131.95H212.22V0Z" fill="#CCD591"/>
<path d="M0 0H133.05V72.5498C133.05 105.963 105.963 133.05 72.5498 133.05H0V0Z" fill="#92A760"/>
<path d="M0.000137329 84.6681C0.000137329 73.6937 2.16171 62.8268 6.36141 52.6878C10.5611 42.5488 16.7167 33.3363 24.4768 25.5762C32.2368 17.8162 41.4493 11.6606 51.5883 7.46086C61.7273 3.26115 72.5942 1.09959 83.5686 1.09959V84.6681H0.000137329Z" fill="#436129"/>
<path d="M133.05 131.95C133.05 125.452 131.77 119.018 129.283 113.015C126.797 107.011 123.152 101.556 118.557 96.9616C113.962 92.3669 108.508 88.7221 102.504 86.2354C96.5009 83.7487 90.0666 82.4689 83.5686 82.4689V131.95H133.05Z" fill="#436129"/>
<path d="M232.012 131.95C232.012 125.452 230.732 119.018 228.246 113.015C225.759 107.011 222.114 101.556 217.52 96.9616C212.925 92.3669 207.47 88.7221 201.467 86.2354C195.463 83.7487 189.029 82.4689 182.531 82.4689V131.95H232.012Z" fill="#92A760"/>
</svg>
