<svg width="305" height="128" viewBox="0 0 305 128" fill="none" xmlns="http://www.w3.org/2000/svg">
<rect width="305" height="128" rx="15" fill="#DADB9E"/>
<path d="M20.92 44V41.68H22.76V32.32H20.92V30H26.68C28.56 30 29.9867 30.48 30.96 31.44C31.9467 32.3867 32.44 33.8 32.44 35.68V38.32C32.44 40.2 31.9467 41.62 30.96 42.58C29.9867 43.5267 28.56 44 26.68 44H20.92ZM25.4 41.6H26.72C27.7867 41.6 28.5667 41.32 29.06 40.76C29.5533 40.2 29.8 39.4133 29.8 38.4V35.6C29.8 34.5733 29.5533 33.7867 29.06 33.24C28.5667 32.68 27.7867 32.4 26.72 32.4H25.4V41.6ZM39.4403 44.28C38.4536 44.28 37.567 44.08 36.7803 43.68C35.9936 43.28 35.3736 42.7 34.9203 41.94C34.467 41.18 34.2403 40.2667 34.2403 39.2V38.88C34.2403 37.8133 34.467 36.9 34.9203 36.14C35.3736 35.38 35.9936 34.8 36.7803 34.4C37.567 34 38.4536 33.8 39.4403 33.8C40.427 33.8 41.3136 34 42.1003 34.4C42.887 34.8 43.507 35.38 43.9603 36.14C44.4136 36.9 44.6403 37.8133 44.6403 38.88V39.2C44.6403 40.2667 44.4136 41.18 43.9603 41.94C43.507 42.7 42.887 43.28 42.1003 43.68C41.3136 44.08 40.427 44.28 39.4403 44.28ZM39.4403 42.04C40.2136 42.04 40.8536 41.7933 41.3603 41.3C41.867 40.7933 42.1203 40.0733 42.1203 39.14V38.94C42.1203 38.0067 41.867 37.2933 41.3603 36.8C40.867 36.2933 40.227 36.04 39.4403 36.04C38.667 36.04 38.027 36.2933 37.5203 36.8C37.0136 37.2933 36.7603 38.0067 36.7603 38.94V39.14C36.7603 40.0733 37.0136 40.7933 37.5203 41.3C38.027 41.7933 38.667 42.04 39.4403 42.04ZM46.9664 44V34.08H49.4464V35.38H49.8064C49.9664 35.0333 50.2664 34.7067 50.7064 34.4C51.1464 34.08 51.8131 33.92 52.7064 33.92C53.4797 33.92 54.1531 34.1 54.7264 34.46C55.3131 34.8067 55.7664 35.2933 56.0864 35.92C56.4064 36.5333 56.5664 37.2533 56.5664 38.08V44H54.0464V38.28C54.0464 37.5333 53.8597 36.9733 53.4864 36.6C53.1264 36.2267 52.6064 36.04 51.9264 36.04C51.1531 36.04 50.5531 36.3 50.1264 36.82C49.6997 37.3267 49.4864 38.04 49.4864 38.96V44H46.9664ZM62.3706 44.28C61.664 44.28 61.0306 44.16 60.4706 43.92C59.9106 43.6667 59.464 43.3067 59.1306 42.84C58.8106 42.36 58.6506 41.78 58.6506 41.1C58.6506 40.42 58.8106 39.8533 59.1306 39.4C59.464 38.9333 59.9173 38.5867 60.4906 38.36C61.0773 38.12 61.744 38 62.4906 38H65.2106V37.44C65.2106 36.9733 65.064 36.5933 64.7706 36.3C64.4773 35.9933 64.0106 35.84 63.3706 35.84C62.744 35.84 62.2773 35.9867 61.9706 36.28C61.664 36.56 61.464 36.9267 61.3706 37.38L59.0506 36.6C59.2106 36.0933 59.464 35.6333 59.8106 35.22C60.1706 34.7933 60.644 34.4533 61.2306 34.2C61.8306 33.9333 62.5573 33.8 63.4106 33.8C64.7173 33.8 65.7506 34.1267 66.5106 34.78C67.2706 35.4333 67.6506 36.38 67.6506 37.62V41.32C67.6506 41.72 67.8373 41.92 68.2106 41.92H69.0106V44H67.3306C66.8373 44 66.4306 43.88 66.1106 43.64C65.7906 43.4 65.6306 43.08 65.6306 42.68V42.66H65.2506C65.1973 42.82 65.0773 43.0333 64.8906 43.3C64.704 43.5533 64.4106 43.78 64.0106 43.98C63.6106 44.18 63.064 44.28 62.3706 44.28ZM62.8106 42.24C63.5173 42.24 64.0906 42.0467 64.5306 41.66C64.984 41.26 65.2106 40.7333 65.2106 40.08V39.88H62.6706C62.204 39.88 61.8373 39.98 61.5706 40.18C61.304 40.38 61.1706 40.66 61.1706 41.02C61.1706 41.38 61.3106 41.6733 61.5906 41.9C61.8706 42.1267 62.2773 42.24 62.8106 42.24ZM73.9305 44C73.2771 44 72.7438 43.8 72.3305 43.4C71.9305 42.9867 71.7305 42.44 71.7305 41.76V36.16H69.2505V34.08H71.7305V31H74.2505V34.08H76.9705V36.16H74.2505V41.32C74.2505 41.72 74.4371 41.92 74.8105 41.92H76.7305V44H73.9305ZM83.42 44.28C82.4333 44.28 81.56 44.0733 80.8 43.66C80.0533 43.2333 79.4667 42.64 79.04 41.88C78.6267 41.1067 78.42 40.2 78.42 39.16V38.92C78.42 37.88 78.6267 36.98 79.04 36.22C79.4533 35.4467 80.0333 34.8533 80.78 34.44C81.5267 34.0133 82.3933 33.8 83.38 33.8C84.3533 33.8 85.2 34.02 85.92 34.46C86.64 34.8867 87.2 35.4867 87.6 36.26C88 37.02 88.2 37.9067 88.2 38.92V39.78H80.98C81.0067 40.46 81.26 41.0133 81.74 41.44C82.22 41.8667 82.8067 42.08 83.5 42.08C84.2067 42.08 84.7267 41.9267 85.06 41.62C85.3933 41.3133 85.6467 40.9733 85.82 40.6L87.88 41.68C87.6933 42.0267 87.42 42.4067 87.06 42.82C86.7133 43.22 86.2467 43.5667 85.66 43.86C85.0733 44.14 84.3267 44.28 83.42 44.28ZM81 37.9H85.64C85.5867 37.3267 85.3533 36.8667 84.94 36.52C84.54 36.1733 84.0133 36 83.36 36C82.68 36 82.14 36.1733 81.74 36.52C81.34 36.8667 81.0933 37.3267 81 37.9ZM100.841 44.28C99.6944 44.28 98.7078 44.0733 97.8811 43.66C97.0678 43.2333 96.4411 42.6333 96.0011 41.86C95.5744 41.0733 95.3611 40.1467 95.3611 39.08V30H98.0011V39.16C98.0011 40.0133 98.2411 40.6867 98.7211 41.18C99.2144 41.6733 99.9211 41.92 100.841 41.92C101.761 41.92 102.461 41.6733 102.941 41.18C103.434 40.6867 103.681 40.0133 103.681 39.16V30H106.321V39.08C106.321 40.1467 106.101 41.0733 105.661 41.86C105.234 42.6333 104.608 43.2333 103.781 43.66C102.968 44.0733 101.988 44.28 100.841 44.28ZM108.959 44V34.08H111.439V35.2H111.799C111.945 34.8 112.185 34.5067 112.519 34.32C112.865 34.1333 113.265 34.04 113.719 34.04H114.919V36.28H113.679C113.039 36.28 112.512 36.4533 112.099 36.8C111.685 37.1333 111.479 37.6533 111.479 38.36V44H108.959ZM121.886 44V30H126.786L129.206 42.2H129.566L131.986 30H136.886V44H134.326V31.94H133.966L131.566 44H127.206L124.806 31.94H124.446V44H121.886ZM144.323 44.28C143.336 44.28 142.45 44.08 141.663 43.68C140.876 43.28 140.256 42.7 139.803 41.94C139.35 41.18 139.123 40.2667 139.123 39.2V38.88C139.123 37.8133 139.35 36.9 139.803 36.14C140.256 35.38 140.876 34.8 141.663 34.4C142.45 34 143.336 33.8 144.323 33.8C145.31 33.8 146.196 34 146.983 34.4C147.77 34.8 148.39 35.38 148.843 36.14C149.296 36.9 149.523 37.8133 149.523 38.88V39.2C149.523 40.2667 149.296 41.18 148.843 41.94C148.39 42.7 147.77 43.28 146.983 43.68C146.196 44.08 145.31 44.28 144.323 44.28ZM144.323 42.04C145.096 42.04 145.736 41.7933 146.243 41.3C146.75 40.7933 147.003 40.0733 147.003 39.14V38.94C147.003 38.0067 146.75 37.2933 146.243 36.8C145.75 36.2933 145.11 36.04 144.323 36.04C143.55 36.04 142.91 36.2933 142.403 36.8C141.896 37.2933 141.643 38.0067 141.643 38.94V39.14C141.643 40.0733 141.896 40.7933 142.403 41.3C142.91 41.7933 143.55 42.04 144.323 42.04ZM151.849 44V34.08H154.329V35.38H154.689C154.849 35.0333 155.149 34.7067 155.589 34.4C156.029 34.08 156.696 33.92 157.589 33.92C158.363 33.92 159.036 34.1 159.609 34.46C160.196 34.8067 160.649 35.2933 160.969 35.92C161.289 36.5333 161.449 37.2533 161.449 38.08V44H158.929V38.28C158.929 37.5333 158.743 36.9733 158.369 36.6C158.009 36.2267 157.489 36.04 156.809 36.04C156.036 36.04 155.436 36.3 155.009 36.82C154.583 37.3267 154.369 38.04 154.369 38.96V44H151.849ZM168.693 44.28C167.707 44.28 166.833 44.0733 166.073 43.66C165.327 43.2333 164.74 42.64 164.313 41.88C163.9 41.1067 163.693 40.2 163.693 39.16V38.92C163.693 37.88 163.9 36.98 164.313 36.22C164.727 35.4467 165.307 34.8533 166.053 34.44C166.8 34.0133 167.667 33.8 168.653 33.8C169.627 33.8 170.473 34.02 171.193 34.46C171.913 34.8867 172.473 35.4867 172.873 36.26C173.273 37.02 173.473 37.9067 173.473 38.92V39.78H166.253C166.28 40.46 166.533 41.0133 167.013 41.44C167.493 41.8667 168.08 42.08 168.773 42.08C169.48 42.08 170 41.9267 170.333 41.62C170.667 41.3133 170.92 40.9733 171.093 40.6L173.153 41.68C172.967 42.0267 172.693 42.4067 172.333 42.82C171.987 43.22 171.52 43.5667 170.933 43.86C170.347 44.14 169.6 44.28 168.693 44.28ZM166.273 37.9H170.913C170.86 37.3267 170.627 36.8667 170.213 36.52C169.813 36.1733 169.287 36 168.633 36C167.953 36 167.413 36.1733 167.013 36.52C166.613 36.8667 166.367 37.3267 166.273 37.9ZM176.796 48V45.8H182.196C182.57 45.8 182.756 45.6 182.756 45.2V42.7H182.396C182.29 42.9267 182.123 43.1533 181.896 43.38C181.67 43.6067 181.363 43.7933 180.976 43.94C180.59 44.0867 180.096 44.16 179.496 44.16C178.723 44.16 178.043 43.9867 177.456 43.64C176.883 43.28 176.436 42.7867 176.116 42.16C175.796 41.5333 175.636 40.8133 175.636 40V34.08H178.156V39.8C178.156 40.5467 178.336 41.1067 178.696 41.48C179.07 41.8533 179.596 42.04 180.276 42.04C181.05 42.04 181.65 41.7867 182.076 41.28C182.503 40.76 182.716 40.04 182.716 39.12V34.08H185.236V45.76C185.236 46.44 185.036 46.98 184.636 47.38C184.236 47.7933 183.703 48 183.036 48H176.796ZM189.621 44.28C189.087 44.28 188.634 44.1067 188.261 43.76C187.901 43.4 187.721 42.94 187.721 42.38C187.721 41.82 187.901 41.3667 188.261 41.02C188.634 40.66 189.087 40.48 189.621 40.48C190.167 40.48 190.621 40.66 190.981 41.02C191.341 41.3667 191.521 41.82 191.521 42.38C191.521 42.94 191.341 43.4 190.981 43.76C190.621 44.1067 190.167 44.28 189.621 44.28Z" fill="black"/>
<path d="M26.7148 68.0801V69H20.9375V68.0801H26.7148ZM26.5273 61.2891L21.207 69H20.5098V68.1562L25.8242 60.4688H26.5273V61.2891ZM26.0469 60.4688V61.3945H20.5859V60.4688H26.0469ZM31.7598 67.916V64.6523C31.7598 64.4023 31.709 64.1855 31.6074 64.002C31.5098 63.8145 31.3613 63.6699 31.1621 63.5684C30.9629 63.4668 30.7168 63.416 30.4238 63.416C30.1504 63.416 29.9102 63.4629 29.7031 63.5566C29.5 63.6504 29.3398 63.7734 29.2227 63.9258C29.1094 64.0781 29.0527 64.2422 29.0527 64.418H27.9688C27.9688 64.1914 28.0273 63.9668 28.1445 63.7441C28.2617 63.5215 28.4297 63.3203 28.6484 63.1406C28.8711 62.957 29.1367 62.8125 29.4453 62.707C29.7578 62.5977 30.1055 62.543 30.4883 62.543C30.9492 62.543 31.3555 62.6211 31.707 62.7773C32.0625 62.9336 32.3398 63.1699 32.5391 63.4863C32.7422 63.7988 32.8438 64.1914 32.8438 64.6641V67.6172C32.8438 67.8281 32.8613 68.0527 32.8965 68.291C32.9355 68.5293 32.9922 68.7344 33.0664 68.9062V69H31.9355C31.8809 68.875 31.8379 68.709 31.8066 68.502C31.7754 68.291 31.7598 68.0957 31.7598 67.916ZM31.9473 65.1562L31.959 65.918H30.8633C30.5547 65.918 30.2793 65.9434 30.0371 65.9941C29.7949 66.041 29.5918 66.1133 29.4277 66.2109C29.2637 66.3086 29.1387 66.4316 29.0527 66.5801C28.9668 66.7246 28.9238 66.8945 28.9238 67.0898C28.9238 67.2891 28.9688 67.4707 29.0586 67.6348C29.1484 67.7988 29.2832 67.9297 29.4629 68.0273C29.6465 68.1211 29.8711 68.168 30.1367 68.168C30.4688 68.168 30.7617 68.0977 31.0156 67.957C31.2695 67.8164 31.4707 67.6445 31.6191 67.4414C31.7715 67.2383 31.8535 67.041 31.8652 66.8496L32.3281 67.3711C32.3008 67.5352 32.2266 67.7168 32.1055 67.916C31.9844 68.1152 31.8223 68.3066 31.6191 68.4902C31.4199 68.6699 31.1816 68.8203 30.9043 68.9414C30.6309 69.0586 30.3223 69.1172 29.9785 69.1172C29.5488 69.1172 29.1719 69.0332 28.8477 68.8652C28.5273 68.6973 28.2773 68.4727 28.0977 68.1914C27.9219 67.9062 27.834 67.5879 27.834 67.2363C27.834 66.8965 27.9004 66.5977 28.0332 66.3398C28.166 66.0781 28.3574 65.8613 28.6074 65.6895C28.8574 65.5137 29.1582 65.3809 29.5098 65.291C29.8613 65.2012 30.2539 65.1562 30.6875 65.1562H31.9473ZM35.6387 60V69H34.5488V60H35.6387ZM39.5117 62.6602L36.7461 65.6191L35.1992 67.2246L35.1113 66.0703L36.2188 64.7461L38.1875 62.6602H39.5117ZM38.5215 69L36.2598 65.9766L36.8223 65.0098L39.7988 69H38.5215ZM44.3691 67.916V64.6523C44.3691 64.4023 44.3184 64.1855 44.2168 64.002C44.1191 63.8145 43.9707 63.6699 43.7715 63.5684C43.5723 63.4668 43.3262 63.416 43.0332 63.416C42.7598 63.416 42.5195 63.4629 42.3125 63.5566C42.1094 63.6504 41.9492 63.7734 41.832 63.9258C41.7188 64.0781 41.6621 64.2422 41.6621 64.418H40.5781C40.5781 64.1914 40.6367 63.9668 40.7539 63.7441C40.8711 63.5215 41.0391 63.3203 41.2578 63.1406C41.4805 62.957 41.7461 62.8125 42.0547 62.707C42.3672 62.5977 42.7148 62.543 43.0977 62.543C43.5586 62.543 43.9648 62.6211 44.3164 62.7773C44.6719 62.9336 44.9492 63.1699 45.1484 63.4863C45.3516 63.7988 45.4531 64.1914 45.4531 64.6641V67.6172C45.4531 67.8281 45.4707 68.0527 45.5059 68.291C45.5449 68.5293 45.6016 68.7344 45.6758 68.9062V69H44.5449C44.4902 68.875 44.4473 68.709 44.416 68.502C44.3848 68.291 44.3691 68.0957 44.3691 67.916ZM44.5566 65.1562L44.5684 65.918H43.4727C43.1641 65.918 42.8887 65.9434 42.6465 65.9941C42.4043 66.041 42.2012 66.1133 42.0371 66.2109C41.873 66.3086 41.748 66.4316 41.6621 66.5801C41.5762 66.7246 41.5332 66.8945 41.5332 67.0898C41.5332 67.2891 41.5781 67.4707 41.668 67.6348C41.7578 67.7988 41.8926 67.9297 42.0723 68.0273C42.2559 68.1211 42.4805 68.168 42.7461 68.168C43.0781 68.168 43.3711 68.0977 43.625 67.957C43.8789 67.8164 44.0801 67.6445 44.2285 67.4414C44.3809 67.2383 44.4629 67.041 44.4746 66.8496L44.9375 67.3711C44.9102 67.5352 44.8359 67.7168 44.7148 67.916C44.5938 68.1152 44.4316 68.3066 44.2285 68.4902C44.0293 68.6699 43.791 68.8203 43.5137 68.9414C43.2402 69.0586 42.9316 69.1172 42.5879 69.1172C42.1582 69.1172 41.7812 69.0332 41.457 68.8652C41.1367 68.6973 40.8867 68.4727 40.707 68.1914C40.5312 67.9062 40.4434 67.5879 40.4434 67.2363C40.4434 66.8965 40.5098 66.5977 40.6426 66.3398C40.7754 66.0781 40.9668 65.8613 41.2168 65.6895C41.4668 65.5137 41.7676 65.3809 42.1191 65.291C42.4707 65.2012 42.8633 65.1562 43.2969 65.1562H44.5566ZM49.8125 62.6602V63.4922H46.3848V62.6602H49.8125ZM47.5449 61.1191H48.6289V67.4297C48.6289 67.6445 48.6621 67.8066 48.7285 67.916C48.7949 68.0254 48.8809 68.0977 48.9863 68.1328C49.0918 68.168 49.2051 68.1855 49.3262 68.1855C49.416 68.1855 49.5098 68.1777 49.6074 68.1621C49.709 68.1426 49.7852 68.127 49.8359 68.1152L49.8418 69C49.7559 69.0273 49.6426 69.0527 49.502 69.0762C49.3652 69.1035 49.1992 69.1172 49.0039 69.1172C48.7383 69.1172 48.4941 69.0645 48.2715 68.959C48.0488 68.8535 47.8711 68.6777 47.7383 68.4316C47.6094 68.1816 47.5449 67.8457 47.5449 67.4238V61.1191ZM52.0684 67.7109V68.584C52.0684 68.9395 51.9785 69.3145 51.7988 69.709C51.6191 70.1074 51.3672 70.4395 51.043 70.7051L50.4277 70.2773C50.5527 70.1055 50.6582 69.9297 50.7441 69.75C50.8301 69.5742 50.8945 69.3906 50.9375 69.1992C50.9844 69.0117 51.0078 68.8125 51.0078 68.6016V67.7109H52.0684ZM57.8047 60.4688V69H56.6738V60.4688H57.8047ZM60.7812 64.0137V69H59.6973V62.6602H60.7227L60.7812 64.0137ZM60.5234 65.5898L60.0723 65.5723C60.0762 65.1387 60.1406 64.7383 60.2656 64.3711C60.3906 64 60.5664 63.6777 60.793 63.4043C61.0195 63.1309 61.2891 62.9199 61.6016 62.7715C61.918 62.6191 62.2676 62.543 62.6504 62.543C62.9629 62.543 63.2441 62.5859 63.4941 62.6719C63.7441 62.7539 63.957 62.8867 64.1328 63.0703C64.3125 63.2539 64.4492 63.4922 64.543 63.7852C64.6367 64.0742 64.6836 64.4277 64.6836 64.8457V69H63.5938V64.834C63.5938 64.502 63.5449 64.2363 63.4473 64.0371C63.3496 63.834 63.207 63.6875 63.0195 63.5977C62.832 63.5039 62.6016 63.457 62.3281 63.457C62.0586 63.457 61.8125 63.5137 61.5898 63.627C61.3711 63.7402 61.1816 63.8965 61.0215 64.0957C60.8652 64.2949 60.7422 64.5234 60.6523 64.7812C60.5664 65.0352 60.5234 65.3047 60.5234 65.5898ZM67.9473 69H66.8633V61.9922C66.8633 61.5352 66.9453 61.1504 67.1094 60.8379C67.2773 60.5215 67.5176 60.2832 67.8301 60.123C68.1426 59.959 68.5137 59.877 68.9434 59.877C69.0684 59.877 69.1934 59.8848 69.3184 59.9004C69.4473 59.916 69.5723 59.9395 69.6934 59.9707L69.6348 60.8555C69.5527 60.8359 69.459 60.8223 69.3535 60.8145C69.252 60.8066 69.1504 60.8027 69.0488 60.8027C68.8184 60.8027 68.6191 60.8496 68.4512 60.9434C68.2871 61.0332 68.1621 61.166 68.0762 61.3418C67.9902 61.5176 67.9473 61.7344 67.9473 61.9922V69ZM69.2949 62.6602V63.4922H65.8613V62.6602H69.2949ZM74.2402 67.916V64.6523C74.2402 64.4023 74.1895 64.1855 74.0879 64.002C73.9902 63.8145 73.8418 63.6699 73.6426 63.5684C73.4434 63.4668 73.1973 63.416 72.9043 63.416C72.6309 63.416 72.3906 63.4629 72.1836 63.5566C71.9805 63.6504 71.8203 63.7734 71.7031 63.9258C71.5898 64.0781 71.5332 64.2422 71.5332 64.418H70.4492C70.4492 64.1914 70.5078 63.9668 70.625 63.7441C70.7422 63.5215 70.9102 63.3203 71.1289 63.1406C71.3516 62.957 71.6172 62.8125 71.9258 62.707C72.2383 62.5977 72.5859 62.543 72.9688 62.543C73.4297 62.543 73.8359 62.6211 74.1875 62.7773C74.543 62.9336 74.8203 63.1699 75.0195 63.4863C75.2227 63.7988 75.3242 64.1914 75.3242 64.6641V67.6172C75.3242 67.8281 75.3418 68.0527 75.377 68.291C75.416 68.5293 75.4727 68.7344 75.5469 68.9062V69H74.416C74.3613 68.875 74.3184 68.709 74.2871 68.502C74.2559 68.291 74.2402 68.0957 74.2402 67.916ZM74.4277 65.1562L74.4395 65.918H73.3438C73.0352 65.918 72.7598 65.9434 72.5176 65.9941C72.2754 66.041 72.0723 66.1133 71.9082 66.2109C71.7441 66.3086 71.6191 66.4316 71.5332 66.5801C71.4473 66.7246 71.4043 66.8945 71.4043 67.0898C71.4043 67.2891 71.4492 67.4707 71.5391 67.6348C71.6289 67.7988 71.7637 67.9297 71.9434 68.0273C72.127 68.1211 72.3516 68.168 72.6172 68.168C72.9492 68.168 73.2422 68.0977 73.4961 67.957C73.75 67.8164 73.9512 67.6445 74.0996 67.4414C74.252 67.2383 74.334 67.041 74.3457 66.8496L74.8086 67.3711C74.7812 67.5352 74.707 67.7168 74.5859 67.916C74.4648 68.1152 74.3027 68.3066 74.0996 68.4902C73.9004 68.6699 73.6621 68.8203 73.3848 68.9414C73.1113 69.0586 72.8027 69.1172 72.459 69.1172C72.0293 69.1172 71.6523 69.0332 71.3281 68.8652C71.0078 68.6973 70.7578 68.4727 70.5781 68.1914C70.4023 67.9062 70.3145 67.5879 70.3145 67.2363C70.3145 66.8965 70.3809 66.5977 70.5137 66.3398C70.6465 66.0781 70.8379 65.8613 71.0879 65.6895C71.3379 65.5137 71.6387 65.3809 71.9902 65.291C72.3418 65.2012 72.7344 65.1562 73.168 65.1562H74.4277ZM81.0195 71.4375V63.8789L81.1133 62.6602H82.1094V71.4375H81.0195ZM76.7598 65.9004V65.7773C76.7598 65.293 76.8164 64.8535 76.9297 64.459C77.043 64.0605 77.209 63.7188 77.4277 63.4336C77.6465 63.1484 77.9102 62.9297 78.2188 62.7773C78.5312 62.6211 78.8867 62.543 79.2852 62.543C79.6836 62.543 80.0332 62.6133 80.334 62.7539C80.6387 62.8906 80.8965 63.0918 81.1074 63.3574C81.3223 63.6191 81.4922 63.9355 81.6172 64.3066C81.7422 64.6777 81.8281 65.0977 81.875 65.5664V66.1055C81.832 66.5703 81.748 66.9883 81.623 67.3594C81.498 67.7305 81.3281 68.0469 81.1133 68.3086C80.9023 68.5703 80.6426 68.7715 80.334 68.9121C80.0293 69.0488 79.6758 69.1172 79.2734 69.1172C78.8828 69.1172 78.5312 69.0371 78.2188 68.877C77.9102 68.7168 77.6465 68.4922 77.4277 68.2031C77.2129 67.9141 77.0469 67.5742 76.9297 67.1836C76.8164 66.7891 76.7598 66.3613 76.7598 65.9004ZM77.8496 65.7773V65.9004C77.8496 66.2168 77.8828 66.5156 77.9492 66.7969C78.0156 67.0742 78.1172 67.3203 78.2539 67.5352C78.3945 67.75 78.5703 67.9199 78.7812 68.0449C78.9961 68.166 79.25 68.2266 79.543 68.2266C79.9023 68.2266 80.2012 68.1484 80.4395 67.9922C80.6816 67.8359 80.875 67.6309 81.0195 67.377C81.1641 67.1191 81.2754 66.8438 81.3535 66.5508V65.1387C81.3105 64.9238 81.2422 64.7148 81.1484 64.5117C81.0586 64.3086 80.9414 64.127 80.7969 63.9668C80.6523 63.8027 80.4766 63.6738 80.2695 63.5801C80.0664 63.4824 79.8281 63.4336 79.5547 63.4336C79.2578 63.4336 79.002 63.4961 78.7871 63.6211C78.5723 63.7461 78.3945 63.918 78.2539 64.1367C78.1172 64.3516 78.0156 64.5996 77.9492 64.8809C77.8828 65.1621 77.8496 65.4609 77.8496 65.7773ZM84.834 67.7109V68.584C84.834 68.9395 84.7441 69.3145 84.5645 69.709C84.3848 70.1074 84.1328 70.4395 83.8086 70.7051L83.1934 70.2773C83.3184 70.1055 83.4238 69.9297 83.5098 69.75C83.5957 69.5742 83.6602 69.3906 83.7031 69.1992C83.75 69.0117 83.7734 68.8125 83.7734 68.6016V67.7109H84.834ZM93.9043 66.8438C93.9043 66.6445 93.873 66.4688 93.8105 66.3164C93.752 66.1602 93.6465 66.0195 93.4941 65.8945C93.3457 65.7695 93.1387 65.6504 92.873 65.5371C92.6113 65.4238 92.2793 65.3086 91.877 65.1914C91.4551 65.0664 91.0742 64.9277 90.7344 64.7754C90.3945 64.6191 90.1035 64.4414 89.8613 64.2422C89.6191 64.043 89.4336 63.8145 89.3047 63.5566C89.1758 63.2988 89.1113 63.0039 89.1113 62.6719C89.1113 62.3398 89.1797 62.0332 89.3164 61.752C89.4531 61.4707 89.6484 61.2266 89.9023 61.0195C90.1602 60.8086 90.4668 60.6445 90.8223 60.5273C91.1777 60.4102 91.5742 60.3516 92.0117 60.3516C92.6523 60.3516 93.1953 60.4746 93.6406 60.7207C94.0898 60.9629 94.4316 61.2812 94.666 61.6758C94.9004 62.0664 95.0176 62.4844 95.0176 62.9297H93.8926C93.8926 62.6094 93.8242 62.3262 93.6875 62.0801C93.5508 61.8301 93.3438 61.6348 93.0664 61.4941C92.7891 61.3496 92.4375 61.2773 92.0117 61.2773C91.6094 61.2773 91.2773 61.3379 91.0156 61.459C90.7539 61.5801 90.5586 61.7441 90.4297 61.9512C90.3047 62.1582 90.2422 62.3945 90.2422 62.6602C90.2422 62.8398 90.2793 63.0039 90.3535 63.1523C90.4316 63.2969 90.5508 63.4316 90.7109 63.5566C90.875 63.6816 91.082 63.7969 91.332 63.9023C91.5859 64.0078 91.8887 64.1094 92.2402 64.207C92.7246 64.3438 93.1426 64.4961 93.4941 64.6641C93.8457 64.832 94.1348 65.0215 94.3613 65.2324C94.5918 65.4395 94.7617 65.6758 94.8711 65.9414C94.9844 66.2031 95.041 66.5 95.041 66.832C95.041 67.1797 94.9707 67.4941 94.8301 67.7754C94.6895 68.0566 94.4883 68.2969 94.2266 68.4961C93.9648 68.6953 93.6504 68.8496 93.2832 68.959C92.9199 69.0645 92.5137 69.1172 92.0645 69.1172C91.6699 69.1172 91.2812 69.0625 90.8984 68.9531C90.5195 68.8438 90.1738 68.6797 89.8613 68.4609C89.5527 68.2422 89.3047 67.9727 89.1172 67.6523C88.9336 67.3281 88.8418 66.9531 88.8418 66.5273H89.9668C89.9668 66.8203 90.0234 67.0723 90.1367 67.2832C90.25 67.4902 90.4043 67.6621 90.5996 67.7988C90.7988 67.9355 91.0234 68.0371 91.2734 68.1035C91.5273 68.166 91.791 68.1973 92.0645 68.1973C92.459 68.1973 92.793 68.1426 93.0664 68.0332C93.3398 67.9238 93.5469 67.7676 93.6875 67.5645C93.832 67.3613 93.9043 67.1211 93.9043 66.8438ZM97.4023 60V69H96.3184V60H97.4023ZM97.1445 65.5898L96.6934 65.5723C96.6973 65.1387 96.7617 64.7383 96.8867 64.3711C97.0117 64 97.1875 63.6777 97.4141 63.4043C97.6406 63.1309 97.9102 62.9199 98.2227 62.7715C98.5391 62.6191 98.8887 62.543 99.2715 62.543C99.584 62.543 99.8652 62.5859 100.115 62.6719C100.365 62.7539 100.578 62.8867 100.754 63.0703C100.934 63.2539 101.07 63.4922 101.164 63.7852C101.258 64.0742 101.305 64.4277 101.305 64.8457V69H100.215V64.834C100.215 64.502 100.166 64.2363 100.068 64.0371C99.9707 63.834 99.8281 63.6875 99.6406 63.5977C99.4531 63.5039 99.2227 63.457 98.9492 63.457C98.6797 63.457 98.4336 63.5137 98.2109 63.627C97.9922 63.7402 97.8027 63.8965 97.6426 64.0957C97.4863 64.2949 97.3633 64.5234 97.2734 64.7812C97.1875 65.0352 97.1445 65.3047 97.1445 65.5898ZM102.641 65.9004V65.7656C102.641 65.3086 102.707 64.8848 102.84 64.4941C102.973 64.0996 103.164 63.7578 103.414 63.4688C103.664 63.1758 103.967 62.9492 104.322 62.7891C104.678 62.625 105.076 62.543 105.518 62.543C105.963 62.543 106.363 62.625 106.719 62.7891C107.078 62.9492 107.383 63.1758 107.633 63.4688C107.887 63.7578 108.08 64.0996 108.213 64.4941C108.346 64.8848 108.412 65.3086 108.412 65.7656V65.9004C108.412 66.3574 108.346 66.7812 108.213 67.1719C108.08 67.5625 107.887 67.9043 107.633 68.1973C107.383 68.4863 107.08 68.7129 106.725 68.877C106.373 69.0371 105.975 69.1172 105.529 69.1172C105.084 69.1172 104.684 69.0371 104.328 68.877C103.973 68.7129 103.668 68.4863 103.414 68.1973C103.164 67.9043 102.973 67.5625 102.84 67.1719C102.707 66.7812 102.641 66.3574 102.641 65.9004ZM103.725 65.7656V65.9004C103.725 66.2168 103.762 66.5156 103.836 66.7969C103.91 67.0742 104.021 67.3203 104.17 67.5352C104.322 67.75 104.512 67.9199 104.738 68.0449C104.965 68.166 105.229 68.2266 105.529 68.2266C105.826 68.2266 106.086 68.166 106.309 68.0449C106.535 67.9199 106.723 67.75 106.871 67.5352C107.02 67.3203 107.131 67.0742 107.205 66.7969C107.283 66.5156 107.322 66.2168 107.322 65.9004V65.7656C107.322 65.4531 107.283 65.1582 107.205 64.8809C107.131 64.5996 107.018 64.3516 106.865 64.1367C106.717 63.918 106.529 63.7461 106.303 63.6211C106.08 63.4961 105.818 63.4336 105.518 63.4336C105.221 63.4336 104.959 63.4961 104.732 63.6211C104.51 63.7461 104.322 63.918 104.17 64.1367C104.021 64.3516 103.91 64.5996 103.836 64.8809C103.762 65.1582 103.725 65.4531 103.725 65.7656ZM113.768 67.7695V60H114.857V69H113.861L113.768 67.7695ZM109.502 65.9004V65.7773C109.502 65.293 109.561 64.8535 109.678 64.459C109.799 64.0605 109.969 63.7188 110.188 63.4336C110.41 63.1484 110.674 62.9297 110.979 62.7773C111.287 62.6211 111.631 62.543 112.01 62.543C112.408 62.543 112.756 62.6133 113.053 62.7539C113.354 62.8906 113.607 63.0918 113.814 63.3574C114.025 63.6191 114.191 63.9355 114.312 64.3066C114.434 64.6777 114.518 65.0977 114.564 65.5664V66.1055C114.521 66.5703 114.438 66.9883 114.312 67.3594C114.191 67.7305 114.025 68.0469 113.814 68.3086C113.607 68.5703 113.354 68.7715 113.053 68.9121C112.752 69.0488 112.4 69.1172 111.998 69.1172C111.627 69.1172 111.287 69.0371 110.979 68.877C110.674 68.7168 110.41 68.4922 110.188 68.2031C109.969 67.9141 109.799 67.5742 109.678 67.1836C109.561 66.7891 109.502 66.3613 109.502 65.9004ZM110.592 65.7773V65.9004C110.592 66.2168 110.623 66.5137 110.686 66.791C110.752 67.0684 110.854 67.3125 110.99 67.5234C111.127 67.7344 111.301 67.9004 111.512 68.0215C111.723 68.1387 111.975 68.1973 112.268 68.1973C112.627 68.1973 112.922 68.1211 113.152 67.9688C113.387 67.8164 113.574 67.6152 113.715 67.3652C113.855 67.1152 113.965 66.8438 114.043 66.5508V65.1387C113.996 64.9238 113.928 64.7168 113.838 64.5176C113.752 64.3145 113.639 64.1348 113.498 63.9785C113.361 63.8184 113.191 63.6914 112.988 63.5977C112.789 63.5039 112.553 63.457 112.279 63.457C111.982 63.457 111.727 63.5195 111.512 63.6445C111.301 63.7656 111.127 63.9336 110.99 64.1484C110.854 64.3594 110.752 64.6055 110.686 64.8867C110.623 65.1641 110.592 65.4609 110.592 65.7773ZM120.283 67.916V64.6523C120.283 64.4023 120.232 64.1855 120.131 64.002C120.033 63.8145 119.885 63.6699 119.686 63.5684C119.486 63.4668 119.24 63.416 118.947 63.416C118.674 63.416 118.434 63.4629 118.227 63.5566C118.023 63.6504 117.863 63.7734 117.746 63.9258C117.633 64.0781 117.576 64.2422 117.576 64.418H116.492C116.492 64.1914 116.551 63.9668 116.668 63.7441C116.785 63.5215 116.953 63.3203 117.172 63.1406C117.395 62.957 117.66 62.8125 117.969 62.707C118.281 62.5977 118.629 62.543 119.012 62.543C119.473 62.543 119.879 62.6211 120.23 62.7773C120.586 62.9336 120.863 63.1699 121.062 63.4863C121.266 63.7988 121.367 64.1914 121.367 64.6641V67.6172C121.367 67.8281 121.385 68.0527 121.42 68.291C121.459 68.5293 121.516 68.7344 121.59 68.9062V69H120.459C120.404 68.875 120.361 68.709 120.33 68.502C120.299 68.291 120.283 68.0957 120.283 67.916ZM120.471 65.1562L120.482 65.918H119.387C119.078 65.918 118.803 65.9434 118.561 65.9941C118.318 66.041 118.115 66.1133 117.951 66.2109C117.787 66.3086 117.662 66.4316 117.576 66.5801C117.49 66.7246 117.447 66.8945 117.447 67.0898C117.447 67.2891 117.492 67.4707 117.582 67.6348C117.672 67.7988 117.807 67.9297 117.986 68.0273C118.17 68.1211 118.395 68.168 118.66 68.168C118.992 68.168 119.285 68.0977 119.539 67.957C119.793 67.8164 119.994 67.6445 120.143 67.4414C120.295 67.2383 120.377 67.041 120.389 66.8496L120.852 67.3711C120.824 67.5352 120.75 67.7168 120.629 67.916C120.508 68.1152 120.346 68.3066 120.143 68.4902C119.943 68.6699 119.705 68.8203 119.428 68.9414C119.154 69.0586 118.846 69.1172 118.502 69.1172C118.072 69.1172 117.695 69.0332 117.371 68.8652C117.051 68.6973 116.801 68.4727 116.621 68.1914C116.445 67.9062 116.357 67.5879 116.357 67.2363C116.357 66.8965 116.424 66.5977 116.557 66.3398C116.689 66.0781 116.881 65.8613 117.131 65.6895C117.381 65.5137 117.682 65.3809 118.033 65.291C118.385 65.2012 118.777 65.1562 119.211 65.1562H120.471ZM127.062 71.4375V63.8789L127.156 62.6602H128.152V71.4375H127.062ZM122.803 65.9004V65.7773C122.803 65.293 122.859 64.8535 122.973 64.459C123.086 64.0605 123.252 63.7188 123.471 63.4336C123.689 63.1484 123.953 62.9297 124.262 62.7773C124.574 62.6211 124.93 62.543 125.328 62.543C125.727 62.543 126.076 62.6133 126.377 62.7539C126.682 62.8906 126.939 63.0918 127.15 63.3574C127.365 63.6191 127.535 63.9355 127.66 64.3066C127.785 64.6777 127.871 65.0977 127.918 65.5664V66.1055C127.875 66.5703 127.791 66.9883 127.666 67.3594C127.541 67.7305 127.371 68.0469 127.156 68.3086C126.945 68.5703 126.686 68.7715 126.377 68.9121C126.072 69.0488 125.719 69.1172 125.316 69.1172C124.926 69.1172 124.574 69.0371 124.262 68.877C123.953 68.7168 123.689 68.4922 123.471 68.2031C123.256 67.9141 123.09 67.5742 122.973 67.1836C122.859 66.7891 122.803 66.3613 122.803 65.9004ZM123.893 65.7773V65.9004C123.893 66.2168 123.926 66.5156 123.992 66.7969C124.059 67.0742 124.16 67.3203 124.297 67.5352C124.438 67.75 124.613 67.9199 124.824 68.0449C125.039 68.166 125.293 68.2266 125.586 68.2266C125.945 68.2266 126.244 68.1484 126.482 67.9922C126.725 67.8359 126.918 67.6309 127.062 67.377C127.207 67.1191 127.318 66.8438 127.396 66.5508V65.1387C127.354 64.9238 127.285 64.7148 127.191 64.5117C127.102 64.3086 126.984 64.127 126.84 63.9668C126.695 63.8027 126.52 63.6738 126.312 63.5801C126.109 63.4824 125.871 63.4336 125.598 63.4336C125.301 63.4336 125.045 63.4961 124.83 63.6211C124.615 63.7461 124.438 63.918 124.297 64.1367C124.16 64.3516 124.059 64.5996 123.992 64.8809C123.926 65.1621 123.893 65.4609 123.893 65.7773ZM129.605 65.9004V65.7656C129.605 65.3086 129.672 64.8848 129.805 64.4941C129.938 64.0996 130.129 63.7578 130.379 63.4688C130.629 63.1758 130.932 62.9492 131.287 62.7891C131.643 62.625 132.041 62.543 132.482 62.543C132.928 62.543 133.328 62.625 133.684 62.7891C134.043 62.9492 134.348 63.1758 134.598 63.4688C134.852 63.7578 135.045 64.0996 135.178 64.4941C135.311 64.8848 135.377 65.3086 135.377 65.7656V65.9004C135.377 66.3574 135.311 66.7812 135.178 67.1719C135.045 67.5625 134.852 67.9043 134.598 68.1973C134.348 68.4863 134.045 68.7129 133.689 68.877C133.338 69.0371 132.939 69.1172 132.494 69.1172C132.049 69.1172 131.648 69.0371 131.293 68.877C130.938 68.7129 130.633 68.4863 130.379 68.1973C130.129 67.9043 129.938 67.5625 129.805 67.1719C129.672 66.7812 129.605 66.3574 129.605 65.9004ZM130.689 65.7656V65.9004C130.689 66.2168 130.727 66.5156 130.801 66.7969C130.875 67.0742 130.986 67.3203 131.135 67.5352C131.287 67.75 131.477 67.9199 131.703 68.0449C131.93 68.166 132.193 68.2266 132.494 68.2266C132.791 68.2266 133.051 68.166 133.273 68.0449C133.5 67.9199 133.688 67.75 133.836 67.5352C133.984 67.3203 134.096 67.0742 134.17 66.7969C134.248 66.5156 134.287 66.2168 134.287 65.9004V65.7656C134.287 65.4531 134.248 65.1582 134.17 64.8809C134.096 64.5996 133.982 64.3516 133.83 64.1367C133.682 63.918 133.494 63.7461 133.268 63.6211C133.045 63.4961 132.783 63.4336 132.482 63.4336C132.186 63.4336 131.924 63.4961 131.697 63.6211C131.475 63.7461 131.287 63.918 131.135 64.1367C130.986 64.3516 130.875 64.5996 130.801 64.8809C130.727 65.1582 130.689 65.4531 130.689 65.7656ZM137.82 60V69H136.736V60H137.82ZM137.562 65.5898L137.111 65.5723C137.115 65.1387 137.18 64.7383 137.305 64.3711C137.43 64 137.605 63.6777 137.832 63.4043C138.059 63.1309 138.328 62.9199 138.641 62.7715C138.957 62.6191 139.307 62.543 139.689 62.543C140.002 62.543 140.283 62.5859 140.533 62.6719C140.783 62.7539 140.996 62.8867 141.172 63.0703C141.352 63.2539 141.488 63.4922 141.582 63.7852C141.676 64.0742 141.723 64.4277 141.723 64.8457V69H140.633V64.834C140.633 64.502 140.584 64.2363 140.486 64.0371C140.389 63.834 140.246 63.6875 140.059 63.5977C139.871 63.5039 139.641 63.457 139.367 63.457C139.098 63.457 138.852 63.5137 138.629 63.627C138.41 63.7402 138.221 63.8965 138.061 64.0957C137.904 64.2949 137.781 64.5234 137.691 64.7812C137.605 65.0352 137.562 65.3047 137.562 65.5898Z" fill="black"/>
<path d="M193 113.333C193 97.8694 205.536 85.3334 221 85.3334H235.667V128H193V113.333Z" fill="#F2C41E"/>
<path d="M228.81 80.381C228.81 64.6014 241.601 51.8096 257.381 51.8096C283.68 51.8096 305 73.1293 305 99.4286V113C305 121.284 298.284 128 290 128H228.81V80.381Z" fill="#436129"/>
</svg>
