<svg width="265" height="183" viewBox="0 0 265 183" fill="none" xmlns="http://www.w3.org/2000/svg">
<path d="M165.082 182.373C165.082 171.534 162.947 160.8 158.799 150.786C154.651 140.772 148.571 131.673 140.906 124.008C133.242 116.343 124.142 110.263 114.128 106.115C104.114 101.967 93.3805 99.8322 82.541 99.8322V182.373H165.082Z" fill="#CCD591"/>
<path d="M166.168 131.871C166.168 125.382 167.446 118.956 169.93 112.96C172.413 106.965 176.053 101.517 180.642 96.9287C185.23 92.34 190.678 88.7001 196.673 86.2167C202.669 83.7333 209.095 82.4551 215.584 82.4551L215.584 131.871H166.168Z" fill="#F2C41E"/>
<path d="M166.168 181.83C166.168 175.341 167.446 168.915 169.93 162.919C172.413 156.924 176.053 151.476 180.642 146.888C185.23 142.299 190.678 138.659 196.673 136.176C202.669 133.692 209.095 132.414 215.584 132.414L215.584 181.83H166.168Z" fill="#F2C41E"/>
<path d="M212.869 52.0453H265V182.373H212.869V52.0453Z" fill="#CCD591"/>
<path d="M2.28882e-05 182.373C2.28882e-05 171.534 2.13501 160.8 6.28309 150.786C10.4312 140.772 16.5111 131.673 24.1757 124.008C31.8404 116.343 40.9396 110.263 50.9539 106.115C60.9683 101.967 71.7016 99.8322 82.541 99.8322V182.373H2.28882e-05Z" fill="#436129"/>
<path d="M132.333 79.377C123.92 89.4262 111.86 95.7218 98.8048 96.8789C85.7501 98.0359 72.7704 93.9595 62.7211 85.5465C52.6719 77.1336 46.3763 65.0731 45.2193 52.0183C44.0623 38.9636 48.1386 25.9839 56.5516 15.9346L72.2093 29.0429C67.2728 34.9394 64.881 42.5555 65.5599 50.2156C66.2388 57.8757 69.9328 64.9524 75.8294 69.8888C81.7259 74.8253 89.342 77.2172 97.0021 76.5383C104.662 75.8594 111.739 72.1653 116.675 66.2687L132.333 79.377Z" fill="#F2C41E"/>
</svg>
