<svg width="265" height="132" viewBox="0 0 265 132" fill="none" xmlns="http://www.w3.org/2000/svg">
<path d="M0 0H134.136V130.864H0V0Z" fill="#436129"/>
<path d="M133.045 131.955C133.045 120.927 130.873 110.008 126.653 99.8203C122.434 89.6325 116.248 80.3756 108.451 72.5781C100.653 64.7807 91.3965 58.5954 81.2086 54.3755C71.0207 50.1555 60.1015 47.9835 49.0742 47.9835L49.0742 131.955H133.045Z" fill="#92A760"/>
<path d="M49.0741 131.955C49.0741 125.51 47.8047 119.129 45.3385 113.175C42.8723 107.221 39.2576 101.811 34.7006 97.2541C30.1437 92.6972 24.7338 89.0824 18.7798 86.6162C12.8259 84.15 6.4445 82.8806 0 82.8806V131.955H49.0741Z" fill="#F2C41E"/>
<path d="M265 130.864C265 113.679 261.615 96.6618 255.038 80.7846C248.462 64.9075 238.823 50.4811 226.671 38.3292C214.519 26.1774 200.092 16.538 184.215 9.96144C168.338 3.3849 151.321 -7.51195e-07 134.136 0V130.864H265Z" fill="#92A760"/>
<path d="M133.045 131.409C133.045 124.893 134.329 118.441 136.822 112.421C139.316 106.401 142.971 100.931 147.578 96.3233C152.186 91.7157 157.656 88.0608 163.676 85.5672C169.696 83.0736 176.148 81.7901 182.665 81.7901L182.665 131.409H133.045Z" fill="#F2C41E"/>
<path d="M264.455 49.6193C264.455 43.1032 263.171 36.6509 260.678 30.6308C258.184 24.6107 254.529 19.1408 249.922 14.5332C245.314 9.92559 239.844 6.27065 233.824 3.77705C227.804 1.28344 221.352 -2.84828e-07 214.835 0L214.835 49.6193H264.455Z" fill="#436129"/>
</svg>
