<svg width="18" height="18" viewBox="0 0 18 18" fill="none" xmlns="http://www.w3.org/2000/svg">
<g clip-path="url(#clip0_376_2)">
<path d="M17.9913 9.16838C17.9913 8.43093 17.9301 7.89279 17.7975 7.33472H9.1792V10.6632H14.238C14.136 11.4904 13.5853 12.7361 12.3613 13.5732L12.3442 13.6846L15.0691 15.7472L15.2579 15.7657C16.9918 14.201 17.9913 11.899 17.9913 9.16838" fill="#4285F4"/>
<path d="M9.1792 17.9382C11.6576 17.9382 13.7382 17.1409 15.2579 15.7657L12.3613 13.5732C11.5862 14.1014 10.5459 14.4701 9.1792 14.4701C6.7518 14.4701 4.69157 12.9055 3.95716 10.743L3.84951 10.7519L1.01606 12.8945L0.979004 12.9952C2.48847 15.9251 5.58904 17.9382 9.1792 17.9382Z" fill="#34A853"/>
<path d="M3.95726 10.743C3.76348 10.1849 3.65133 9.58692 3.65133 8.96908C3.65133 8.35117 3.76348 7.75325 3.94706 7.19519L3.94193 7.07633L1.07297 4.89929L0.979102 4.94292C0.356977 6.15874 0 7.52406 0 8.96908C0 10.4141 0.356977 11.7793 0.979102 12.9952L3.95726 10.743" fill="#FBBC05"/>
<path d="M9.1792 3.46802C10.9028 3.46802 12.0655 4.19551 12.7285 4.80346L15.3191 2.33196C13.7281 0.886947 11.6576 0 9.1792 0C5.58904 0 2.48847 2.01305 0.979004 4.94292L3.94697 7.19519C4.69157 5.03265 6.7518 3.46802 9.1792 3.46802" fill="#EB4335"/>
</g>
<defs>
<clipPath id="clip0_376_2">
<rect width="18" height="18" fill="white"/>
</clipPath>
</defs>
</svg>
