<svg width="360" height="354" viewBox="0 0 360 354" fill="none" xmlns="http://www.w3.org/2000/svg">
<rect x="263" width="97" height="97" fill="#436129"/>
<path d="M0 0H121V60.5C121 93.9132 93.9132 121 60.5 121H0V0Z" fill="#92A760"/>
<path d="M-5 121H50V148.5C50 163.688 37.6878 176 22.5 176H-5V121Z" fill="#436129"/>
<rect x="166" width="48" height="48" fill="#CCD591"/>
<path d="M360 154.5C360 148.131 358.746 141.824 356.308 135.94C353.871 130.056 350.298 124.709 345.795 120.205C341.291 115.702 335.944 112.129 330.06 109.692C324.176 107.254 317.869 106 311.5 106L311.5 154.5H360Z" fill="#CCD591"/>
<path d="M98 262.5C98 256.131 96.7455 249.824 94.3082 243.94C91.8708 238.056 88.2983 232.709 83.7947 228.205C79.291 223.702 73.9444 220.129 68.0601 217.692C62.1759 215.254 55.8691 214 49.5 214L49.5 262.5H98Z" fill="#CCD591"/>
<path d="M314 96.5C314 90.5249 315.177 84.6082 317.463 79.0879C319.75 73.5676 323.102 68.5517 327.327 64.3266C331.552 60.1016 336.568 56.7501 342.088 54.4635C347.608 52.1769 353.525 51 359.5 51L359.5 96.5H314Z" fill="#F2C41E"/>
<path d="M263 154.5C263 148.131 264.254 141.824 266.692 135.94C269.129 130.056 272.702 124.709 277.205 120.205C281.709 115.702 287.056 112.129 292.94 109.692C298.824 107.254 305.131 106 311.5 106L311.5 154.5H263Z" fill="#436129"/>
<path d="M1 262.5C1 256.131 2.25449 249.824 4.69184 243.94C7.1292 238.056 10.7017 232.709 15.2053 228.205C19.709 223.702 25.0556 220.129 30.9399 217.692C36.8241 215.254 43.1309 214 49.5 214L49.5 262.5H1Z" fill="#436129"/>
<path d="M264 308.5C264 302.525 265.177 296.608 267.463 291.088C269.75 285.568 273.102 280.552 277.327 276.327C281.552 272.102 286.568 268.75 292.088 266.463C297.608 264.177 303.525 263 309.5 263L309.5 308.5H264Z" fill="#436129"/>
<path d="M267 262.5C267 251.403 264.814 240.415 260.568 230.163C256.321 219.911 250.097 210.596 242.251 202.749C234.404 194.903 225.089 188.679 214.837 184.432C204.585 180.186 193.597 178 182.5 178V262.5H267Z" fill="#CCD591"/>
<path d="M98 262.5C98 251.403 100.186 240.415 104.432 230.163C108.679 219.911 114.903 210.596 122.749 202.749C130.596 194.903 139.911 188.679 150.163 184.432C160.415 180.186 171.403 178 182.5 178V262.5H98Z" fill="#436129"/>
<path d="M224.846 158.166C217.1 167.419 205.995 173.215 193.975 174.281C181.955 175.346 170.004 171.593 160.751 163.846C151.498 156.1 145.701 144.995 144.636 132.975C143.571 120.955 147.324 109.004 155.07 99.7509L169.487 111.82C164.942 117.25 162.74 124.262 163.365 131.315C163.99 138.368 167.391 144.884 172.82 149.43C178.25 153.975 185.262 156.177 192.315 155.552C199.368 154.927 205.884 151.526 210.43 146.096L224.846 158.166Z" fill="#F2C41E"/>
</svg>
