<svg width="265" height="128" viewBox="0 0 265 128" fill="none" xmlns="http://www.w3.org/2000/svg">
<path d="M0 0H134.136V126.19H0V0Z" fill="#436129"/>
<path d="M133.045 127.242C133.045 116.609 130.873 106.079 126.653 96.2553C122.434 86.4313 116.248 77.505 108.451 69.986C100.653 62.467 91.3965 56.5027 81.2086 52.4334C71.0208 48.3642 60.1015 46.2698 49.0742 46.2698L49.0742 127.242H133.045Z" fill="#92A760"/>
<path d="M49.0741 127.242C49.0741 121.028 47.8047 114.874 45.3385 109.133C42.8723 103.392 39.2576 98.175 34.7006 93.7808C30.1437 89.3866 24.7338 85.9009 18.7798 83.5228C12.8259 81.1447 6.4445 79.9207 0 79.9207V127.242H49.0741Z" fill="#F2C41E"/>
<path d="M265 126.19C265 109.619 261.615 93.2096 255.038 77.8995C248.462 62.5893 238.823 48.6782 226.671 36.9603C214.519 25.2425 200.092 15.9473 184.215 9.60568C168.338 3.26401 151.321 -7.24366e-07 134.136 0V126.19H265Z" fill="#92A760"/>
<path d="M133.046 126.716C133.046 120.433 134.329 114.211 136.823 108.406C139.316 102.601 142.971 97.3263 147.579 92.8833C152.186 88.4402 157.656 84.9158 163.677 82.5113C169.697 80.1067 176.149 78.8691 182.665 78.8691L182.665 126.716H133.046Z" fill="#F2C41E"/>
<path d="M264.454 47.8472C264.454 41.5638 263.171 35.342 260.677 29.5369C258.184 23.7318 254.529 18.4572 249.921 14.0141C245.314 9.5711 239.844 6.0467 233.823 3.64215C227.803 1.2376 221.351 -2.74656e-07 214.835 0L214.835 47.8472H264.454Z" fill="#436129"/>
</svg>
