<svg width="915" height="459" viewBox="0 0 915 459" fill="none" xmlns="http://www.w3.org/2000/svg">
<path fill-rule="evenodd" clip-rule="evenodd" d="M186.115 376.733V326.124L0.00233882 407.541V458.035L4.49122 456.186L186.115 376.733Z" fill="#436129"/>
<path d="M186.115 321.354L0.00223942 244.687L0.00223484 295.182L186.115 376.598L186.115 321.354Z" fill="#CCD591"/>
<path fill-rule="evenodd" clip-rule="evenodd" d="M0.000976562 81.3021V131.911L186.113 50.4946V0L181.63 1.84691L0.000976562 81.3021Z" fill="#92A760"/>
<path fill-rule="evenodd" clip-rule="evenodd" d="M0.000976562 213.871V163.262L186.113 244.678V295.173L181.624 293.324L0.000976562 213.871Z" fill="#92A760"/>
<path fill-rule="evenodd" clip-rule="evenodd" d="M0 163.137V213.746L186.112 132.329V81.8346L181.624 83.6837L0 163.137Z" fill="#436129"/>
<path d="M291.223 238.239C280.288 238.239 271.325 235.871 264.336 231.136C257.346 226.401 253.119 219.637 251.653 210.844L271.269 205.771C272.058 209.717 273.355 212.817 275.158 215.072C277.075 217.326 279.386 218.961 282.092 219.976C284.91 220.877 287.954 221.328 291.223 221.328C296.183 221.328 299.847 220.483 302.215 218.792C304.582 216.988 305.766 214.79 305.766 212.197C305.766 209.604 304.639 207.631 302.384 206.278C300.129 204.813 296.522 203.629 291.561 202.727L286.826 201.882C280.964 200.754 275.609 199.232 270.762 197.316C265.914 195.287 262.025 192.525 259.094 189.03C256.162 185.535 254.697 181.026 254.697 175.502C254.697 167.159 257.741 160.79 263.828 156.393C269.916 151.884 277.92 149.629 287.841 149.629C297.198 149.629 304.977 151.715 311.177 155.886C317.378 160.057 321.436 165.525 323.353 172.289L303.568 178.376C302.666 174.092 300.806 171.049 297.987 169.245C295.282 167.441 291.899 166.539 287.841 166.539C283.783 166.539 280.682 167.272 278.54 168.738C276.398 170.09 275.327 172.007 275.327 174.487C275.327 177.193 276.455 179.222 278.709 180.575C280.964 181.815 284.008 182.773 287.841 183.449L292.576 184.295C298.889 185.422 304.582 186.944 309.655 188.861C314.841 190.664 318.9 193.314 321.831 196.809C324.874 200.191 326.396 204.813 326.396 210.675C326.396 219.468 323.183 226.289 316.758 231.136C310.444 235.871 301.933 238.239 291.223 238.239ZM383.285 238.239C374.942 238.239 367.558 236.491 361.132 232.996C354.819 229.389 349.859 224.372 346.251 217.946C342.757 211.408 341.009 203.742 341.009 194.948V192.919C341.009 184.126 342.757 176.516 346.251 170.09C349.746 163.552 354.65 158.535 360.963 155.04C367.276 151.433 374.604 149.629 382.947 149.629C391.176 149.629 398.335 151.489 404.423 155.209C410.51 158.817 415.245 163.89 418.627 170.429C422.009 176.854 423.7 184.351 423.7 192.919V200.191H362.654C362.88 205.94 365.022 210.619 369.08 214.226C373.139 217.834 378.099 219.637 383.961 219.637C389.936 219.637 394.333 218.341 397.151 215.748C399.97 213.155 402.112 210.28 403.577 207.124L420.995 216.255C419.416 219.186 417.105 222.399 414.062 225.894C411.13 229.276 407.185 232.207 402.224 234.687C397.264 237.055 390.951 238.239 383.285 238.239ZM362.823 184.295H402.055C401.604 179.447 399.631 175.558 396.137 172.627C392.755 169.696 388.302 168.23 382.778 168.23C377.028 168.23 372.462 169.696 369.08 172.627C365.698 175.558 363.613 179.447 362.823 184.295ZM442.665 235.871V151.996H463.634V161.466H466.677C467.918 158.084 469.947 155.604 472.765 154.026C475.696 152.447 479.078 151.658 482.911 151.658H493.057V170.598H482.573C477.162 170.598 472.709 172.063 469.214 174.994C465.719 177.813 463.972 182.209 463.972 188.184V235.871H442.665ZM533.772 238.239C527.797 238.239 522.442 237.224 517.707 235.195C512.972 233.053 509.195 230.009 506.377 226.063C503.671 222.005 502.318 217.101 502.318 211.351C502.318 205.602 503.671 200.811 506.377 196.978C509.195 193.032 513.028 190.101 517.876 188.184C522.836 186.155 528.473 185.14 534.786 185.14H557.784V180.406C557.784 176.46 556.544 173.247 554.064 170.767C551.584 168.174 547.638 166.877 542.227 166.877C536.928 166.877 532.982 168.117 530.389 170.598C527.797 172.965 526.106 176.065 525.316 179.898L505.701 173.303C507.053 169.019 509.195 165.13 512.126 161.635C515.17 158.028 519.172 155.153 524.133 153.011C529.206 150.756 535.35 149.629 542.565 149.629C553.613 149.629 562.35 152.391 568.776 157.915C575.202 163.439 578.415 171.443 578.415 181.928V213.211C578.415 216.594 579.993 218.285 583.149 218.285H589.914V235.871H575.709C571.538 235.871 568.099 234.857 565.394 232.827C562.688 230.798 561.335 228.093 561.335 224.71V224.541H558.122C557.671 225.894 556.657 227.698 555.078 229.953C553.5 232.095 551.02 234.011 547.638 235.702C544.256 237.393 539.634 238.239 533.772 238.239ZM537.492 220.99C543.467 220.99 548.314 219.356 552.035 216.086C555.868 212.704 557.784 208.251 557.784 202.727V201.036H536.308C532.362 201.036 529.262 201.882 527.007 203.573C524.753 205.264 523.625 207.631 523.625 210.675C523.625 213.719 524.809 216.199 527.177 218.115C529.544 220.032 532.982 220.99 537.492 220.99ZM605.492 235.871V151.996H626.461V161.128H629.505C630.97 158.31 633.394 155.886 636.776 153.857C640.158 151.715 644.611 150.644 650.135 150.644C656.11 150.644 660.901 151.827 664.509 154.195C668.116 156.449 670.878 159.437 672.795 163.157H675.839C677.755 159.55 680.461 156.562 683.956 154.195C687.45 151.827 692.411 150.644 698.837 150.644C704.023 150.644 708.701 151.771 712.872 154.026C717.156 156.168 720.538 159.493 723.018 164.003C725.611 168.399 726.908 173.98 726.908 180.744V235.871H705.601V182.266C705.601 177.644 704.417 174.205 702.05 171.95C699.682 169.583 696.357 168.399 692.073 168.399C687.225 168.399 683.448 169.978 680.743 173.134C678.15 176.178 676.853 180.575 676.853 186.324V235.871H655.546V182.266C655.546 177.644 654.363 174.205 651.995 171.95C649.628 169.583 646.302 168.399 642.018 168.399C637.171 168.399 633.394 169.978 630.688 173.134C628.096 176.178 626.799 180.575 626.799 186.324V235.871H605.492ZM800.216 238.239C792.663 238.239 786.857 236.942 782.799 234.349C778.74 231.756 775.753 228.882 773.836 225.725H770.792V235.871H749.824V117.499H771.131V161.635H774.175C775.415 159.606 777.049 157.689 779.078 155.886C781.22 154.082 783.982 152.616 787.365 151.489C790.859 150.249 795.143 149.629 800.216 149.629C806.98 149.629 813.237 151.32 818.987 154.702C824.736 157.971 829.358 162.819 832.853 169.245C836.348 175.671 838.095 183.449 838.095 192.581V195.287C838.095 204.418 836.348 212.197 832.853 218.623C829.358 225.049 824.736 229.953 818.987 233.335C813.237 236.604 806.98 238.239 800.216 238.239ZM793.79 219.637C800.329 219.637 805.797 217.552 810.193 213.381C814.59 209.097 816.788 202.896 816.788 194.779V193.088C816.788 184.971 814.59 178.827 810.193 174.656C805.909 170.372 800.442 168.23 793.79 168.23C787.252 168.23 781.784 170.372 777.387 174.656C772.991 178.827 770.792 184.971 770.792 193.088V194.779C770.792 202.896 772.991 209.097 777.387 213.381C781.784 217.552 787.252 219.637 793.79 219.637ZM857.66 235.871V151.996H878.967V235.871H857.66ZM868.313 142.188C864.48 142.188 861.211 140.948 858.505 138.468C855.912 135.988 854.616 132.719 854.616 128.66C854.616 124.602 855.912 121.332 858.505 118.852C861.211 116.372 864.48 115.132 868.313 115.132C872.259 115.132 875.528 116.372 878.121 118.852C880.714 121.332 882.01 124.602 882.01 128.66C882.01 132.719 880.714 135.988 878.121 138.468C875.528 140.948 872.259 142.188 868.313 142.188ZM258.586 387.871V305.18H271.945V387.871H258.586ZM265.35 292.328C262.419 292.328 259.939 291.37 257.91 289.454C255.993 287.537 255.035 285.113 255.035 282.182C255.035 279.138 255.993 276.658 257.91 274.742C259.939 272.825 262.419 271.867 265.35 271.867C268.281 271.867 270.705 272.825 272.622 274.742C274.538 276.658 275.497 279.138 275.497 282.182C275.497 285.113 274.538 287.537 272.622 289.454C270.705 291.37 268.281 292.328 265.35 292.328ZM300.036 387.871V305.18H313.057V319.216H315.425C317.228 315.27 320.272 311.719 324.556 308.562C328.953 305.293 335.379 303.658 343.834 303.658C350.034 303.658 355.558 304.955 360.406 307.548C365.366 310.14 369.312 313.973 372.243 319.047C375.174 324.12 376.64 330.376 376.64 337.817V387.871H363.281V338.831C363.281 330.602 361.195 324.627 357.024 320.907C352.965 317.186 347.441 315.326 340.452 315.326C332.448 315.326 325.909 317.919 320.836 323.105C315.875 328.291 313.395 336.013 313.395 346.272V387.871H300.036ZM441.961 390.239C433.618 390.239 426.234 388.491 419.808 384.996C413.495 381.502 408.535 376.598 404.927 370.285C401.433 363.859 399.685 356.305 399.685 347.625V345.426C399.685 336.859 401.433 329.362 404.927 322.936C408.535 316.51 413.495 311.55 419.808 308.055C426.234 304.56 433.618 302.813 441.961 302.813C450.303 302.813 457.631 304.56 463.944 308.055C470.37 311.55 475.33 316.51 478.825 322.936C482.433 329.362 484.236 336.859 484.236 345.426V347.625C484.236 356.305 482.433 363.859 478.825 370.285C475.33 376.598 470.37 381.502 463.944 384.996C457.631 388.491 450.303 390.239 441.961 390.239ZM441.961 378.232C450.754 378.232 457.744 375.47 462.929 369.946C468.228 364.31 470.877 356.756 470.877 347.287V345.765C470.877 336.295 468.228 328.798 462.929 323.274C457.744 317.637 450.754 314.819 441.961 314.819C433.28 314.819 426.291 317.637 420.992 323.274C415.694 328.798 413.044 336.295 413.044 345.765V347.287C413.044 356.756 415.694 364.31 420.992 369.946C426.291 375.47 433.28 378.232 441.961 378.232ZM525.777 387.871L496.185 305.18H510.389L535.247 377.894H537.615L562.473 305.18H576.677L547.084 387.871H525.777ZM618.689 390.239C612.939 390.239 607.697 389.224 602.962 387.195C598.227 385.166 594.507 382.234 591.801 378.401C589.096 374.568 587.743 369.89 587.743 364.366C587.743 358.729 589.096 354.107 591.801 350.5C594.507 346.779 598.227 344.017 602.962 342.214C607.697 340.297 612.996 339.339 618.858 339.339H646.76V333.251C646.76 327.389 645.012 322.767 641.518 319.385C638.136 316.003 633.062 314.312 626.298 314.312C619.647 314.312 614.461 315.946 610.741 319.216C607.021 322.372 604.484 326.656 603.131 332.067L590.618 328.009C591.971 323.387 594.112 319.216 597.044 315.495C599.975 311.662 603.864 308.619 608.712 306.364C613.672 303.996 619.591 302.813 626.467 302.813C637.065 302.813 645.294 305.575 651.156 311.099C657.019 316.51 659.95 324.176 659.95 334.097V371.468C659.95 374.85 661.528 376.541 664.685 376.541H672.294V387.871H660.626C656.906 387.871 653.918 386.857 651.664 384.827C649.409 382.685 648.282 379.867 648.282 376.372V375.527H646.252C645.012 377.669 643.321 379.923 641.179 382.291C639.15 384.546 636.332 386.406 632.724 387.871C629.117 389.45 624.438 390.239 618.689 390.239ZM620.211 378.74C628.102 378.74 634.472 376.429 639.319 371.806C644.28 367.072 646.76 360.477 646.76 352.021V350.161H619.365C614.067 350.161 609.67 351.345 606.175 353.713C602.793 355.967 601.102 359.406 601.102 364.028C601.102 368.65 602.849 372.257 606.344 374.85C609.952 377.443 614.574 378.74 620.211 378.74ZM715.579 387.871C710.844 387.871 707.18 386.575 704.588 383.982C702.107 381.389 700.867 377.838 700.867 373.328V316.848H676.009V305.18H700.867V275.756H714.226V305.18H741.283V316.848H714.226V371.299C714.226 374.681 715.861 376.372 719.13 376.372H737.563V387.871H715.579ZM798.166 390.239C789.824 390.239 782.439 388.491 776.014 384.996C769.7 381.502 764.74 376.598 761.132 370.285C757.638 363.859 755.89 356.305 755.89 347.625V345.426C755.89 336.859 757.638 329.362 761.132 322.936C764.74 316.51 769.7 311.55 776.014 308.055C782.439 304.56 789.824 302.813 798.166 302.813C806.508 302.813 813.836 304.56 820.149 308.055C826.575 311.55 831.536 316.51 835.03 322.936C838.638 329.362 840.442 336.859 840.442 345.426V347.625C840.442 356.305 838.638 363.859 835.03 370.285C831.536 376.598 826.575 381.502 820.149 384.996C813.836 388.491 806.508 390.239 798.166 390.239ZM798.166 378.232C806.959 378.232 813.949 375.47 819.135 369.946C824.433 364.31 827.082 356.756 827.082 347.287V345.765C827.082 336.295 824.433 328.798 819.135 323.274C813.949 317.637 806.959 314.819 798.166 314.819C789.485 314.819 782.496 317.637 777.197 323.274C771.899 328.798 769.249 336.295 769.249 345.765V347.287C769.249 356.756 771.899 364.31 777.197 369.946C782.496 375.47 789.485 378.232 798.166 378.232ZM864.482 387.871V305.18H877.503V315.326H879.87C881.336 311.719 883.59 309.069 886.634 307.378C889.678 305.687 893.68 304.842 898.641 304.842H908.449V317.017H897.795C891.82 317.017 886.972 318.708 883.252 322.09C879.645 325.36 877.841 330.489 877.841 337.479V387.871H864.482Z" fill="black"/>
</svg>
