<svg width="264" height="132" viewBox="0 0 264 132" fill="none" xmlns="http://www.w3.org/2000/svg">
<path d="M0 0H132V71.5C132 104.913 104.913 132 71.5 132H0V0Z" fill="#CCD591"/>
<path d="M161.455 0H264V130.909H161.455V0Z" fill="#436129"/>
<path d="M82.3639 95.4545C82.3639 88.9362 81.08 82.4817 78.5856 76.4595C76.0911 70.4374 72.4349 64.9655 67.8257 60.3563C63.2166 55.7472 57.7447 52.091 51.7226 49.5965C45.7004 47.1021 39.2459 45.8182 32.7275 45.8182L32.7275 95.4545H82.3639Z" fill="#92A760"/>
<path d="M122.727 64.9091C122.727 58.3908 121.443 51.9362 118.949 45.9141C116.454 39.8919 112.798 34.42 108.189 29.8109C103.58 25.2017 98.108 21.5455 92.0858 19.0511C86.0637 16.5566 79.6092 15.2727 73.0908 15.2727L73.0908 64.9091H122.727Z" fill="#436129"/>
<path d="M111.273 131.455C111.273 124.936 112.557 118.482 115.051 112.46C117.546 106.437 121.202 100.965 125.811 96.3563C130.42 91.7472 135.892 88.091 141.914 85.5965C147.936 83.1021 154.391 81.8182 160.909 81.8182L160.909 131.455H111.273Z" fill="#F2C41E"/>
<path d="M49.0909 132C49.0909 125.553 47.8211 119.17 45.3541 113.214C42.887 107.258 39.271 101.846 34.7125 97.2875C30.154 92.729 24.7423 89.113 18.7863 86.6459C12.8303 84.1789 6.44671 82.9091 0 82.9091V132H49.0909Z" fill="#F2C41E"/>
<path d="M210.545 130.909C210.545 124.462 209.276 118.079 206.809 112.123C204.342 106.167 200.726 100.755 196.167 96.1966C191.609 91.6381 186.197 88.022 180.241 85.555C174.285 83.0879 167.901 81.8182 161.455 81.8182V130.909H210.545Z" fill="#92A760"/>
</svg>
