<svg width="222" height="85" viewBox="0 0 222 85" fill="none" xmlns="http://www.w3.org/2000/svg">
<path d="M74.9859 45.4877C73.1049 45.4877 71.4444 45.1509 70.0046 44.4775C68.5648 43.804 67.4385 42.8403 66.6257 41.5863C65.8129 40.3322 65.4065 38.8228 65.4065 37.0578V36.0825H69.935V37.0578C69.935 38.5209 70.3878 39.6239 71.2935 40.3671C72.1992 41.087 73.43 41.4469 74.9859 41.4469C76.565 41.4469 77.7378 41.1334 78.5041 40.5064C79.2937 39.8794 79.6885 39.0782 79.6885 38.1028C79.6885 37.4294 79.4911 36.8837 79.0963 36.4656C78.7248 36.0476 78.1674 35.7109 77.4243 35.4555C76.7044 35.1768 75.8219 34.9213 74.7769 34.6891L73.9757 34.5149C72.3037 34.1434 70.8639 33.6789 69.6563 33.1216C68.4719 32.541 67.5546 31.7863 66.9044 30.8574C66.2774 29.9284 65.9639 28.7209 65.9639 27.2346C65.9639 25.7484 66.3122 24.4827 67.0089 23.4377C67.7288 22.3694 68.7274 21.5567 70.0046 20.9993C71.3051 20.4187 72.8262 20.1285 74.5679 20.1285C76.3096 20.1285 77.8539 20.4304 79.2008 21.0341C80.571 21.6147 81.6392 22.4972 82.4056 23.6815C83.1951 24.8427 83.5899 26.3057 83.5899 28.0706V29.1157H79.0615V28.0706C79.0615 27.1417 78.8757 26.3986 78.5041 25.8412C78.1558 25.2607 77.6449 24.8427 76.9714 24.5872C76.298 24.3085 75.4968 24.1692 74.5679 24.1692C73.1745 24.1692 72.1411 24.4363 71.4677 24.9704C70.8174 25.4813 70.4923 26.1896 70.4923 27.0953C70.4923 27.6991 70.6433 28.21 70.9451 28.628C71.2703 29.046 71.7463 29.3943 72.3733 29.673C73.0004 29.9517 73.8015 30.1955 74.7769 30.4045L75.5781 30.5787C77.3198 30.9502 78.8293 31.4263 80.1065 32.0069C81.407 32.5875 82.4172 33.3538 83.1371 34.3059C83.857 35.2581 84.2169 36.4773 84.2169 37.9635C84.2169 39.4498 83.8338 40.7619 83.0674 41.8998C82.3243 43.0145 81.256 43.8969 79.8627 44.5472C78.4925 45.1742 76.8669 45.4877 74.9859 45.4877ZM89.6666 51.9668V48.1351H99.0718C99.722 48.1351 100.047 47.7867 100.047 47.09V42.7358H99.4201C99.2343 43.1306 98.9441 43.5254 98.5493 43.9201C98.1545 44.3149 97.6204 44.64 96.9469 44.8955C96.2734 45.1509 95.4142 45.2787 94.3692 45.2787C93.0223 45.2787 91.8379 44.9768 90.8161 44.373C89.8175 43.746 89.0396 42.8867 88.4822 41.7953C87.9249 40.7038 87.6462 39.4498 87.6462 38.0332V27.7223H92.0353V37.6848C92.0353 38.9853 92.3488 39.9607 92.9758 40.6109C93.626 41.2611 94.5433 41.5863 95.7277 41.5863C97.0746 41.5863 98.1196 41.145 98.8628 40.2626C99.6059 39.3569 99.9775 38.1028 99.9775 36.5005V27.7223H104.367V48.0654C104.367 49.2498 104.018 50.1903 103.322 50.887C102.625 51.6069 101.696 51.9668 100.535 51.9668H89.6666ZM115.834 45.2787C114.487 45.2787 113.303 44.9768 112.281 44.373C111.283 43.746 110.505 42.8867 109.947 41.7953C109.39 40.7038 109.111 39.4498 109.111 38.0332V27.7223H113.5V37.6848C113.5 38.9853 113.814 39.9607 114.441 40.6109C115.091 41.2611 116.008 41.5863 117.193 41.5863C118.54 41.5863 119.585 41.145 120.328 40.2626C121.071 39.3569 121.443 38.1028 121.443 36.5005V27.7223H125.832V45H121.512V42.7358H120.885C120.607 43.3164 120.084 43.8853 119.318 44.4427C118.551 45 117.39 45.2787 115.834 45.2787ZM130.716 45V20.6161H135.105V29.8472H135.732C135.918 29.4756 136.208 29.104 136.603 28.7325C136.998 28.3609 137.52 28.059 138.17 27.8268C138.844 27.5713 139.691 27.4436 140.713 27.4436C142.06 27.4436 143.233 27.7571 144.231 28.3841C145.253 28.9879 146.043 29.8356 146.6 30.927C147.158 31.9953 147.436 33.2493 147.436 34.6891V45H143.047V35.0374C143.047 33.737 142.722 32.7616 142.072 32.1114C141.445 31.4611 140.539 31.136 139.355 31.136C138.008 31.136 136.963 31.5889 136.22 32.4946C135.476 33.377 135.105 34.6194 135.105 36.2218V45H130.716ZM157.545 45.4877C156.315 45.4877 155.212 45.2787 154.236 44.8607C153.261 44.4194 152.483 43.7924 151.902 42.9796C151.345 42.1436 151.066 41.1334 151.066 39.9491C151.066 38.7647 151.345 37.7777 151.902 36.9882C152.483 36.1754 153.272 35.5716 154.271 35.1768C155.293 34.7588 156.454 34.5498 157.754 34.5498H162.492V33.5744C162.492 32.7616 162.236 32.0998 161.726 31.5889C161.215 31.0547 160.402 30.7877 159.287 30.7877C158.196 30.7877 157.383 31.0431 156.849 31.554C156.315 32.0417 155.966 32.6803 155.804 33.4699L151.763 32.1114C152.042 31.2289 152.483 30.4277 153.087 29.7078C153.714 28.9647 154.538 28.3725 155.56 27.9313C156.605 27.4668 157.871 27.2346 159.357 27.2346C161.633 27.2346 163.432 27.8036 164.756 28.9415C166.08 30.0794 166.742 31.7282 166.742 33.8879V40.3322C166.742 41.0289 167.067 41.3773 167.717 41.3773H169.11V45H166.184C165.325 45 164.617 44.791 164.059 44.373C163.502 43.955 163.223 43.3976 163.223 42.7009V42.6661H162.562C162.469 42.9448 162.26 43.3164 161.935 43.7808C161.609 44.222 161.099 44.6168 160.402 44.9652C159.705 45.3135 158.753 45.4877 157.545 45.4877ZM158.312 41.9346C159.543 41.9346 160.541 41.5979 161.308 40.9244C162.097 40.2277 162.492 39.3104 162.492 38.1725V37.8242H158.068C157.255 37.8242 156.617 37.9983 156.152 38.3467C155.688 38.695 155.455 39.1827 155.455 39.8097C155.455 40.4367 155.699 40.9476 156.187 41.3424C156.675 41.7372 157.383 41.9346 158.312 41.9346ZM178.946 45.4877C177.576 45.4877 176.287 45.1509 175.079 44.4775C173.895 43.7808 172.943 42.7706 172.223 41.4469C171.503 40.1232 171.143 38.5209 171.143 36.6398V36.0825C171.143 34.2014 171.503 32.5991 172.223 31.2754C172.943 29.9517 173.895 28.9531 175.079 28.2796C176.264 27.583 177.553 27.2346 178.946 27.2346C179.991 27.2346 180.862 27.3623 181.559 27.6178C182.279 27.85 182.859 28.1519 183.3 28.5235C183.742 28.895 184.078 29.2898 184.311 29.7078H184.938V20.6161H189.327V45H185.007V42.91H184.38C183.985 43.5602 183.37 44.1524 182.534 44.6865C181.721 45.2206 180.525 45.4877 178.946 45.4877ZM180.27 41.6559C181.617 41.6559 182.743 41.2263 183.649 40.3671C184.554 39.4846 185.007 38.2074 185.007 36.5353V36.187C185.007 34.5149 184.554 33.2493 183.649 32.3901C182.766 31.5076 181.64 31.0664 180.27 31.0664C178.923 31.0664 177.797 31.5076 176.891 32.3901C175.985 33.2493 175.532 34.5149 175.532 36.187V36.5353C175.532 38.2074 175.985 39.4846 176.891 40.3671C177.797 41.2263 178.923 41.6559 180.27 41.6559ZM199.557 45.4877C198.326 45.4877 197.223 45.2787 196.248 44.8607C195.273 44.4194 194.495 43.7924 193.914 42.9796C193.357 42.1436 193.078 41.1334 193.078 39.9491C193.078 38.7647 193.357 37.7777 193.914 36.9882C194.495 36.1754 195.284 35.5716 196.283 35.1768C197.305 34.7588 198.466 34.5498 199.766 34.5498H204.504V33.5744C204.504 32.7616 204.248 32.0998 203.737 31.5889C203.226 31.0547 202.414 30.7877 201.299 30.7877C200.207 30.7877 199.395 31.0431 198.861 31.554C198.326 32.0417 197.978 32.6803 197.816 33.4699L193.775 32.1114C194.053 31.2289 194.495 30.4277 195.098 29.7078C195.726 28.9647 196.55 28.3725 197.572 27.9313C198.617 27.4668 199.882 27.2346 201.369 27.2346C203.644 27.2346 205.444 27.8036 206.768 28.9415C208.092 30.0794 208.753 31.7282 208.753 33.8879V40.3322C208.753 41.0289 209.079 41.3773 209.729 41.3773H211.122V45H208.196C207.337 45 206.629 44.791 206.071 44.373C205.514 43.955 205.235 43.3976 205.235 42.7009V42.6661H204.573C204.48 42.9448 204.271 43.3164 203.946 43.7808C203.621 44.222 203.11 44.6168 202.414 44.9652C201.717 45.3135 200.765 45.4877 199.557 45.4877ZM200.324 41.9346C201.554 41.9346 202.553 41.5979 203.319 40.9244C204.109 40.2277 204.504 39.3104 204.504 38.1725V37.8242H200.08C199.267 37.8242 198.628 37.9983 198.164 38.3467C197.699 38.695 197.467 39.1827 197.467 39.8097C197.467 40.4367 197.711 40.9476 198.199 41.3424C198.686 41.7372 199.395 41.9346 200.324 41.9346ZM65.093 78L72.6172 53.6161H77.7726L85.2968 78H82.2662L80.3852 71.8344H70.0046L68.1236 78H65.093ZM70.7361 69.187H79.6188L75.4387 55.3927H74.9511L70.7361 69.187ZM89.0548 84.9668V60.9661H91.737V63.7877H92.2247C92.6659 62.9284 93.3742 62.1621 94.3496 61.4886C95.3482 60.8152 96.7299 60.4784 98.4948 60.4784C99.9579 60.4784 101.293 60.8384 102.501 61.5583C103.732 62.255 104.707 63.2536 105.427 64.554C106.17 65.8545 106.542 67.422 106.542 69.2566V69.7095C106.542 71.5209 106.182 73.0884 105.462 74.4121C104.742 75.7358 103.766 76.746 102.536 77.4427C101.328 78.1393 99.9811 78.4877 98.4948 78.4877C97.3105 78.4877 96.3003 78.3251 95.4643 78C94.6515 77.6981 93.9896 77.3033 93.4787 76.8156C92.9678 76.328 92.573 75.8287 92.2944 75.3178H91.8067V84.9668H89.0548ZM97.7633 76.0493C99.5282 76.0493 100.956 75.4919 102.048 74.3773C103.163 73.2393 103.72 71.6602 103.72 69.6398V69.3263C103.72 67.3059 103.163 65.7384 102.048 64.6237C100.956 63.4858 99.5282 62.9168 97.7633 62.9168C96.0216 62.9168 94.5818 63.4858 93.4439 64.6237C92.3292 65.7384 91.7719 67.3059 91.7719 69.3263V69.6398C91.7719 71.6602 92.3292 73.2393 93.4439 74.3773C94.5818 75.4919 96.0216 76.0493 97.7633 76.0493ZM111.472 84.9668V60.9661H114.155V63.7877H114.642C115.084 62.9284 115.792 62.1621 116.767 61.4886C117.766 60.8152 119.148 60.4784 120.912 60.4784C122.376 60.4784 123.711 60.8384 124.918 61.5583C126.149 62.255 127.125 63.2536 127.844 64.554C128.588 65.8545 128.959 67.422 128.959 69.2566V69.7095C128.959 71.5209 128.599 73.0884 127.879 74.4121C127.159 75.7358 126.184 76.746 124.953 77.4427C123.746 78.1393 122.399 78.4877 120.912 78.4877C119.728 78.4877 118.718 78.3251 117.882 78C117.069 77.6981 116.407 77.3033 115.896 76.8156C115.385 76.328 114.991 75.8287 114.712 75.3178H114.224V84.9668H111.472ZM120.181 76.0493C121.946 76.0493 123.374 75.4919 124.466 74.3773C125.58 73.2393 126.138 71.6602 126.138 69.6398V69.3263C126.138 67.3059 125.58 65.7384 124.466 64.6237C123.374 63.4858 121.946 62.9168 120.181 62.9168C118.439 62.9168 116.999 63.4858 115.862 64.6237C114.747 65.7384 114.19 67.3059 114.19 69.3263V69.6398C114.19 71.6602 114.747 73.2393 115.862 74.3773C116.999 75.4919 118.439 76.0493 120.181 76.0493ZM140.752 78.4877C138.639 78.4877 136.851 78 135.388 77.0246C133.948 76.0493 133.077 74.505 132.775 72.3917L135.388 71.7995C135.574 72.9142 135.922 73.7967 136.433 74.4469C136.944 75.0739 137.571 75.5268 138.314 75.8055C139.08 76.0609 139.893 76.1886 140.752 76.1886C142.03 76.1886 143.04 75.9332 143.783 75.4223C144.526 74.9114 144.898 74.2263 144.898 73.3671C144.898 72.4846 144.538 71.8692 143.818 71.5209C143.121 71.1493 142.157 70.8474 140.927 70.6152L139.498 70.3713C138.407 70.1856 137.408 69.8953 136.503 69.5005C135.597 69.1057 134.877 68.5716 134.343 67.8981C133.809 67.2247 133.542 66.377 133.542 65.3552C133.542 63.8225 134.134 62.6266 135.318 61.7673C136.503 60.9081 138.07 60.4784 140.021 60.4784C141.948 60.4784 143.504 60.9197 144.689 61.8021C145.896 62.6614 146.674 63.8806 147.023 65.4597L144.445 66.1216C144.236 64.8908 143.737 64.0315 142.947 63.5438C142.157 63.033 141.182 62.7775 140.021 62.7775C138.86 62.7775 137.942 62.9981 137.269 63.4393C136.596 63.8574 136.259 64.4844 136.259 65.3204C136.259 66.1332 136.572 66.737 137.199 67.1318C137.85 67.5033 138.709 67.782 139.777 67.9678L141.205 68.2116C142.413 68.4206 143.493 68.7109 144.445 69.0825C145.42 69.4308 146.187 69.9417 146.744 70.6152C147.324 71.2886 147.615 72.1711 147.615 73.2626C147.615 74.9346 146.988 76.2235 145.734 77.1291C144.503 78.0348 142.842 78.4877 140.752 78.4877Z" fill="black"/>
<path d="M0.0755081 38.2311C2.92811 38.2311 5.75278 38.793 8.38824 39.8847C11.0237 40.9763 13.4183 42.5763 15.4354 44.5934C17.4525 46.6105 19.0526 49.0052 20.1442 51.6406C21.2359 54.2761 21.7977 57.1008 21.7977 59.9534L0.0755081 59.9534V38.2311Z" fill="#92A760"/>
<path d="M43.4444 38.2311C40.5918 38.2311 37.7671 38.793 35.1317 39.8847C32.4962 40.9763 30.1016 42.5763 28.0845 44.5934C26.0674 46.6105 24.4673 49.0052 23.3757 51.6406C22.284 54.2761 21.7222 57.1008 21.7222 59.9534L43.4444 59.9534V38.2311Z" fill="#436129"/>
<path d="M43.4444 16.5089C40.5918 16.5089 37.7671 17.0708 35.1317 18.1624C32.4962 19.2541 30.1016 20.8541 28.0845 22.8712C26.0674 24.8883 24.4673 27.2829 23.3757 29.9184C22.284 32.5539 21.7222 35.3785 21.7222 38.2311L43.4444 38.2311V16.5089Z" fill="#CCD591"/>
<path d="M-5.34058e-05 16.5089C2.85255 16.5089 5.67722 17.0708 8.31268 18.1624C10.9481 19.2541 13.3428 20.8541 15.3599 22.8712C17.377 24.8883 18.977 27.2829 20.0687 29.9184C21.1603 32.5539 21.7222 35.3785 21.7222 38.2311L-5.34058e-05 38.2311V16.5089Z" fill="#436129"/>
<path d="M21.7222 81.6756C18.8696 81.6756 16.0449 81.1137 13.4095 80.0221C10.774 78.9304 8.37939 77.3304 6.36229 75.3133C4.3452 73.2962 2.74515 70.9016 1.65351 68.2661C0.561862 65.6306 -1.24691e-07 62.806 0 59.9534L21.7222 59.9534V81.6756Z" fill="#92A760"/>
<path d="M33.4522 81.6756C38.9708 81.6756 43.4445 77.2019 43.4445 71.6834V59.9534H21.7222V81.6756H33.4522Z" fill="#CCD591"/>
<circle cx="21.4766" cy="8.25444" r="8.25444" fill="#F2C41E"/>
</svg>
