<svg width="265" height="132" viewBox="0 0 265 132" fill="none" xmlns="http://www.w3.org/2000/svg">
<path d="M0 0H84.3182V131.405H0V0Z" fill="#CCD591"/>
<path d="M49.0741 131.242C49.0741 125.028 47.8047 118.874 45.3385 113.133C42.8723 107.392 39.2576 102.175 34.7006 97.7808C30.1437 93.3866 24.7338 89.9009 18.7798 87.5228C12.8259 85.1447 6.4445 83.9207 0 83.9207V131.242H49.0741Z" fill="#436129"/>
<path d="M219 130C219 112.928 215.508 96.0235 208.724 80.2512C201.939 64.4788 191.995 50.1477 179.459 38.0761C166.924 26.0045 152.041 16.4288 135.662 9.89566C119.283 3.36255 101.728 -7.46234e-07 84 0V130H219Z" fill="#92A760"/>
<path d="M49.9998 130.847C49.9998 124.564 51.2832 118.342 53.7768 112.537C56.2704 106.732 59.9254 101.457 64.533 97.0141C69.1406 92.5711 74.6105 89.0467 80.6306 86.6422C86.6507 84.2376 93.103 83 99.6191 83L99.6191 130.847H49.9998Z" fill="#F2C41E"/>
<path d="M150 130.847C150 124.564 151.283 118.342 153.777 112.537C156.27 106.732 159.925 101.457 164.533 97.0141C169.141 92.5711 174.611 89.0467 180.631 86.6422C186.651 84.2376 193.103 83 199.619 83L199.619 130.847H150Z" fill="#CCD591"/>
<path d="M149.619 130.847C149.619 124.564 148.336 118.342 145.842 112.537C143.349 106.732 139.694 101.457 135.086 97.0141C130.479 92.5711 125.009 89.0467 118.989 86.6422C112.968 84.2376 106.516 83 100 83L100 130.847H149.619Z" fill="#436129"/>
<path d="M249.619 130.847C249.619 124.564 248.336 118.342 245.842 112.537C243.349 106.732 239.694 101.457 235.086 97.0141C230.479 92.5711 225.009 89.0467 218.989 86.6422C212.968 84.2376 206.516 83 200 83L200 130.847H249.619Z" fill="#436129"/>
<path d="M27.4119 53V49.4887H18.9057V45.8291L24.8897 35.6909H30.577V46.6698H33.4453V49.4887H30.577V53H27.4119ZM21.9224 46.6698H27.4119V37.7185H26.9668L21.9224 46.2742V46.6698ZM41.9946 53.3462C39.9505 53.3462 38.3102 52.7857 37.0739 51.6647C35.8375 50.5273 35.2193 48.8128 35.2193 46.5215V42.1695C35.2193 39.944 35.8375 38.2543 37.0739 37.1004C38.3102 35.9299 39.9505 35.3447 41.9946 35.3447C44.0552 35.3447 45.6954 35.9299 46.9153 37.1004C48.1517 38.2543 48.7699 39.944 48.7699 42.1695V46.5215C48.7699 48.8128 48.1517 50.5273 46.9153 51.6647C45.6954 52.7857 44.0552 53.3462 41.9946 53.3462ZM41.9946 50.5273C43.231 50.5273 44.1376 50.1893 44.7146 49.5135C45.308 48.8376 45.6048 47.8732 45.6048 46.6204V42.0211C45.6048 40.7518 45.2751 39.7956 44.6157 39.1527C43.9728 38.4933 43.0991 38.1636 41.9946 38.1636C40.8571 38.1636 39.967 38.5016 39.324 39.1775C38.6976 39.8533 38.3844 40.8012 38.3844 42.0211V46.6204C38.3844 47.9227 38.6811 48.9035 39.2746 49.5629C39.8845 50.2058 40.7912 50.5273 41.9946 50.5273ZM59.1661 53V49.4887H50.66V45.8291L56.644 35.6909H62.3312V46.6698H65.1996V49.4887H62.3312V53H59.1661ZM53.6767 46.6698H59.1661V37.7185H58.721L53.6767 46.2742V46.6698Z" fill="white"/>
<path d="M181 80.9722C181 70.3388 183.172 59.8095 187.392 49.9855C191.612 40.1615 197.797 31.2352 205.595 23.7162C213.392 16.1972 222.649 10.2329 232.837 6.16364C243.025 2.09441 253.944 -4.64802e-07 264.971 0L264.971 80.9722H181Z" fill="#F2C41E"/>
</svg>
