<svg width="305" height="128" viewBox="0 0 305 128" fill="none" xmlns="http://www.w3.org/2000/svg">
<rect x="1" y="1" width="303" height="126" rx="14" fill="white" stroke="black" stroke-width="2"/>
<path d="M21.3828 60.4688L23.5977 64.752L25.8184 60.4688H27.1016L24.1602 65.8125V69H23.0293V65.8125L20.0879 60.4688H21.3828ZM31.6777 67.5352V62.6602H32.7676V69H31.7305L31.6777 67.5352ZM31.8828 66.1992L32.334 66.1875C32.334 66.6094 32.2891 67 32.1992 67.3594C32.1133 67.7148 31.9727 68.0234 31.7773 68.2852C31.582 68.5469 31.3262 68.752 31.0098 68.9004C30.6934 69.0449 30.3086 69.1172 29.8555 69.1172C29.5469 69.1172 29.2637 69.0723 29.0059 68.9824C28.752 68.8926 28.5332 68.7539 28.3496 68.5664C28.166 68.3789 28.0234 68.1348 27.9219 67.834C27.8242 67.5332 27.7754 67.1719 27.7754 66.75V62.6602H28.8594V66.7617C28.8594 67.0469 28.8906 67.2832 28.9531 67.4707C29.0195 67.6543 29.1074 67.8008 29.2168 67.9102C29.3301 68.0156 29.4551 68.0898 29.5918 68.1328C29.7324 68.1758 29.877 68.1973 30.0254 68.1973C30.4863 68.1973 30.8516 68.1094 31.1211 67.9336C31.3906 67.7539 31.584 67.5137 31.7012 67.2129C31.8223 66.9082 31.8828 66.5703 31.8828 66.1992ZM35.5098 60V69H34.4199V60H35.5098ZM39.3828 62.6602L36.6172 65.6191L35.0703 67.2246L34.9824 66.0703L36.0898 64.7461L38.0586 62.6602H39.3828ZM38.3926 69L36.1309 65.9766L36.6934 65.0098L39.6699 69H38.3926ZM41.4863 67.7109V68.584C41.4863 68.9395 41.3965 69.3145 41.2168 69.709C41.0371 70.1074 40.7852 70.4395 40.4609 70.7051L39.8457 70.2773C39.9707 70.1055 40.0762 69.9297 40.1621 69.75C40.248 69.5742 40.3125 69.3906 40.3555 69.1992C40.4023 69.0117 40.4258 68.8125 40.4258 68.6016V67.7109H41.4863ZM47.0234 62.6602V69H45.9336V62.6602H47.0234ZM45.8516 60.9785C45.8516 60.8027 45.9043 60.6543 46.0098 60.5332C46.1191 60.4121 46.2793 60.3516 46.4902 60.3516C46.6973 60.3516 46.8555 60.4121 46.9648 60.5332C47.0781 60.6543 47.1348 60.8027 47.1348 60.9785C47.1348 61.1465 47.0781 61.291 46.9648 61.4121C46.8555 61.5293 46.6973 61.5879 46.4902 61.5879C46.2793 61.5879 46.1191 61.5293 46.0098 61.4121C45.9043 61.291 45.8516 61.1465 45.8516 60.9785ZM49.8535 60V69H48.7637V60H49.8535ZM53.7266 62.6602L50.9609 65.6191L49.4141 67.2246L49.3262 66.0703L50.4336 64.7461L52.4023 62.6602H53.7266ZM52.7363 69L50.4746 65.9766L51.0371 65.0098L54.0137 69H52.7363ZM58.7246 67.5352V62.6602H59.8145V69H58.7773L58.7246 67.5352ZM58.9297 66.1992L59.3809 66.1875C59.3809 66.6094 59.3359 67 59.2461 67.3594C59.1602 67.7148 59.0195 68.0234 58.8242 68.2852C58.6289 68.5469 58.373 68.752 58.0566 68.9004C57.7402 69.0449 57.3555 69.1172 56.9023 69.1172C56.5938 69.1172 56.3105 69.0723 56.0527 68.9824C55.7988 68.8926 55.5801 68.7539 55.3965 68.5664C55.2129 68.3789 55.0703 68.1348 54.9688 67.834C54.8711 67.5332 54.8223 67.1719 54.8223 66.75V62.6602H55.9062V66.7617C55.9062 67.0469 55.9375 67.2832 56 67.4707C56.0664 67.6543 56.1543 67.8008 56.2637 67.9102C56.377 68.0156 56.502 68.0898 56.6387 68.1328C56.7793 68.1758 56.9238 68.1973 57.0723 68.1973C57.5332 68.1973 57.8984 68.1094 58.168 67.9336C58.4375 67.7539 58.6309 67.5137 58.748 67.2129C58.8691 66.9082 58.9297 66.5703 58.9297 66.1992ZM64.1211 62.6602V63.4922H60.6934V62.6602H64.1211ZM61.8535 61.1191H62.9375V67.4297C62.9375 67.6445 62.9707 67.8066 63.0371 67.916C63.1035 68.0254 63.1895 68.0977 63.2949 68.1328C63.4004 68.168 63.5137 68.1855 63.6348 68.1855C63.7246 68.1855 63.8184 68.1777 63.916 68.1621C64.0176 68.1426 64.0938 68.127 64.1445 68.1152L64.1504 69C64.0645 69.0273 63.9512 69.0527 63.8105 69.0762C63.6738 69.1035 63.5078 69.1172 63.3125 69.1172C63.0469 69.1172 62.8027 69.0645 62.5801 68.959C62.3574 68.8535 62.1797 68.6777 62.0469 68.4316C61.918 68.1816 61.8535 67.8457 61.8535 67.4238V61.1191ZM66.5703 62.6602V69H65.4805V62.6602H66.5703ZM65.3984 60.9785C65.3984 60.8027 65.4512 60.6543 65.5566 60.5332C65.666 60.4121 65.8262 60.3516 66.0371 60.3516C66.2441 60.3516 66.4023 60.4121 66.5117 60.5332C66.625 60.6543 66.6816 60.8027 66.6816 60.9785C66.6816 61.1465 66.625 61.291 66.5117 61.4121C66.4023 61.5293 66.2441 61.5879 66.0371 61.5879C65.8262 61.5879 65.666 61.5293 65.5566 61.4121C65.4512 61.291 65.3984 61.1465 65.3984 60.9785ZM72.3711 63.6562V69H71.2871V62.6602H72.3418L72.3711 63.6562ZM74.3516 62.625L74.3457 63.6328C74.2559 63.6133 74.1699 63.6016 74.0879 63.5977C74.0098 63.5898 73.9199 63.5859 73.8184 63.5859C73.5684 63.5859 73.3477 63.625 73.1562 63.7031C72.9648 63.7812 72.8027 63.8906 72.6699 64.0312C72.5371 64.1719 72.4316 64.3398 72.3535 64.5352C72.2793 64.7266 72.2305 64.9375 72.207 65.168L71.9023 65.3438C71.9023 64.9609 71.9395 64.6016 72.0137 64.2656C72.0918 63.9297 72.2109 63.6328 72.3711 63.375C72.5312 63.1133 72.7344 62.9102 72.9805 62.7656C73.2305 62.6172 73.5273 62.543 73.8711 62.543C73.9492 62.543 74.0391 62.5527 74.1406 62.5723C74.2422 62.5879 74.3125 62.6055 74.3516 62.625ZM78.8574 67.916V64.6523C78.8574 64.4023 78.8066 64.1855 78.7051 64.002C78.6074 63.8145 78.459 63.6699 78.2598 63.5684C78.0605 63.4668 77.8145 63.416 77.5215 63.416C77.248 63.416 77.0078 63.4629 76.8008 63.5566C76.5977 63.6504 76.4375 63.7734 76.3203 63.9258C76.207 64.0781 76.1504 64.2422 76.1504 64.418H75.0664C75.0664 64.1914 75.125 63.9668 75.2422 63.7441C75.3594 63.5215 75.5273 63.3203 75.7461 63.1406C75.9688 62.957 76.2344 62.8125 76.543 62.707C76.8555 62.5977 77.2031 62.543 77.5859 62.543C78.0469 62.543 78.4531 62.6211 78.8047 62.7773C79.1602 62.9336 79.4375 63.1699 79.6367 63.4863C79.8398 63.7988 79.9414 64.1914 79.9414 64.6641V67.6172C79.9414 67.8281 79.959 68.0527 79.9941 68.291C80.0332 68.5293 80.0898 68.7344 80.1641 68.9062V69H79.0332C78.9785 68.875 78.9355 68.709 78.9043 68.502C78.873 68.291 78.8574 68.0957 78.8574 67.916ZM79.0449 65.1562L79.0566 65.918H77.9609C77.6523 65.918 77.377 65.9434 77.1348 65.9941C76.8926 66.041 76.6895 66.1133 76.5254 66.2109C76.3613 66.3086 76.2363 66.4316 76.1504 66.5801C76.0645 66.7246 76.0215 66.8945 76.0215 67.0898C76.0215 67.2891 76.0664 67.4707 76.1562 67.6348C76.2461 67.7988 76.3809 67.9297 76.5605 68.0273C76.7441 68.1211 76.9688 68.168 77.2344 68.168C77.5664 68.168 77.8594 68.0977 78.1133 67.957C78.3672 67.8164 78.5684 67.6445 78.7168 67.4414C78.8691 67.2383 78.9512 67.041 78.9629 66.8496L79.4258 67.3711C79.3984 67.5352 79.3242 67.7168 79.2031 67.916C79.082 68.1152 78.9199 68.3066 78.7168 68.4902C78.5176 68.6699 78.2793 68.8203 78.002 68.9414C77.7285 69.0586 77.4199 69.1172 77.0762 69.1172C76.6465 69.1172 76.2695 69.0332 75.9453 68.8652C75.625 68.6973 75.375 68.4727 75.1953 68.1914C75.0195 67.9062 74.9316 67.5879 74.9316 67.2363C74.9316 66.8965 74.998 66.5977 75.1309 66.3398C75.2637 66.0781 75.4551 65.8613 75.7051 65.6895C75.9551 65.5137 76.2559 65.3809 76.6074 65.291C76.959 65.2012 77.3516 65.1562 77.7852 65.1562H79.0449ZM82.7305 64.0137V69H81.6465V62.6602H82.6719L82.7305 64.0137ZM82.4727 65.5898L82.0215 65.5723C82.0254 65.1387 82.0898 64.7383 82.2148 64.3711C82.3398 64 82.5156 63.6777 82.7422 63.4043C82.9688 63.1309 83.2383 62.9199 83.5508 62.7715C83.8672 62.6191 84.2168 62.543 84.5996 62.543C84.9121 62.543 85.1934 62.5859 85.4434 62.6719C85.6934 62.7539 85.9062 62.8867 86.082 63.0703C86.2617 63.2539 86.3984 63.4922 86.4922 63.7852C86.5859 64.0742 86.6328 64.4277 86.6328 64.8457V69H85.543V64.834C85.543 64.502 85.4941 64.2363 85.3965 64.0371C85.2988 63.834 85.1562 63.6875 84.9688 63.5977C84.7812 63.5039 84.5508 63.457 84.2773 63.457C84.0078 63.457 83.7617 63.5137 83.5391 63.627C83.3203 63.7402 83.1309 63.8965 82.9707 64.0957C82.8145 64.2949 82.6914 64.5234 82.6016 64.7812C82.5156 65.0352 82.4727 65.3047 82.4727 65.5898ZM92.3867 62.6602H93.3711V68.8652C93.3711 69.4238 93.2578 69.9004 93.0312 70.2949C92.8047 70.6895 92.4883 70.9883 92.082 71.1914C91.6797 71.3984 91.2148 71.502 90.6875 71.502C90.4688 71.502 90.2109 71.4668 89.9141 71.3965C89.6211 71.3301 89.332 71.2148 89.0469 71.0508C88.7656 70.8906 88.5293 70.6738 88.3379 70.4004L88.9062 69.7559C89.1719 70.0762 89.4492 70.2988 89.7383 70.4238C90.0312 70.5488 90.3203 70.6113 90.6055 70.6113C90.9492 70.6113 91.2461 70.5469 91.4961 70.418C91.7461 70.2891 91.9395 70.0977 92.0762 69.8438C92.2168 69.5938 92.2871 69.2852 92.2871 68.918V64.0547L92.3867 62.6602ZM88.0215 65.9004V65.7773C88.0215 65.293 88.0781 64.8535 88.1914 64.459C88.3086 64.0605 88.4746 63.7188 88.6895 63.4336C88.9082 63.1484 89.1719 62.9297 89.4805 62.7773C89.7891 62.6211 90.1367 62.543 90.5234 62.543C90.9219 62.543 91.2695 62.6133 91.5664 62.7539C91.8672 62.8906 92.1211 63.0918 92.3281 63.3574C92.5391 63.6191 92.7051 63.9355 92.8262 64.3066C92.9473 64.6777 93.0312 65.0977 93.0781 65.5664V66.1055C93.0352 66.5703 92.9512 66.9883 92.8262 67.3594C92.7051 67.7305 92.5391 68.0469 92.3281 68.3086C92.1211 68.5703 91.8672 68.7715 91.5664 68.9121C91.2656 69.0488 90.9141 69.1172 90.5117 69.1172C90.1328 69.1172 89.7891 69.0371 89.4805 68.877C89.1758 68.7168 88.9141 68.4922 88.6953 68.2031C88.4766 67.9141 88.3086 67.5742 88.1914 67.1836C88.0781 66.7891 88.0215 66.3613 88.0215 65.9004ZM89.1055 65.7773V65.9004C89.1055 66.2168 89.1367 66.5137 89.1992 66.791C89.2656 67.0684 89.3652 67.3125 89.498 67.5234C89.6348 67.7344 89.8086 67.9004 90.0195 68.0215C90.2305 68.1387 90.4824 68.1973 90.7754 68.1973C91.1348 68.1973 91.4316 68.1211 91.666 67.9688C91.9004 67.8164 92.0859 67.6152 92.2227 67.3652C92.3633 67.1152 92.4727 66.8438 92.5508 66.5508V65.1387C92.5078 64.9238 92.4414 64.7168 92.3516 64.5176C92.2656 64.3145 92.1523 64.1348 92.0117 63.9785C91.875 63.8184 91.7051 63.6914 91.502 63.5977C91.2988 63.5039 91.0605 63.457 90.7871 63.457C90.4902 63.457 90.2344 63.5195 90.0195 63.6445C89.8086 63.7656 89.6348 63.9336 89.498 64.1484C89.3652 64.3594 89.2656 64.6055 89.1992 64.8867C89.1367 65.1641 89.1055 65.4609 89.1055 65.7773ZM96.1074 60V69H95.0176V60H96.1074ZM99.9805 62.6602L97.2148 65.6191L95.668 67.2246L95.5801 66.0703L96.6875 64.7461L98.6562 62.6602H99.9805ZM98.9902 69L96.7285 65.9766L97.291 65.0098L100.268 69H98.9902ZM104.838 67.916V64.6523C104.838 64.4023 104.787 64.1855 104.686 64.002C104.588 63.8145 104.439 63.6699 104.24 63.5684C104.041 63.4668 103.795 63.416 103.502 63.416C103.229 63.416 102.988 63.4629 102.781 63.5566C102.578 63.6504 102.418 63.7734 102.301 63.9258C102.188 64.0781 102.131 64.2422 102.131 64.418H101.047C101.047 64.1914 101.105 63.9668 101.223 63.7441C101.34 63.5215 101.508 63.3203 101.727 63.1406C101.949 62.957 102.215 62.8125 102.523 62.707C102.836 62.5977 103.184 62.543 103.566 62.543C104.027 62.543 104.434 62.6211 104.785 62.7773C105.141 62.9336 105.418 63.1699 105.617 63.4863C105.82 63.7988 105.922 64.1914 105.922 64.6641V67.6172C105.922 67.8281 105.939 68.0527 105.975 68.291C106.014 68.5293 106.07 68.7344 106.145 68.9062V69H105.014C104.959 68.875 104.916 68.709 104.885 68.502C104.854 68.291 104.838 68.0957 104.838 67.916ZM105.025 65.1562L105.037 65.918H103.941C103.633 65.918 103.357 65.9434 103.115 65.9941C102.873 66.041 102.67 66.1133 102.506 66.2109C102.342 66.3086 102.217 66.4316 102.131 66.5801C102.045 66.7246 102.002 66.8945 102.002 67.0898C102.002 67.2891 102.047 67.4707 102.137 67.6348C102.227 67.7988 102.361 67.9297 102.541 68.0273C102.725 68.1211 102.949 68.168 103.215 68.168C103.547 68.168 103.84 68.0977 104.094 67.957C104.348 67.8164 104.549 67.6445 104.697 67.4414C104.85 67.2383 104.932 67.041 104.943 66.8496L105.406 67.3711C105.379 67.5352 105.305 67.7168 105.184 67.916C105.062 68.1152 104.9 68.3066 104.697 68.4902C104.498 68.6699 104.26 68.8203 103.982 68.9414C103.709 69.0586 103.4 69.1172 103.057 69.1172C102.627 69.1172 102.25 69.0332 101.926 68.8652C101.605 68.6973 101.355 68.4727 101.176 68.1914C101 67.9062 100.912 67.5879 100.912 67.2363C100.912 66.8965 100.979 66.5977 101.111 66.3398C101.244 66.0781 101.436 65.8613 101.686 65.6895C101.936 65.5137 102.236 65.3809 102.588 65.291C102.939 65.2012 103.332 65.1562 103.766 65.1562H105.025ZM108.805 62.6602V69H107.715V62.6602H108.805ZM107.633 60.9785C107.633 60.8027 107.686 60.6543 107.791 60.5332C107.9 60.4121 108.061 60.3516 108.271 60.3516C108.479 60.3516 108.637 60.4121 108.746 60.5332C108.859 60.6543 108.916 60.8027 108.916 60.9785C108.916 61.1465 108.859 61.291 108.746 61.4121C108.637 61.5293 108.479 61.5879 108.271 61.5879C108.061 61.5879 107.9 61.5293 107.791 61.4121C107.686 61.291 107.633 61.1465 107.633 60.9785ZM114.283 67.916V64.6523C114.283 64.4023 114.232 64.1855 114.131 64.002C114.033 63.8145 113.885 63.6699 113.686 63.5684C113.486 63.4668 113.24 63.416 112.947 63.416C112.674 63.416 112.434 63.4629 112.227 63.5566C112.023 63.6504 111.863 63.7734 111.746 63.9258C111.633 64.0781 111.576 64.2422 111.576 64.418H110.492C110.492 64.1914 110.551 63.9668 110.668 63.7441C110.785 63.5215 110.953 63.3203 111.172 63.1406C111.395 62.957 111.66 62.8125 111.969 62.707C112.281 62.5977 112.629 62.543 113.012 62.543C113.473 62.543 113.879 62.6211 114.23 62.7773C114.586 62.9336 114.863 63.1699 115.062 63.4863C115.266 63.7988 115.367 64.1914 115.367 64.6641V67.6172C115.367 67.8281 115.385 68.0527 115.42 68.291C115.459 68.5293 115.516 68.7344 115.59 68.9062V69H114.459C114.404 68.875 114.361 68.709 114.33 68.502C114.299 68.291 114.283 68.0957 114.283 67.916ZM114.471 65.1562L114.482 65.918H113.387C113.078 65.918 112.803 65.9434 112.561 65.9941C112.318 66.041 112.115 66.1133 111.951 66.2109C111.787 66.3086 111.662 66.4316 111.576 66.5801C111.49 66.7246 111.447 66.8945 111.447 67.0898C111.447 67.2891 111.492 67.4707 111.582 67.6348C111.672 67.7988 111.807 67.9297 111.986 68.0273C112.17 68.1211 112.395 68.168 112.66 68.168C112.992 68.168 113.285 68.0977 113.539 67.957C113.793 67.8164 113.994 67.6445 114.143 67.4414C114.295 67.2383 114.377 67.041 114.389 66.8496L114.852 67.3711C114.824 67.5352 114.75 67.7168 114.629 67.916C114.508 68.1152 114.346 68.3066 114.143 68.4902C113.943 68.6699 113.705 68.8203 113.428 68.9414C113.154 69.0586 112.846 69.1172 112.502 69.1172C112.072 69.1172 111.695 69.0332 111.371 68.8652C111.051 68.6973 110.801 68.4727 110.621 68.1914C110.445 67.9062 110.357 67.5879 110.357 67.2363C110.357 66.8965 110.424 66.5977 110.557 66.3398C110.689 66.0781 110.881 65.8613 111.131 65.6895C111.381 65.5137 111.682 65.3809 112.033 65.291C112.385 65.2012 112.777 65.1562 113.211 65.1562H114.471ZM118.156 64.0137V69H117.072V62.6602H118.098L118.156 64.0137ZM117.898 65.5898L117.447 65.5723C117.451 65.1387 117.516 64.7383 117.641 64.3711C117.766 64 117.941 63.6777 118.168 63.4043C118.395 63.1309 118.664 62.9199 118.977 62.7715C119.293 62.6191 119.643 62.543 120.025 62.543C120.338 62.543 120.619 62.5859 120.869 62.6719C121.119 62.7539 121.332 62.8867 121.508 63.0703C121.688 63.2539 121.824 63.4922 121.918 63.7852C122.012 64.0742 122.059 64.4277 122.059 64.8457V69H120.969V64.834C120.969 64.502 120.92 64.2363 120.822 64.0371C120.725 63.834 120.582 63.6875 120.395 63.5977C120.207 63.5039 119.977 63.457 119.703 63.457C119.434 63.457 119.188 63.5137 118.965 63.627C118.746 63.7402 118.557 63.8965 118.396 64.0957C118.24 64.2949 118.117 64.5234 118.027 64.7812C117.941 65.0352 117.898 65.3047 117.898 65.5898ZM130.42 67.916V64.6523C130.42 64.4023 130.369 64.1855 130.268 64.002C130.17 63.8145 130.021 63.6699 129.822 63.5684C129.623 63.4668 129.377 63.416 129.084 63.416C128.811 63.416 128.57 63.4629 128.363 63.5566C128.16 63.6504 128 63.7734 127.883 63.9258C127.77 64.0781 127.713 64.2422 127.713 64.418H126.629C126.629 64.1914 126.688 63.9668 126.805 63.7441C126.922 63.5215 127.09 63.3203 127.309 63.1406C127.531 62.957 127.797 62.8125 128.105 62.707C128.418 62.5977 128.766 62.543 129.148 62.543C129.609 62.543 130.016 62.6211 130.367 62.7773C130.723 62.9336 131 63.1699 131.199 63.4863C131.402 63.7988 131.504 64.1914 131.504 64.6641V67.6172C131.504 67.8281 131.521 68.0527 131.557 68.291C131.596 68.5293 131.652 68.7344 131.727 68.9062V69H130.596C130.541 68.875 130.498 68.709 130.467 68.502C130.436 68.291 130.42 68.0957 130.42 67.916ZM130.607 65.1562L130.619 65.918H129.523C129.215 65.918 128.939 65.9434 128.697 65.9941C128.455 66.041 128.252 66.1133 128.088 66.2109C127.924 66.3086 127.799 66.4316 127.713 66.5801C127.627 66.7246 127.584 66.8945 127.584 67.0898C127.584 67.2891 127.629 67.4707 127.719 67.6348C127.809 67.7988 127.943 67.9297 128.123 68.0273C128.307 68.1211 128.531 68.168 128.797 68.168C129.129 68.168 129.422 68.0977 129.676 67.957C129.93 67.8164 130.131 67.6445 130.279 67.4414C130.432 67.2383 130.514 67.041 130.525 66.8496L130.988 67.3711C130.961 67.5352 130.887 67.7168 130.766 67.916C130.645 68.1152 130.482 68.3066 130.279 68.4902C130.08 68.6699 129.842 68.8203 129.564 68.9414C129.291 69.0586 128.982 69.1172 128.639 69.1172C128.209 69.1172 127.832 69.0332 127.508 68.8652C127.188 68.6973 126.938 68.4727 126.758 68.1914C126.582 67.9062 126.494 67.5879 126.494 67.2363C126.494 66.8965 126.561 66.5977 126.693 66.3398C126.826 66.0781 127.018 65.8613 127.268 65.6895C127.518 65.5137 127.818 65.3809 128.17 65.291C128.521 65.2012 128.914 65.1562 129.348 65.1562H130.607ZM135.746 68.2266C136.004 68.2266 136.242 68.1738 136.461 68.0684C136.68 67.9629 136.859 67.8184 137 67.6348C137.141 67.4473 137.221 67.2344 137.24 66.9961H138.271C138.252 67.3711 138.125 67.7207 137.891 68.0449C137.66 68.3652 137.357 68.625 136.982 68.8242C136.607 69.0195 136.195 69.1172 135.746 69.1172C135.27 69.1172 134.854 69.0332 134.498 68.8652C134.146 68.6973 133.854 68.4668 133.619 68.1738C133.389 67.8809 133.215 67.5449 133.098 67.166C132.984 66.7832 132.928 66.3789 132.928 65.9531V65.707C132.928 65.2812 132.984 64.8789 133.098 64.5C133.215 64.1172 133.389 63.7793 133.619 63.4863C133.854 63.1934 134.146 62.9629 134.498 62.7949C134.854 62.627 135.27 62.543 135.746 62.543C136.242 62.543 136.676 62.6445 137.047 62.8477C137.418 63.0469 137.709 63.3203 137.92 63.668C138.135 64.0117 138.252 64.4023 138.271 64.8398H137.24C137.221 64.5781 137.146 64.3418 137.018 64.1309C136.893 63.9199 136.721 63.752 136.502 63.627C136.287 63.498 136.035 63.4336 135.746 63.4336C135.414 63.4336 135.135 63.5 134.908 63.6328C134.686 63.7617 134.508 63.9375 134.375 64.1602C134.246 64.3789 134.152 64.623 134.094 64.8926C134.039 65.1582 134.012 65.4297 134.012 65.707V65.9531C134.012 66.2305 134.039 66.5039 134.094 66.7734C134.148 67.043 134.24 67.2871 134.369 67.5059C134.502 67.7246 134.68 67.9004 134.902 68.0332C135.129 68.1621 135.41 68.2266 135.746 68.2266ZM143.229 67.916V64.6523C143.229 64.4023 143.178 64.1855 143.076 64.002C142.979 63.8145 142.83 63.6699 142.631 63.5684C142.432 63.4668 142.186 63.416 141.893 63.416C141.619 63.416 141.379 63.4629 141.172 63.5566C140.969 63.6504 140.809 63.7734 140.691 63.9258C140.578 64.0781 140.521 64.2422 140.521 64.418H139.438C139.438 64.1914 139.496 63.9668 139.613 63.7441C139.73 63.5215 139.898 63.3203 140.117 63.1406C140.34 62.957 140.605 62.8125 140.914 62.707C141.227 62.5977 141.574 62.543 141.957 62.543C142.418 62.543 142.824 62.6211 143.176 62.7773C143.531 62.9336 143.809 63.1699 144.008 63.4863C144.211 63.7988 144.312 64.1914 144.312 64.6641V67.6172C144.312 67.8281 144.33 68.0527 144.365 68.291C144.404 68.5293 144.461 68.7344 144.535 68.9062V69H143.404C143.35 68.875 143.307 68.709 143.275 68.502C143.244 68.291 143.229 68.0957 143.229 67.916ZM143.416 65.1562L143.428 65.918H142.332C142.023 65.918 141.748 65.9434 141.506 65.9941C141.264 66.041 141.061 66.1133 140.896 66.2109C140.732 66.3086 140.607 66.4316 140.521 66.5801C140.436 66.7246 140.393 66.8945 140.393 67.0898C140.393 67.2891 140.438 67.4707 140.527 67.6348C140.617 67.7988 140.752 67.9297 140.932 68.0273C141.115 68.1211 141.34 68.168 141.605 68.168C141.938 68.168 142.23 68.0977 142.484 67.957C142.738 67.8164 142.939 67.6445 143.088 67.4414C143.24 67.2383 143.322 67.041 143.334 66.8496L143.797 67.3711C143.77 67.5352 143.695 67.7168 143.574 67.916C143.453 68.1152 143.291 68.3066 143.088 68.4902C142.889 68.6699 142.65 68.8203 142.373 68.9414C142.1 69.0586 141.791 69.1172 141.447 69.1172C141.018 69.1172 140.641 69.0332 140.316 68.8652C139.996 68.6973 139.746 68.4727 139.566 68.1914C139.391 67.9062 139.303 67.5879 139.303 67.2363C139.303 66.8965 139.369 66.5977 139.502 66.3398C139.635 66.0781 139.826 65.8613 140.076 65.6895C140.326 65.5137 140.627 65.3809 140.979 65.291C141.33 65.2012 141.723 65.1562 142.156 65.1562H143.416ZM147.102 63.6562V69H146.018V62.6602H147.072L147.102 63.6562ZM149.082 62.625L149.076 63.6328C148.986 63.6133 148.9 63.6016 148.818 63.5977C148.74 63.5898 148.65 63.5859 148.549 63.5859C148.299 63.5859 148.078 63.625 147.887 63.7031C147.695 63.7812 147.533 63.8906 147.4 64.0312C147.268 64.1719 147.162 64.3398 147.084 64.5352C147.01 64.7266 146.961 64.9375 146.938 65.168L146.633 65.3438C146.633 64.9609 146.67 64.6016 146.744 64.2656C146.822 63.9297 146.941 63.6328 147.102 63.375C147.262 63.1133 147.465 62.9102 147.711 62.7656C147.961 62.6172 148.258 62.543 148.602 62.543C148.68 62.543 148.77 62.5527 148.871 62.5723C148.973 62.5879 149.043 62.6055 149.082 62.625ZM153.588 67.916V64.6523C153.588 64.4023 153.537 64.1855 153.436 64.002C153.338 63.8145 153.189 63.6699 152.99 63.5684C152.791 63.4668 152.545 63.416 152.252 63.416C151.979 63.416 151.738 63.4629 151.531 63.5566C151.328 63.6504 151.168 63.7734 151.051 63.9258C150.938 64.0781 150.881 64.2422 150.881 64.418H149.797C149.797 64.1914 149.855 63.9668 149.973 63.7441C150.09 63.5215 150.258 63.3203 150.477 63.1406C150.699 62.957 150.965 62.8125 151.273 62.707C151.586 62.5977 151.934 62.543 152.316 62.543C152.777 62.543 153.184 62.6211 153.535 62.7773C153.891 62.9336 154.168 63.1699 154.367 63.4863C154.57 63.7988 154.672 64.1914 154.672 64.6641V67.6172C154.672 67.8281 154.689 68.0527 154.725 68.291C154.764 68.5293 154.82 68.7344 154.895 68.9062V69H153.764C153.709 68.875 153.666 68.709 153.635 68.502C153.604 68.291 153.588 68.0957 153.588 67.916ZM153.775 65.1562L153.787 65.918H152.691C152.383 65.918 152.107 65.9434 151.865 65.9941C151.623 66.041 151.42 66.1133 151.256 66.2109C151.092 66.3086 150.967 66.4316 150.881 66.5801C150.795 66.7246 150.752 66.8945 150.752 67.0898C150.752 67.2891 150.797 67.4707 150.887 67.6348C150.977 67.7988 151.111 67.9297 151.291 68.0273C151.475 68.1211 151.699 68.168 151.965 68.168C152.297 68.168 152.59 68.0977 152.844 67.957C153.098 67.8164 153.299 67.6445 153.447 67.4414C153.6 67.2383 153.682 67.041 153.693 66.8496L154.156 67.3711C154.129 67.5352 154.055 67.7168 153.934 67.916C153.812 68.1152 153.65 68.3066 153.447 68.4902C153.248 68.6699 153.01 68.8203 152.732 68.9414C152.459 69.0586 152.15 69.1172 151.807 69.1172C151.377 69.1172 151 69.0332 150.676 68.8652C150.355 68.6973 150.105 68.4727 149.926 68.1914C149.75 67.9062 149.662 67.5879 149.662 67.2363C149.662 66.8965 149.729 66.5977 149.861 66.3398C149.994 66.0781 150.186 65.8613 150.436 65.6895C150.686 65.5137 150.986 65.3809 151.338 65.291C151.689 65.2012 152.082 65.1562 152.516 65.1562H153.775ZM163.232 67.5352V62.6602H164.322V69H163.285L163.232 67.5352ZM163.438 66.1992L163.889 66.1875C163.889 66.6094 163.844 67 163.754 67.3594C163.668 67.7148 163.527 68.0234 163.332 68.2852C163.137 68.5469 162.881 68.752 162.564 68.9004C162.248 69.0449 161.863 69.1172 161.41 69.1172C161.102 69.1172 160.818 69.0723 160.561 68.9824C160.307 68.8926 160.088 68.7539 159.904 68.5664C159.721 68.3789 159.578 68.1348 159.477 67.834C159.379 67.5332 159.33 67.1719 159.33 66.75V62.6602H160.414V66.7617C160.414 67.0469 160.445 67.2832 160.508 67.4707C160.574 67.6543 160.662 67.8008 160.771 67.9102C160.885 68.0156 161.01 68.0898 161.146 68.1328C161.287 68.1758 161.432 68.1973 161.58 68.1973C162.041 68.1973 162.406 68.1094 162.676 67.9336C162.945 67.7539 163.139 67.5137 163.256 67.2129C163.377 66.9082 163.438 66.5703 163.438 66.1992ZM167.059 64.0137V69H165.975V62.6602H167L167.059 64.0137ZM166.801 65.5898L166.35 65.5723C166.354 65.1387 166.418 64.7383 166.543 64.3711C166.668 64 166.844 63.6777 167.07 63.4043C167.297 63.1309 167.566 62.9199 167.879 62.7715C168.195 62.6191 168.545 62.543 168.928 62.543C169.24 62.543 169.521 62.5859 169.771 62.6719C170.021 62.7539 170.234 62.8867 170.41 63.0703C170.59 63.2539 170.727 63.4922 170.82 63.7852C170.914 64.0742 170.961 64.4277 170.961 64.8457V69H169.871V64.834C169.871 64.502 169.822 64.2363 169.725 64.0371C169.627 63.834 169.484 63.6875 169.297 63.5977C169.109 63.5039 168.879 63.457 168.605 63.457C168.336 63.457 168.09 63.5137 167.867 63.627C167.648 63.7402 167.459 63.8965 167.299 64.0957C167.143 64.2949 167.02 64.5234 166.93 64.7812C166.844 65.0352 166.801 65.3047 166.801 65.5898ZM175.262 62.6602V63.4922H171.834V62.6602H175.262ZM172.994 61.1191H174.078V67.4297C174.078 67.6445 174.111 67.8066 174.178 67.916C174.244 68.0254 174.33 68.0977 174.436 68.1328C174.541 68.168 174.654 68.1855 174.775 68.1855C174.865 68.1855 174.959 68.1777 175.057 68.1621C175.158 68.1426 175.234 68.127 175.285 68.1152L175.291 69C175.205 69.0273 175.092 69.0527 174.951 69.0762C174.814 69.1035 174.648 69.1172 174.453 69.1172C174.188 69.1172 173.943 69.0645 173.721 68.959C173.498 68.8535 173.32 68.6777 173.188 68.4316C173.059 68.1816 172.994 67.8457 172.994 67.4238V61.1191ZM180.412 67.5352V62.6602H181.502V69H180.465L180.412 67.5352ZM180.617 66.1992L181.068 66.1875C181.068 66.6094 181.023 67 180.934 67.3594C180.848 67.7148 180.707 68.0234 180.512 68.2852C180.316 68.5469 180.061 68.752 179.744 68.9004C179.428 69.0449 179.043 69.1172 178.59 69.1172C178.281 69.1172 177.998 69.0723 177.74 68.9824C177.486 68.8926 177.268 68.7539 177.084 68.5664C176.9 68.3789 176.758 68.1348 176.656 67.834C176.559 67.5332 176.51 67.1719 176.51 66.75V62.6602H177.594V66.7617C177.594 67.0469 177.625 67.2832 177.688 67.4707C177.754 67.6543 177.842 67.8008 177.951 67.9102C178.064 68.0156 178.189 68.0898 178.326 68.1328C178.467 68.1758 178.611 68.1973 178.76 68.1973C179.221 68.1973 179.586 68.1094 179.855 67.9336C180.125 67.7539 180.318 67.5137 180.436 67.2129C180.557 66.9082 180.617 66.5703 180.617 66.1992ZM184.244 60V69H183.154V60H184.244ZM188.117 62.6602L185.352 65.6191L183.805 67.2246L183.717 66.0703L184.824 64.7461L186.793 62.6602H188.117ZM187.127 69L184.865 65.9766L185.428 65.0098L188.404 69H187.127ZM21.916 74V83H20.8262V74H21.916ZM25.7891 76.6602L23.0234 79.6191L21.4766 81.2246L21.3887 80.0703L22.4961 78.7461L24.4648 76.6602H25.7891ZM24.7988 83L22.5371 79.9766L23.0996 79.0098L26.0762 83H24.7988ZM29.4219 83.1172C28.9805 83.1172 28.5801 83.043 28.2207 82.8945C27.8652 82.7422 27.5586 82.5293 27.3008 82.2559C27.0469 81.9824 26.8516 81.6582 26.7148 81.2832C26.5781 80.9082 26.5098 80.498 26.5098 80.0527V79.8066C26.5098 79.291 26.5859 78.832 26.7383 78.4297C26.8906 78.0234 27.0977 77.6797 27.3594 77.3984C27.6211 77.1172 27.918 76.9043 28.25 76.7598C28.582 76.6152 28.9258 76.543 29.2812 76.543C29.7344 76.543 30.125 76.6211 30.4531 76.7773C30.7852 76.9336 31.0566 77.1523 31.2676 77.4336C31.4785 77.7109 31.6348 78.0391 31.7363 78.418C31.8379 78.793 31.8887 79.2031 31.8887 79.6484V80.1348H27.1543V79.25H30.8047V79.168C30.7891 78.8867 30.7305 78.6133 30.6289 78.3477C30.5312 78.082 30.375 77.8633 30.1602 77.6914C29.9453 77.5195 29.6523 77.4336 29.2812 77.4336C29.0352 77.4336 28.8086 77.4863 28.6016 77.5918C28.3945 77.6934 28.2168 77.8457 28.0684 78.0488C27.9199 78.252 27.8047 78.5 27.7227 78.793C27.6406 79.0859 27.5996 79.4238 27.5996 79.8066V80.0527C27.5996 80.3535 27.6406 80.6367 27.7227 80.9023C27.8086 81.1641 27.9316 81.3945 28.0918 81.5938C28.2559 81.793 28.4531 81.9492 28.6836 82.0625C28.918 82.1758 29.1836 82.2324 29.4805 82.2324C29.8633 82.2324 30.1875 82.1543 30.4531 81.998C30.7188 81.8418 30.9512 81.6328 31.1504 81.3711L31.8066 81.8926C31.6699 82.0996 31.4961 82.2969 31.2852 82.4844C31.0742 82.6719 30.8145 82.8242 30.5059 82.9414C30.2012 83.0586 29.8398 83.1172 29.4219 83.1172ZM37.2617 76.6602H38.2461V82.8652C38.2461 83.4238 38.1328 83.9004 37.9062 84.2949C37.6797 84.6895 37.3633 84.9883 36.957 85.1914C36.5547 85.3984 36.0898 85.502 35.5625 85.502C35.3438 85.502 35.0859 85.4668 34.7891 85.3965C34.4961 85.3301 34.207 85.2148 33.9219 85.0508C33.6406 84.8906 33.4043 84.6738 33.2129 84.4004L33.7812 83.7559C34.0469 84.0762 34.3242 84.2988 34.6133 84.4238C34.9062 84.5488 35.1953 84.6113 35.4805 84.6113C35.8242 84.6113 36.1211 84.5469 36.3711 84.418C36.6211 84.2891 36.8145 84.0977 36.9512 83.8438C37.0918 83.5938 37.1621 83.2852 37.1621 82.918V78.0547L37.2617 76.6602ZM32.8965 79.9004V79.7773C32.8965 79.293 32.9531 78.8535 33.0664 78.459C33.1836 78.0605 33.3496 77.7188 33.5645 77.4336C33.7832 77.1484 34.0469 76.9297 34.3555 76.7773C34.6641 76.6211 35.0117 76.543 35.3984 76.543C35.7969 76.543 36.1445 76.6133 36.4414 76.7539C36.7422 76.8906 36.9961 77.0918 37.2031 77.3574C37.4141 77.6191 37.5801 77.9355 37.7012 78.3066C37.8223 78.6777 37.9062 79.0977 37.9531 79.5664V80.1055C37.9102 80.5703 37.8262 80.9883 37.7012 81.3594C37.5801 81.7305 37.4141 82.0469 37.2031 82.3086C36.9961 82.5703 36.7422 82.7715 36.4414 82.9121C36.1406 83.0488 35.7891 83.1172 35.3867 83.1172C35.0078 83.1172 34.6641 83.0371 34.3555 82.877C34.0508 82.7168 33.7891 82.4922 33.5703 82.2031C33.3516 81.9141 33.1836 81.5742 33.0664 81.1836C32.9531 80.7891 32.8965 80.3613 32.8965 79.9004ZM33.9805 79.7773V79.9004C33.9805 80.2168 34.0117 80.5137 34.0742 80.791C34.1406 81.0684 34.2402 81.3125 34.373 81.5234C34.5098 81.7344 34.6836 81.9004 34.8945 82.0215C35.1055 82.1387 35.3574 82.1973 35.6504 82.1973C36.0098 82.1973 36.3066 82.1211 36.541 81.9688C36.7754 81.8164 36.9609 81.6152 37.0977 81.3652C37.2383 81.1152 37.3477 80.8438 37.4258 80.5508V79.1387C37.3828 78.9238 37.3164 78.7168 37.2266 78.5176C37.1406 78.3145 37.0273 78.1348 36.8867 77.9785C36.75 77.8184 36.5801 77.6914 36.377 77.5977C36.1738 77.5039 35.9355 77.457 35.6621 77.457C35.3652 77.457 35.1094 77.5195 34.8945 77.6445C34.6836 77.7656 34.5098 77.9336 34.373 78.1484C34.2402 78.3594 34.1406 78.6055 34.0742 78.8867C34.0117 79.1641 33.9805 79.4609 33.9805 79.7773ZM41.0703 76.6602V83H39.9805V76.6602H41.0703ZM39.8984 74.9785C39.8984 74.8027 39.9512 74.6543 40.0566 74.5332C40.166 74.4121 40.3262 74.3516 40.5371 74.3516C40.7441 74.3516 40.9023 74.4121 41.0117 74.5332C41.125 74.6543 41.1816 74.8027 41.1816 74.9785C41.1816 75.1465 41.125 75.291 41.0117 75.4121C40.9023 75.5293 40.7441 75.5879 40.5371 75.5879C40.3262 75.5879 40.166 75.5293 40.0566 75.4121C39.9512 75.291 39.8984 75.1465 39.8984 74.9785ZM46.5488 81.916V78.6523C46.5488 78.4023 46.498 78.1855 46.3965 78.002C46.2988 77.8145 46.1504 77.6699 45.9512 77.5684C45.752 77.4668 45.5059 77.416 45.2129 77.416C44.9395 77.416 44.6992 77.4629 44.4922 77.5566C44.2891 77.6504 44.1289 77.7734 44.0117 77.9258C43.8984 78.0781 43.8418 78.2422 43.8418 78.418H42.7578C42.7578 78.1914 42.8164 77.9668 42.9336 77.7441C43.0508 77.5215 43.2188 77.3203 43.4375 77.1406C43.6602 76.957 43.9258 76.8125 44.2344 76.707C44.5469 76.5977 44.8945 76.543 45.2773 76.543C45.7383 76.543 46.1445 76.6211 46.4961 76.7773C46.8516 76.9336 47.1289 77.1699 47.3281 77.4863C47.5312 77.7988 47.6328 78.1914 47.6328 78.6641V81.6172C47.6328 81.8281 47.6504 82.0527 47.6855 82.291C47.7246 82.5293 47.7812 82.7344 47.8555 82.9062V83H46.7246C46.6699 82.875 46.627 82.709 46.5957 82.502C46.5645 82.291 46.5488 82.0957 46.5488 81.916ZM46.7363 79.1562L46.748 79.918H45.6523C45.3438 79.918 45.0684 79.9434 44.8262 79.9941C44.584 80.041 44.3809 80.1133 44.2168 80.2109C44.0527 80.3086 43.9277 80.4316 43.8418 80.5801C43.7559 80.7246 43.7129 80.8945 43.7129 81.0898C43.7129 81.2891 43.7578 81.4707 43.8477 81.6348C43.9375 81.7988 44.0723 81.9297 44.252 82.0273C44.4355 82.1211 44.6602 82.168 44.9258 82.168C45.2578 82.168 45.5508 82.0977 45.8047 81.957C46.0586 81.8164 46.2598 81.6445 46.4082 81.4414C46.5605 81.2383 46.6426 81.041 46.6543 80.8496L47.1172 81.3711C47.0898 81.5352 47.0156 81.7168 46.8945 81.916C46.7734 82.1152 46.6113 82.3066 46.4082 82.4902C46.209 82.6699 45.9707 82.8203 45.6934 82.9414C45.4199 83.0586 45.1113 83.1172 44.7676 83.1172C44.3379 83.1172 43.9609 83.0332 43.6367 82.8652C43.3164 82.6973 43.0664 82.4727 42.8867 82.1914C42.7109 81.9062 42.623 81.5879 42.623 81.2363C42.623 80.8965 42.6895 80.5977 42.8223 80.3398C42.9551 80.0781 43.1465 79.8613 43.3965 79.6895C43.6465 79.5137 43.9473 79.3809 44.2988 79.291C44.6504 79.2012 45.043 79.1562 45.4766 79.1562H46.7363ZM51.9922 76.6602V77.4922H48.5645V76.6602H51.9922ZM49.7246 75.1191H50.8086V81.4297C50.8086 81.6445 50.8418 81.8066 50.9082 81.916C50.9746 82.0254 51.0605 82.0977 51.166 82.1328C51.2715 82.168 51.3848 82.1855 51.5059 82.1855C51.5957 82.1855 51.6895 82.1777 51.7871 82.1621C51.8887 82.1426 51.9648 82.127 52.0156 82.1152L52.0215 83C51.9355 83.0273 51.8223 83.0527 51.6816 83.0762C51.5449 83.1035 51.3789 83.1172 51.1836 83.1172C50.918 83.1172 50.6738 83.0645 50.4512 82.959C50.2285 82.8535 50.0508 82.6777 49.918 82.4316C49.7891 82.1816 49.7246 81.8457 49.7246 81.4238V75.1191ZM57.002 81.916V78.6523C57.002 78.4023 56.9512 78.1855 56.8496 78.002C56.752 77.8145 56.6035 77.6699 56.4043 77.5684C56.2051 77.4668 55.959 77.416 55.666 77.416C55.3926 77.416 55.1523 77.4629 54.9453 77.5566C54.7422 77.6504 54.582 77.7734 54.4648 77.9258C54.3516 78.0781 54.2949 78.2422 54.2949 78.418H53.2109C53.2109 78.1914 53.2695 77.9668 53.3867 77.7441C53.5039 77.5215 53.6719 77.3203 53.8906 77.1406C54.1133 76.957 54.3789 76.8125 54.6875 76.707C55 76.5977 55.3477 76.543 55.7305 76.543C56.1914 76.543 56.5977 76.6211 56.9492 76.7773C57.3047 76.9336 57.582 77.1699 57.7812 77.4863C57.9844 77.7988 58.0859 78.1914 58.0859 78.6641V81.6172C58.0859 81.8281 58.1035 82.0527 58.1387 82.291C58.1777 82.5293 58.2344 82.7344 58.3086 82.9062V83H57.1777C57.123 82.875 57.0801 82.709 57.0488 82.502C57.0176 82.291 57.002 82.0957 57.002 81.916ZM57.1895 79.1562L57.2012 79.918H56.1055C55.7969 79.918 55.5215 79.9434 55.2793 79.9941C55.0371 80.041 54.834 80.1133 54.6699 80.2109C54.5059 80.3086 54.3809 80.4316 54.2949 80.5801C54.209 80.7246 54.166 80.8945 54.166 81.0898C54.166 81.2891 54.2109 81.4707 54.3008 81.6348C54.3906 81.7988 54.5254 81.9297 54.7051 82.0273C54.8887 82.1211 55.1133 82.168 55.3789 82.168C55.7109 82.168 56.0039 82.0977 56.2578 81.957C56.5117 81.8164 56.7129 81.6445 56.8613 81.4414C57.0137 81.2383 57.0957 81.041 57.1074 80.8496L57.5703 81.3711C57.543 81.5352 57.4688 81.7168 57.3477 81.916C57.2266 82.1152 57.0645 82.3066 56.8613 82.4902C56.6621 82.6699 56.4238 82.8203 56.1465 82.9414C55.873 83.0586 55.5645 83.1172 55.2207 83.1172C54.791 83.1172 54.4141 83.0332 54.0898 82.8652C53.7695 82.6973 53.5195 82.4727 53.3398 82.1914C53.1641 81.9062 53.0762 81.5879 53.0762 81.2363C53.0762 80.8965 53.1426 80.5977 53.2754 80.3398C53.4082 80.0781 53.5996 79.8613 53.8496 79.6895C54.0996 79.5137 54.4004 79.3809 54.752 79.291C55.1035 79.2012 55.4961 79.1562 55.9297 79.1562H57.1895ZM60.875 78.0137V83H59.791V76.6602H60.8164L60.875 78.0137ZM60.6172 79.5898L60.166 79.5723C60.1699 79.1387 60.2344 78.7383 60.3594 78.3711C60.4844 78 60.6602 77.6777 60.8867 77.4043C61.1133 77.1309 61.3828 76.9199 61.6953 76.7715C62.0117 76.6191 62.3613 76.543 62.7441 76.543C63.0566 76.543 63.3379 76.5859 63.5879 76.6719C63.8379 76.7539 64.0508 76.8867 64.2266 77.0703C64.4062 77.2539 64.543 77.4922 64.6367 77.7852C64.7305 78.0742 64.7773 78.4277 64.7773 78.8457V83H63.6875V78.834C63.6875 78.502 63.6387 78.2363 63.541 78.0371C63.4434 77.834 63.3008 77.6875 63.1133 77.5977C62.9258 77.5039 62.6953 77.457 62.4219 77.457C62.1523 77.457 61.9062 77.5137 61.6836 77.627C61.4648 77.7402 61.2754 77.8965 61.1152 78.0957C60.959 78.2949 60.8359 78.5234 60.7461 78.7812C60.6602 79.0352 60.6172 79.3047 60.6172 79.5898ZM70.7773 74.4688V83H69.6465V74.4688H70.7773ZM76.3613 81.3184C76.3613 81.1621 76.3262 81.0176 76.2559 80.8848C76.1895 80.748 76.0508 80.625 75.8398 80.5156C75.6328 80.4023 75.3203 80.3047 74.9023 80.2227C74.5508 80.1484 74.2324 80.0605 73.9473 79.959C73.666 79.8574 73.4258 79.7344 73.2266 79.5898C73.0312 79.4453 72.8809 79.2754 72.7754 79.0801C72.6699 78.8848 72.6172 78.6562 72.6172 78.3945C72.6172 78.1445 72.6719 77.9082 72.7812 77.6855C72.8945 77.4629 73.0527 77.2656 73.2559 77.0938C73.4629 76.9219 73.7109 76.7871 74 76.6895C74.2891 76.5918 74.6113 76.543 74.9668 76.543C75.4746 76.543 75.9082 76.6328 76.2676 76.8125C76.627 76.9922 76.9023 77.2324 77.0938 77.5332C77.2852 77.8301 77.3809 78.1602 77.3809 78.5234H76.2969C76.2969 78.3477 76.2441 78.1777 76.1387 78.0137C76.0371 77.8457 75.8867 77.707 75.6875 77.5977C75.4922 77.4883 75.252 77.4336 74.9668 77.4336C74.666 77.4336 74.4219 77.4805 74.2344 77.5742C74.0508 77.6641 73.916 77.7793 73.8301 77.9199C73.748 78.0605 73.707 78.209 73.707 78.3652C73.707 78.4824 73.7266 78.5879 73.7656 78.6816C73.8086 78.7715 73.8828 78.8555 73.9883 78.9336C74.0938 79.0078 74.2422 79.0781 74.4336 79.1445C74.625 79.2109 74.8691 79.2773 75.166 79.3438C75.6855 79.4609 76.1133 79.6016 76.4492 79.7656C76.7852 79.9297 77.0352 80.1309 77.1992 80.3691C77.3633 80.6074 77.4453 80.8965 77.4453 81.2363C77.4453 81.5137 77.3867 81.7676 77.2695 81.998C77.1562 82.2285 76.9902 82.4277 76.7715 82.5957C76.5566 82.7598 76.2988 82.8887 75.998 82.9824C75.7012 83.0723 75.3672 83.1172 74.9961 83.1172C74.4375 83.1172 73.9648 83.0176 73.5781 82.8184C73.1914 82.6191 72.8984 82.3613 72.6992 82.0449C72.5 81.7285 72.4004 81.3945 72.4004 81.043H73.4902C73.5059 81.3398 73.5918 81.5762 73.748 81.752C73.9043 81.9238 74.0957 82.0469 74.3223 82.1211C74.5488 82.1914 74.7734 82.2266 74.9961 82.2266C75.293 82.2266 75.541 82.1875 75.7402 82.1094C75.9434 82.0312 76.0977 81.9238 76.2031 81.7871C76.3086 81.6504 76.3613 81.4941 76.3613 81.3184ZM79.9531 77.6562V83H78.8691V76.6602H79.9238L79.9531 77.6562ZM81.9336 76.625L81.9277 77.6328C81.8379 77.6133 81.752 77.6016 81.6699 77.5977C81.5918 77.5898 81.502 77.5859 81.4004 77.5859C81.1504 77.5859 80.9297 77.625 80.7383 77.7031C80.5469 77.7812 80.3848 77.8906 80.252 78.0312C80.1191 78.1719 80.0137 78.3398 79.9355 78.5352C79.8613 78.7266 79.8125 78.9375 79.7891 79.168L79.4844 79.3438C79.4844 78.9609 79.5215 78.6016 79.5957 78.2656C79.6738 77.9297 79.793 77.6328 79.9531 77.375C80.1133 77.1133 80.3164 76.9102 80.5625 76.7656C80.8125 76.6172 81.1094 76.543 81.4531 76.543C81.5312 76.543 81.6211 76.5527 81.7227 76.5723C81.8242 76.5879 81.8945 76.6055 81.9336 76.625ZM86.4395 81.916V78.6523C86.4395 78.4023 86.3887 78.1855 86.2871 78.002C86.1895 77.8145 86.041 77.6699 85.8418 77.5684C85.6426 77.4668 85.3965 77.416 85.1035 77.416C84.8301 77.416 84.5898 77.4629 84.3828 77.5566C84.1797 77.6504 84.0195 77.7734 83.9023 77.9258C83.7891 78.0781 83.7324 78.2422 83.7324 78.418H82.6484C82.6484 78.1914 82.707 77.9668 82.8242 77.7441C82.9414 77.5215 83.1094 77.3203 83.3281 77.1406C83.5508 76.957 83.8164 76.8125 84.125 76.707C84.4375 76.5977 84.7852 76.543 85.168 76.543C85.6289 76.543 86.0352 76.6211 86.3867 76.7773C86.7422 76.9336 87.0195 77.1699 87.2188 77.4863C87.4219 77.7988 87.5234 78.1914 87.5234 78.6641V81.6172C87.5234 81.8281 87.541 82.0527 87.5762 82.291C87.6152 82.5293 87.6719 82.7344 87.7461 82.9062V83H86.6152C86.5605 82.875 86.5176 82.709 86.4863 82.502C86.4551 82.291 86.4395 82.0957 86.4395 81.916ZM86.627 79.1562L86.6387 79.918H85.543C85.2344 79.918 84.959 79.9434 84.7168 79.9941C84.4746 80.041 84.2715 80.1133 84.1074 80.2109C83.9434 80.3086 83.8184 80.4316 83.7324 80.5801C83.6465 80.7246 83.6035 80.8945 83.6035 81.0898C83.6035 81.2891 83.6484 81.4707 83.7383 81.6348C83.8281 81.7988 83.9629 81.9297 84.1426 82.0273C84.3262 82.1211 84.5508 82.168 84.8164 82.168C85.1484 82.168 85.4414 82.0977 85.6953 81.957C85.9492 81.8164 86.1504 81.6445 86.2988 81.4414C86.4512 81.2383 86.5332 81.041 86.5449 80.8496L87.0078 81.3711C86.9805 81.5352 86.9062 81.7168 86.7852 81.916C86.6641 82.1152 86.502 82.3066 86.2988 82.4902C86.0996 82.6699 85.8613 82.8203 85.584 82.9414C85.3105 83.0586 85.002 83.1172 84.6582 83.1172C84.2285 83.1172 83.8516 83.0332 83.5273 82.8652C83.207 82.6973 82.957 82.4727 82.7773 82.1914C82.6016 81.9062 82.5137 81.5879 82.5137 81.2363C82.5137 80.8965 82.5801 80.5977 82.7129 80.3398C82.8457 80.0781 83.0371 79.8613 83.2871 79.6895C83.5371 79.5137 83.8379 79.3809 84.1895 79.291C84.541 79.2012 84.9336 79.1562 85.3672 79.1562H86.627ZM89.9258 74V74.75C89.9258 74.9844 89.8848 75.2324 89.8027 75.4941C89.7246 75.752 89.6094 76.002 89.457 76.2441C89.3047 76.4824 89.1211 76.6914 88.9062 76.8711L88.2852 76.4434C88.4688 76.1855 88.6074 75.9219 88.7012 75.6523C88.7988 75.3789 88.8477 75.084 88.8477 74.7676V74H89.9258ZM94.7305 74.4688H95.8262L98.6211 81.4238L101.41 74.4688H102.512L99.043 83H98.1875L94.7305 74.4688ZM94.373 74.4688H95.3398L95.498 79.6719V83H94.373V74.4688ZM101.896 74.4688H102.863V83H101.738V79.6719L101.896 74.4688ZM105.863 76.6602V83H104.773V76.6602H105.863ZM104.691 74.9785C104.691 74.8027 104.744 74.6543 104.85 74.5332C104.959 74.4121 105.119 74.3516 105.33 74.3516C105.537 74.3516 105.695 74.4121 105.805 74.5332C105.918 74.6543 105.975 74.8027 105.975 74.9785C105.975 75.1465 105.918 75.291 105.805 75.4121C105.695 75.5293 105.537 75.5879 105.33 75.5879C105.119 75.5879 104.959 75.5293 104.85 75.4121C104.744 75.291 104.691 75.1465 104.691 74.9785ZM108.699 74V74.75C108.699 74.9844 108.658 75.2324 108.576 75.4941C108.498 75.752 108.383 76.002 108.23 76.2441C108.078 76.4824 107.895 76.6914 107.68 76.8711L107.059 76.4434C107.242 76.1855 107.381 75.9219 107.475 75.6523C107.572 75.3789 107.621 75.084 107.621 74.7676V74H108.699ZM111.09 77.6562V83H110.006V76.6602H111.061L111.09 77.6562ZM113.07 76.625L113.064 77.6328C112.975 77.6133 112.889 77.6016 112.807 77.5977C112.729 77.5898 112.639 77.5859 112.537 77.5859C112.287 77.5859 112.066 77.625 111.875 77.7031C111.684 77.7812 111.521 77.8906 111.389 78.0312C111.256 78.1719 111.15 78.3398 111.072 78.5352C110.998 78.7266 110.949 78.9375 110.926 79.168L110.621 79.3438C110.621 78.9609 110.658 78.6016 110.732 78.2656C110.811 77.9297 110.93 77.6328 111.09 77.375C111.25 77.1133 111.453 76.9102 111.699 76.7656C111.949 76.6172 112.246 76.543 112.59 76.543C112.668 76.543 112.758 76.5527 112.859 76.5723C112.961 76.5879 113.031 76.6055 113.07 76.625ZM117.576 81.916V78.6523C117.576 78.4023 117.525 78.1855 117.424 78.002C117.326 77.8145 117.178 77.6699 116.979 77.5684C116.779 77.4668 116.533 77.416 116.24 77.416C115.967 77.416 115.727 77.4629 115.52 77.5566C115.316 77.6504 115.156 77.7734 115.039 77.9258C114.926 78.0781 114.869 78.2422 114.869 78.418H113.785C113.785 78.1914 113.844 77.9668 113.961 77.7441C114.078 77.5215 114.246 77.3203 114.465 77.1406C114.688 76.957 114.953 76.8125 115.262 76.707C115.574 76.5977 115.922 76.543 116.305 76.543C116.766 76.543 117.172 76.6211 117.523 76.7773C117.879 76.9336 118.156 77.1699 118.355 77.4863C118.559 77.7988 118.66 78.1914 118.66 78.6641V81.6172C118.66 81.8281 118.678 82.0527 118.713 82.291C118.752 82.5293 118.809 82.7344 118.883 82.9062V83H117.752C117.697 82.875 117.654 82.709 117.623 82.502C117.592 82.291 117.576 82.0957 117.576 81.916ZM117.764 79.1562L117.775 79.918H116.68C116.371 79.918 116.096 79.9434 115.854 79.9941C115.611 80.041 115.408 80.1133 115.244 80.2109C115.08 80.3086 114.955 80.4316 114.869 80.5801C114.783 80.7246 114.74 80.8945 114.74 81.0898C114.74 81.2891 114.785 81.4707 114.875 81.6348C114.965 81.7988 115.1 81.9297 115.279 82.0273C115.463 82.1211 115.688 82.168 115.953 82.168C116.285 82.168 116.578 82.0977 116.832 81.957C117.086 81.8164 117.287 81.6445 117.436 81.4414C117.588 81.2383 117.67 81.041 117.682 80.8496L118.145 81.3711C118.117 81.5352 118.043 81.7168 117.922 81.916C117.801 82.1152 117.639 82.3066 117.436 82.4902C117.236 82.6699 116.998 82.8203 116.721 82.9414C116.447 83.0586 116.139 83.1172 115.795 83.1172C115.365 83.1172 114.988 83.0332 114.664 82.8652C114.344 82.6973 114.094 82.4727 113.914 82.1914C113.738 81.9062 113.65 81.5879 113.65 81.2363C113.65 80.8965 113.717 80.5977 113.85 80.3398C113.982 80.0781 114.174 79.8613 114.424 79.6895C114.674 79.5137 114.975 79.3809 115.326 79.291C115.678 79.2012 116.07 79.1562 116.504 79.1562H117.764ZM120.395 76.6602H121.484V83.7559C121.484 84.1426 121.422 84.4707 121.297 84.7402C121.176 85.0098 120.992 85.2129 120.746 85.3496C120.504 85.4902 120.197 85.5605 119.826 85.5605C119.729 85.5605 119.615 85.5508 119.486 85.5312C119.354 85.5117 119.242 85.4883 119.152 85.4609L119.158 84.5879C119.232 84.6035 119.316 84.6152 119.41 84.623C119.504 84.6348 119.586 84.6406 119.656 84.6406C119.816 84.6406 119.951 84.6113 120.061 84.5527C120.17 84.4941 120.252 84.4004 120.307 84.2715C120.365 84.1426 120.395 83.9707 120.395 83.7559V76.6602ZM120.283 74.9785C120.283 74.8027 120.338 74.6543 120.447 74.5332C120.557 74.4121 120.715 74.3516 120.922 74.3516C121.133 74.3516 121.293 74.4121 121.402 74.5332C121.512 74.6543 121.566 74.8027 121.566 74.9785C121.566 75.1465 121.512 75.291 121.402 75.4121C121.293 75.5293 121.133 75.5879 120.922 75.5879C120.715 75.5879 120.557 75.5293 120.447 75.4121C120.338 75.291 120.283 75.1465 120.283 74.9785ZM130.209 81.7695V74H131.299V83H130.303L130.209 81.7695ZM125.943 79.9004V79.7773C125.943 79.293 126.002 78.8535 126.119 78.459C126.24 78.0605 126.41 77.7188 126.629 77.4336C126.852 77.1484 127.115 76.9297 127.42 76.7773C127.729 76.6211 128.072 76.543 128.451 76.543C128.85 76.543 129.197 76.6133 129.494 76.7539C129.795 76.8906 130.049 77.0918 130.256 77.3574C130.467 77.6191 130.633 77.9355 130.754 78.3066C130.875 78.6777 130.959 79.0977 131.006 79.5664V80.1055C130.963 80.5703 130.879 80.9883 130.754 81.3594C130.633 81.7305 130.467 82.0469 130.256 82.3086C130.049 82.5703 129.795 82.7715 129.494 82.9121C129.193 83.0488 128.842 83.1172 128.439 83.1172C128.068 83.1172 127.729 83.0371 127.42 82.877C127.115 82.7168 126.852 82.4922 126.629 82.2031C126.41 81.9141 126.24 81.5742 126.119 81.1836C126.002 80.7891 125.943 80.3613 125.943 79.9004ZM127.033 79.7773V79.9004C127.033 80.2168 127.064 80.5137 127.127 80.791C127.193 81.0684 127.295 81.3125 127.432 81.5234C127.568 81.7344 127.742 81.9004 127.953 82.0215C128.164 82.1387 128.416 82.1973 128.709 82.1973C129.068 82.1973 129.363 82.1211 129.594 81.9688C129.828 81.8164 130.016 81.6152 130.156 81.3652C130.297 81.1152 130.406 80.8438 130.484 80.5508V79.1387C130.438 78.9238 130.369 78.7168 130.279 78.5176C130.193 78.3145 130.08 78.1348 129.939 77.9785C129.803 77.8184 129.633 77.6914 129.43 77.5977C129.23 77.5039 128.994 77.457 128.721 77.457C128.424 77.457 128.168 77.5195 127.953 77.6445C127.742 77.7656 127.568 77.9336 127.432 78.1484C127.295 78.3594 127.193 78.6055 127.127 78.8867C127.064 79.1641 127.033 79.4609 127.033 79.7773ZM134.164 76.6602V83H133.074V76.6602H134.164ZM132.992 74.9785C132.992 74.8027 133.045 74.6543 133.15 74.5332C133.26 74.4121 133.42 74.3516 133.631 74.3516C133.838 74.3516 133.996 74.4121 134.105 74.5332C134.219 74.6543 134.275 74.8027 134.275 74.9785C134.275 75.1465 134.219 75.291 134.105 75.4121C133.996 75.5293 133.838 75.5879 133.631 75.5879C133.42 75.5879 133.26 75.5293 133.15 75.4121C133.045 75.291 132.992 75.1465 132.992 74.9785ZM139.402 74.4688H140.498L143.293 81.4238L146.082 74.4688H147.184L143.715 83H142.859L139.402 74.4688ZM139.045 74.4688H140.012L140.17 79.6719V83H139.045V74.4688ZM146.568 74.4688H147.535V83H146.41V79.6719L146.568 74.4688ZM153.096 81.916V78.6523C153.096 78.4023 153.045 78.1855 152.943 78.002C152.846 77.8145 152.697 77.6699 152.498 77.5684C152.299 77.4668 152.053 77.416 151.76 77.416C151.486 77.416 151.246 77.4629 151.039 77.5566C150.836 77.6504 150.676 77.7734 150.559 77.9258C150.445 78.0781 150.389 78.2422 150.389 78.418H149.305C149.305 78.1914 149.363 77.9668 149.48 77.7441C149.598 77.5215 149.766 77.3203 149.984 77.1406C150.207 76.957 150.473 76.8125 150.781 76.707C151.094 76.5977 151.441 76.543 151.824 76.543C152.285 76.543 152.691 76.6211 153.043 76.7773C153.398 76.9336 153.676 77.1699 153.875 77.4863C154.078 77.7988 154.18 78.1914 154.18 78.6641V81.6172C154.18 81.8281 154.197 82.0527 154.232 82.291C154.271 82.5293 154.328 82.7344 154.402 82.9062V83H153.271C153.217 82.875 153.174 82.709 153.143 82.502C153.111 82.291 153.096 82.0957 153.096 81.916ZM153.283 79.1562L153.295 79.918H152.199C151.891 79.918 151.615 79.9434 151.373 79.9941C151.131 80.041 150.928 80.1133 150.764 80.2109C150.6 80.3086 150.475 80.4316 150.389 80.5801C150.303 80.7246 150.26 80.8945 150.26 81.0898C150.26 81.2891 150.305 81.4707 150.395 81.6348C150.484 81.7988 150.619 81.9297 150.799 82.0273C150.982 82.1211 151.207 82.168 151.473 82.168C151.805 82.168 152.098 82.0977 152.352 81.957C152.605 81.8164 152.807 81.6445 152.955 81.4414C153.107 81.2383 153.189 81.041 153.201 80.8496L153.664 81.3711C153.637 81.5352 153.562 81.7168 153.441 81.916C153.32 82.1152 153.158 82.3066 152.955 82.4902C152.756 82.6699 152.518 82.8203 152.24 82.9414C151.967 83.0586 151.658 83.1172 151.314 83.1172C150.885 83.1172 150.508 83.0332 150.184 82.8652C149.863 82.6973 149.613 82.4727 149.434 82.1914C149.258 81.9062 149.17 81.5879 149.17 81.2363C149.17 80.8965 149.236 80.5977 149.369 80.3398C149.502 80.0781 149.693 79.8613 149.943 79.6895C150.193 79.5137 150.494 79.3809 150.846 79.291C151.197 79.2012 151.59 79.1562 152.023 79.1562H153.283ZM159.576 81.3184C159.576 81.1621 159.541 81.0176 159.471 80.8848C159.404 80.748 159.266 80.625 159.055 80.5156C158.848 80.4023 158.535 80.3047 158.117 80.2227C157.766 80.1484 157.447 80.0605 157.162 79.959C156.881 79.8574 156.641 79.7344 156.441 79.5898C156.246 79.4453 156.096 79.2754 155.99 79.0801C155.885 78.8848 155.832 78.6562 155.832 78.3945C155.832 78.1445 155.887 77.9082 155.996 77.6855C156.109 77.4629 156.268 77.2656 156.471 77.0938C156.678 76.9219 156.926 76.7871 157.215 76.6895C157.504 76.5918 157.826 76.543 158.182 76.543C158.689 76.543 159.123 76.6328 159.482 76.8125C159.842 76.9922 160.117 77.2324 160.309 77.5332C160.5 77.8301 160.596 78.1602 160.596 78.5234H159.512C159.512 78.3477 159.459 78.1777 159.354 78.0137C159.252 77.8457 159.102 77.707 158.902 77.5977C158.707 77.4883 158.467 77.4336 158.182 77.4336C157.881 77.4336 157.637 77.4805 157.449 77.5742C157.266 77.6641 157.131 77.7793 157.045 77.9199C156.963 78.0605 156.922 78.209 156.922 78.3652C156.922 78.4824 156.941 78.5879 156.98 78.6816C157.023 78.7715 157.098 78.8555 157.203 78.9336C157.309 79.0078 157.457 79.0781 157.648 79.1445C157.84 79.2109 158.084 79.2773 158.381 79.3438C158.9 79.4609 159.328 79.6016 159.664 79.7656C160 79.9297 160.25 80.1309 160.414 80.3691C160.578 80.6074 160.66 80.8965 160.66 81.2363C160.66 81.5137 160.602 81.7676 160.484 81.998C160.371 82.2285 160.205 82.4277 159.986 82.5957C159.771 82.7598 159.514 82.8887 159.213 82.9824C158.916 83.0723 158.582 83.1172 158.211 83.1172C157.652 83.1172 157.18 83.0176 156.793 82.8184C156.406 82.6191 156.113 82.3613 155.914 82.0449C155.715 81.7285 155.615 81.3945 155.615 81.043H156.705C156.721 81.3398 156.807 81.5762 156.963 81.752C157.119 81.9238 157.311 82.0469 157.537 82.1211C157.764 82.1914 157.988 82.2266 158.211 82.2266C158.508 82.2266 158.756 82.1875 158.955 82.1094C159.158 82.0312 159.312 81.9238 159.418 81.7871C159.523 81.6504 159.576 81.4941 159.576 81.3184ZM162.113 76.6602H163.203V83.7559C163.203 84.1426 163.141 84.4707 163.016 84.7402C162.895 85.0098 162.711 85.2129 162.465 85.3496C162.223 85.4902 161.916 85.5605 161.545 85.5605C161.447 85.5605 161.334 85.5508 161.205 85.5312C161.072 85.5117 160.961 85.4883 160.871 85.4609L160.877 84.5879C160.951 84.6035 161.035 84.6152 161.129 84.623C161.223 84.6348 161.305 84.6406 161.375 84.6406C161.535 84.6406 161.67 84.6113 161.779 84.5527C161.889 84.4941 161.971 84.4004 162.025 84.2715C162.084 84.1426 162.113 83.9707 162.113 83.7559V76.6602ZM162.002 74.9785C162.002 74.8027 162.057 74.6543 162.166 74.5332C162.275 74.4121 162.434 74.3516 162.641 74.3516C162.852 74.3516 163.012 74.4121 163.121 74.5332C163.23 74.6543 163.285 74.8027 163.285 74.9785C163.285 75.1465 163.23 75.291 163.121 75.4121C163.012 75.5293 162.852 75.5879 162.641 75.5879C162.434 75.5879 162.275 75.5293 162.166 75.4121C162.057 75.291 162.002 75.1465 162.002 74.9785ZM166.133 76.6602V83H165.043V76.6602H166.133ZM164.961 74.9785C164.961 74.8027 165.014 74.6543 165.119 74.5332C165.229 74.4121 165.389 74.3516 165.6 74.3516C165.807 74.3516 165.965 74.4121 166.074 74.5332C166.188 74.6543 166.244 74.8027 166.244 74.9785C166.244 75.1465 166.188 75.291 166.074 75.4121C165.965 75.5293 165.807 75.5879 165.6 75.5879C165.389 75.5879 165.229 75.5293 165.119 75.4121C165.014 75.291 164.961 75.1465 164.961 74.9785ZM171.869 81.7695V74H172.959V83H171.963L171.869 81.7695ZM167.604 79.9004V79.7773C167.604 79.293 167.662 78.8535 167.779 78.459C167.9 78.0605 168.07 77.7188 168.289 77.4336C168.512 77.1484 168.775 76.9297 169.08 76.7773C169.389 76.6211 169.732 76.543 170.111 76.543C170.51 76.543 170.857 76.6133 171.154 76.7539C171.455 76.8906 171.709 77.0918 171.916 77.3574C172.127 77.6191 172.293 77.9355 172.414 78.3066C172.535 78.6777 172.619 79.0977 172.666 79.5664V80.1055C172.623 80.5703 172.539 80.9883 172.414 81.3594C172.293 81.7305 172.127 82.0469 171.916 82.3086C171.709 82.5703 171.455 82.7715 171.154 82.9121C170.854 83.0488 170.502 83.1172 170.1 83.1172C169.729 83.1172 169.389 83.0371 169.08 82.877C168.775 82.7168 168.512 82.4922 168.289 82.2031C168.07 81.9141 167.9 81.5742 167.779 81.1836C167.662 80.7891 167.604 80.3613 167.604 79.9004ZM168.693 79.7773V79.9004C168.693 80.2168 168.725 80.5137 168.787 80.791C168.854 81.0684 168.955 81.3125 169.092 81.5234C169.229 81.7344 169.402 81.9004 169.613 82.0215C169.824 82.1387 170.076 82.1973 170.369 82.1973C170.729 82.1973 171.023 82.1211 171.254 81.9688C171.488 81.8164 171.676 81.6152 171.816 81.3652C171.957 81.1152 172.066 80.8438 172.145 80.5508V79.1387C172.098 78.9238 172.029 78.7168 171.939 78.5176C171.854 78.3145 171.74 78.1348 171.6 77.9785C171.463 77.8184 171.293 77.6914 171.09 77.5977C170.891 77.5039 170.654 77.457 170.381 77.457C170.084 77.457 169.828 77.5195 169.613 77.6445C169.402 77.7656 169.229 77.9336 169.092 78.1484C168.955 78.3594 168.854 78.6055 168.787 78.8867C168.725 79.1641 168.693 79.4609 168.693 79.7773ZM25.5371 94.8438C25.5371 94.6445 25.5059 94.4688 25.4434 94.3164C25.3848 94.1602 25.2793 94.0195 25.127 93.8945C24.9785 93.7695 24.7715 93.6504 24.5059 93.5371C24.2441 93.4238 23.9121 93.3086 23.5098 93.1914C23.0879 93.0664 22.707 92.9277 22.3672 92.7754C22.0273 92.6191 21.7363 92.4414 21.4941 92.2422C21.252 92.043 21.0664 91.8145 20.9375 91.5566C20.8086 91.2988 20.7441 91.0039 20.7441 90.6719C20.7441 90.3398 20.8125 90.0332 20.9492 89.752C21.0859 89.4707 21.2812 89.2266 21.5352 89.0195C21.793 88.8086 22.0996 88.6445 22.4551 88.5273C22.8105 88.4102 23.207 88.3516 23.6445 88.3516C24.2852 88.3516 24.8281 88.4746 25.2734 88.7207C25.7227 88.9629 26.0645 89.2812 26.2988 89.6758C26.5332 90.0664 26.6504 90.4844 26.6504 90.9297H25.5254C25.5254 90.6094 25.457 90.3262 25.3203 90.0801C25.1836 89.8301 24.9766 89.6348 24.6992 89.4941C24.4219 89.3496 24.0703 89.2773 23.6445 89.2773C23.2422 89.2773 22.9102 89.3379 22.6484 89.459C22.3867 89.5801 22.1914 89.7441 22.0625 89.9512C21.9375 90.1582 21.875 90.3945 21.875 90.6602C21.875 90.8398 21.9121 91.0039 21.9863 91.1523C22.0645 91.2969 22.1836 91.4316 22.3438 91.5566C22.5078 91.6816 22.7148 91.7969 22.9648 91.9023C23.2188 92.0078 23.5215 92.1094 23.873 92.207C24.3574 92.3438 24.7754 92.4961 25.127 92.6641C25.4785 92.832 25.7676 93.0215 25.9941 93.2324C26.2246 93.4395 26.3945 93.6758 26.5039 93.9414C26.6172 94.2031 26.6738 94.5 26.6738 94.832C26.6738 95.1797 26.6035 95.4941 26.4629 95.7754C26.3223 96.0566 26.1211 96.2969 25.8594 96.4961C25.5977 96.6953 25.2832 96.8496 24.916 96.959C24.5527 97.0645 24.1465 97.1172 23.6973 97.1172C23.3027 97.1172 22.9141 97.0625 22.5312 96.9531C22.1523 96.8438 21.8066 96.6797 21.4941 96.4609C21.1855 96.2422 20.9375 95.9727 20.75 95.6523C20.5664 95.3281 20.4746 94.9531 20.4746 94.5273H21.5996C21.5996 94.8203 21.6562 95.0723 21.7695 95.2832C21.8828 95.4902 22.0371 95.6621 22.2324 95.7988C22.4316 95.9355 22.6562 96.0371 22.9062 96.1035C23.1602 96.166 23.4238 96.1973 23.6973 96.1973C24.0918 96.1973 24.4258 96.1426 24.6992 96.0332C24.9727 95.9238 25.1797 95.7676 25.3203 95.5645C25.4648 95.3613 25.5371 95.1211 25.5371 94.8438ZM29.7324 96.3438L31.4961 90.6602H32.6562L30.1133 97.9785C30.0547 98.1348 29.9766 98.3027 29.8789 98.4824C29.7852 98.666 29.6641 98.8398 29.5156 99.0039C29.3672 99.168 29.1875 99.3008 28.9766 99.4023C28.7695 99.5078 28.5215 99.5605 28.2324 99.5605C28.1465 99.5605 28.0371 99.5488 27.9043 99.5254C27.7715 99.502 27.6777 99.4824 27.623 99.4668L27.6172 98.5879C27.6484 98.5918 27.6973 98.5957 27.7637 98.5996C27.834 98.6074 27.8828 98.6113 27.9102 98.6113C28.1562 98.6113 28.3652 98.5781 28.5371 98.5117C28.709 98.4492 28.8535 98.3418 28.9707 98.1895C29.0918 98.041 29.1953 97.8359 29.2812 97.5742L29.7324 96.3438ZM28.4375 90.6602L30.084 95.582L30.3652 96.7246L29.5859 97.123L27.2539 90.6602H28.4375ZM37.5137 95.5352V90.6602H38.6035V97H37.5664L37.5137 95.5352ZM37.7188 94.1992L38.1699 94.1875C38.1699 94.6094 38.125 95 38.0352 95.3594C37.9492 95.7148 37.8086 96.0234 37.6133 96.2852C37.418 96.5469 37.1621 96.752 36.8457 96.9004C36.5293 97.0449 36.1445 97.1172 35.6914 97.1172C35.3828 97.1172 35.0996 97.0723 34.8418 96.9824C34.5879 96.8926 34.3691 96.7539 34.1855 96.5664C34.002 96.3789 33.8594 96.1348 33.7578 95.834C33.6602 95.5332 33.6113 95.1719 33.6113 94.75V90.6602H34.6953V94.7617C34.6953 95.0469 34.7266 95.2832 34.7891 95.4707C34.8555 95.6543 34.9434 95.8008 35.0527 95.9102C35.166 96.0156 35.291 96.0898 35.4277 96.1328C35.5684 96.1758 35.7129 96.1973 35.8613 96.1973C36.3223 96.1973 36.6875 96.1094 36.957 95.9336C37.2266 95.7539 37.4199 95.5137 37.5371 95.2129C37.6582 94.9082 37.7188 94.5703 37.7188 94.1992ZM41.3398 88V97H40.2559V88H41.3398ZM41.082 93.5898L40.6309 93.5723C40.6348 93.1387 40.6992 92.7383 40.8242 92.3711C40.9492 92 41.125 91.6777 41.3516 91.4043C41.5781 91.1309 41.8477 90.9199 42.1602 90.7715C42.4766 90.6191 42.8262 90.543 43.209 90.543C43.5215 90.543 43.8027 90.5859 44.0527 90.6719C44.3027 90.7539 44.5156 90.8867 44.6914 91.0703C44.8711 91.2539 45.0078 91.4922 45.1016 91.7852C45.1953 92.0742 45.2422 92.4277 45.2422 92.8457V97H44.1523V92.834C44.1523 92.502 44.1035 92.2363 44.0059 92.0371C43.9082 91.834 43.7656 91.6875 43.5781 91.5977C43.3906 91.5039 43.1602 91.457 42.8867 91.457C42.6172 91.457 42.3711 91.5137 42.1484 91.627C41.9297 91.7402 41.7402 91.8965 41.5801 92.0957C41.4238 92.2949 41.3008 92.5234 41.2109 92.7812C41.125 93.0352 41.082 93.3047 41.082 93.5898ZM50.6035 95.916V92.6523C50.6035 92.4023 50.5527 92.1855 50.4512 92.002C50.3535 91.8145 50.2051 91.6699 50.0059 91.5684C49.8066 91.4668 49.5605 91.416 49.2676 91.416C48.9941 91.416 48.7539 91.4629 48.5469 91.5566C48.3438 91.6504 48.1836 91.7734 48.0664 91.9258C47.9531 92.0781 47.8965 92.2422 47.8965 92.418H46.8125C46.8125 92.1914 46.8711 91.9668 46.9883 91.7441C47.1055 91.5215 47.2734 91.3203 47.4922 91.1406C47.7148 90.957 47.9805 90.8125 48.2891 90.707C48.6016 90.5977 48.9492 90.543 49.332 90.543C49.793 90.543 50.1992 90.6211 50.5508 90.7773C50.9062 90.9336 51.1836 91.1699 51.3828 91.4863C51.5859 91.7988 51.6875 92.1914 51.6875 92.6641V95.6172C51.6875 95.8281 51.7051 96.0527 51.7402 96.291C51.7793 96.5293 51.8359 96.7344 51.9102 96.9062V97H50.7793C50.7246 96.875 50.6816 96.709 50.6504 96.502C50.6191 96.291 50.6035 96.0957 50.6035 95.916ZM50.791 93.1562L50.8027 93.918H49.707C49.3984 93.918 49.123 93.9434 48.8809 93.9941C48.6387 94.041 48.4355 94.1133 48.2715 94.2109C48.1074 94.3086 47.9824 94.4316 47.8965 94.5801C47.8105 94.7246 47.7676 94.8945 47.7676 95.0898C47.7676 95.2891 47.8125 95.4707 47.9023 95.6348C47.9922 95.7988 48.127 95.9297 48.3066 96.0273C48.4902 96.1211 48.7148 96.168 48.9805 96.168C49.3125 96.168 49.6055 96.0977 49.8594 95.957C50.1133 95.8164 50.3145 95.6445 50.4629 95.4414C50.6152 95.2383 50.6973 95.041 50.709 94.8496L51.1719 95.3711C51.1445 95.5352 51.0703 95.7168 50.9492 95.916C50.8281 96.1152 50.666 96.3066 50.4629 96.4902C50.2637 96.6699 50.0254 96.8203 49.748 96.9414C49.4746 97.0586 49.166 97.1172 48.8223 97.1172C48.3926 97.1172 48.0156 97.0332 47.6914 96.8652C47.3711 96.6973 47.1211 96.4727 46.9414 96.1914C46.7656 95.9062 46.6777 95.5879 46.6777 95.2363C46.6777 94.8965 46.7441 94.5977 46.877 94.3398C47.0098 94.0781 47.2012 93.8613 47.4512 93.6895C47.7012 93.5137 48.002 93.3809 48.3535 93.291C48.7051 93.2012 49.0977 93.1562 49.5312 93.1562H50.791ZM57.3887 95.7695V88H58.4785V97H57.4824L57.3887 95.7695ZM53.123 93.9004V93.7773C53.123 93.293 53.1816 92.8535 53.2988 92.459C53.4199 92.0605 53.5898 91.7188 53.8086 91.4336C54.0312 91.1484 54.2949 90.9297 54.5996 90.7773C54.9082 90.6211 55.252 90.543 55.6309 90.543C56.0293 90.543 56.377 90.6133 56.6738 90.7539C56.9746 90.8906 57.2285 91.0918 57.4355 91.3574C57.6465 91.6191 57.8125 91.9355 57.9336 92.3066C58.0547 92.6777 58.1387 93.0977 58.1855 93.5664V94.1055C58.1426 94.5703 58.0586 94.9883 57.9336 95.3594C57.8125 95.7305 57.6465 96.0469 57.4355 96.3086C57.2285 96.5703 56.9746 96.7715 56.6738 96.9121C56.373 97.0488 56.0215 97.1172 55.6191 97.1172C55.248 97.1172 54.9082 97.0371 54.5996 96.877C54.2949 96.7168 54.0312 96.4922 53.8086 96.2031C53.5898 95.9141 53.4199 95.5742 53.2988 95.1836C53.1816 94.7891 53.123 94.3613 53.123 93.9004ZM54.2129 93.7773V93.9004C54.2129 94.2168 54.2441 94.5137 54.3066 94.791C54.373 95.0684 54.4746 95.3125 54.6113 95.5234C54.748 95.7344 54.9219 95.9004 55.1328 96.0215C55.3438 96.1387 55.5957 96.1973 55.8887 96.1973C56.248 96.1973 56.543 96.1211 56.7734 95.9688C57.0078 95.8164 57.1953 95.6152 57.3359 95.3652C57.4766 95.1152 57.5859 94.8438 57.6641 94.5508V93.1387C57.6172 92.9238 57.5488 92.7168 57.459 92.5176C57.373 92.3145 57.2598 92.1348 57.1191 91.9785C56.9824 91.8184 56.8125 91.6914 56.6094 91.5977C56.4102 91.5039 56.1738 91.457 55.9004 91.457C55.6035 91.457 55.3477 91.5195 55.1328 91.6445C54.9219 91.7656 54.748 91.9336 54.6113 92.1484C54.4746 92.3594 54.373 92.6055 54.3066 92.8867C54.2441 93.1641 54.2129 93.4609 54.2129 93.7773ZM63.9043 95.916V92.6523C63.9043 92.4023 63.8535 92.1855 63.752 92.002C63.6543 91.8145 63.5059 91.6699 63.3066 91.5684C63.1074 91.4668 62.8613 91.416 62.5684 91.416C62.2949 91.416 62.0547 91.4629 61.8477 91.5566C61.6445 91.6504 61.4844 91.7734 61.3672 91.9258C61.2539 92.0781 61.1973 92.2422 61.1973 92.418H60.1133C60.1133 92.1914 60.1719 91.9668 60.2891 91.7441C60.4062 91.5215 60.5742 91.3203 60.793 91.1406C61.0156 90.957 61.2812 90.8125 61.5898 90.707C61.9023 90.5977 62.25 90.543 62.6328 90.543C63.0938 90.543 63.5 90.6211 63.8516 90.7773C64.207 90.9336 64.4844 91.1699 64.6836 91.4863C64.8867 91.7988 64.9883 92.1914 64.9883 92.6641V95.6172C64.9883 95.8281 65.0059 96.0527 65.041 96.291C65.0801 96.5293 65.1367 96.7344 65.2109 96.9062V97H64.0801C64.0254 96.875 63.9824 96.709 63.9512 96.502C63.9199 96.291 63.9043 96.0957 63.9043 95.916ZM64.0918 93.1562L64.1035 93.918H63.0078C62.6992 93.918 62.4238 93.9434 62.1816 93.9941C61.9395 94.041 61.7363 94.1133 61.5723 94.2109C61.4082 94.3086 61.2832 94.4316 61.1973 94.5801C61.1113 94.7246 61.0684 94.8945 61.0684 95.0898C61.0684 95.2891 61.1133 95.4707 61.2031 95.6348C61.293 95.7988 61.4277 95.9297 61.6074 96.0273C61.791 96.1211 62.0156 96.168 62.2812 96.168C62.6133 96.168 62.9062 96.0977 63.1602 95.957C63.4141 95.8164 63.6152 95.6445 63.7637 95.4414C63.916 95.2383 63.998 95.041 64.0098 94.8496L64.4727 95.3711C64.4453 95.5352 64.3711 95.7168 64.25 95.916C64.1289 96.1152 63.9668 96.3066 63.7637 96.4902C63.5645 96.6699 63.3262 96.8203 63.0488 96.9414C62.7754 97.0586 62.4668 97.1172 62.123 97.1172C61.6934 97.1172 61.3164 97.0332 60.9922 96.8652C60.6719 96.6973 60.4219 96.4727 60.2422 96.1914C60.0664 95.9062 59.9785 95.5879 59.9785 95.2363C59.9785 94.8965 60.0449 94.5977 60.1777 94.3398C60.3105 94.0781 60.502 93.8613 60.752 93.6895C61.002 93.5137 61.3027 93.3809 61.6543 93.291C62.0059 93.2012 62.3984 93.1562 62.832 93.1562H64.0918ZM66.7109 96.4258C66.7109 96.2422 66.7676 96.0879 66.8809 95.9629C66.998 95.834 67.166 95.7695 67.3848 95.7695C67.6035 95.7695 67.7695 95.834 67.8828 95.9629C68 96.0879 68.0586 96.2422 68.0586 96.4258C68.0586 96.6055 68 96.7578 67.8828 96.8828C67.7695 97.0078 67.6035 97.0703 67.3848 97.0703C67.166 97.0703 66.998 97.0078 66.8809 96.8828C66.7676 96.7578 66.7109 96.6055 66.7109 96.4258Z" fill="black"/>
<path d="M280.706 111.604C285.93 107.945 289.486 102.36 290.592 96.0787C291.698 89.7973 290.264 83.3337 286.604 78.1099C282.945 72.8861 277.36 69.3299 271.079 68.2238C264.797 67.1176 258.334 68.5521 253.11 72.2115L258.812 80.3507C261.877 78.2035 265.67 77.3618 269.355 78.0109C273.041 78.6599 276.318 80.7465 278.465 83.8117C280.612 86.8769 281.454 90.6695 280.805 94.3552C280.156 98.041 278.069 101.318 275.004 103.465L280.706 111.604Z" fill="#F2C41E"/>
<rect x="237" y="19" width="39" height="39" fill="#CCD591"/>
<path d="M26.18 44.28C25.1 44.28 24.1467 44.0867 23.32 43.7C22.4933 43.3133 21.8467 42.76 21.38 42.04C20.9133 41.32 20.68 40.4533 20.68 39.44V38.88H23.28V39.44C23.28 40.28 23.54 40.9133 24.06 41.34C24.58 41.7533 25.2867 41.96 26.18 41.96C27.0867 41.96 27.76 41.78 28.2 41.42C28.6533 41.06 28.88 40.6 28.88 40.04C28.88 39.6533 28.7667 39.34 28.54 39.1C28.3267 38.86 28.0067 38.6667 27.58 38.52C27.1667 38.36 26.66 38.2133 26.06 38.08L25.6 37.98C24.64 37.7667 23.8133 37.5 23.12 37.18C22.44 36.8467 21.9133 36.4133 21.54 35.88C21.18 35.3467 21 34.6533 21 33.8C21 32.9467 21.2 32.22 21.6 31.62C22.0133 31.0067 22.5867 30.54 23.32 30.22C24.0667 29.8867 24.94 29.72 25.94 29.72C26.94 29.72 27.8267 29.8933 28.6 30.24C29.3867 30.5733 30 31.08 30.44 31.76C30.8933 32.4267 31.12 33.2667 31.12 34.28V34.88H28.52V34.28C28.52 33.7467 28.4133 33.32 28.2 33C28 32.6667 27.7067 32.4267 27.32 32.28C26.9333 32.12 26.4733 32.04 25.94 32.04C25.14 32.04 24.5467 32.1933 24.16 32.5C23.7867 32.7933 23.6 33.2 23.6 33.72C23.6 34.0667 23.6867 34.36 23.86 34.6C24.0467 34.84 24.32 35.04 24.68 35.2C25.04 35.36 25.5 35.5 26.06 35.62L26.52 35.72C27.52 35.9333 28.3867 36.2067 29.12 36.54C29.8667 36.8733 30.4467 37.3133 30.86 37.86C31.2733 38.4067 31.48 39.1067 31.48 39.96C31.48 40.8133 31.26 41.5667 30.82 42.22C30.3933 42.86 29.78 43.3667 28.98 43.74C28.1933 44.1 27.26 44.28 26.18 44.28ZM34.6089 48V45.8H40.0089C40.3822 45.8 40.5689 45.6 40.5689 45.2V42.7H40.2089C40.1022 42.9267 39.9356 43.1533 39.7089 43.38C39.4822 43.6067 39.1756 43.7933 38.7889 43.94C38.4022 44.0867 37.9089 44.16 37.3089 44.16C36.5356 44.16 35.8556 43.9867 35.2689 43.64C34.6956 43.28 34.2489 42.7867 33.9289 42.16C33.6089 41.5333 33.4489 40.8133 33.4489 40V34.08H35.9689V39.8C35.9689 40.5467 36.1489 41.1067 36.5089 41.48C36.8822 41.8533 37.4089 42.04 38.0889 42.04C38.8622 42.04 39.4622 41.7867 39.8889 41.28C40.3156 40.76 40.5289 40.04 40.5289 39.12V34.08H43.0489V45.76C43.0489 46.44 42.8489 46.98 42.4489 47.38C42.0489 47.7933 41.5156 48 40.8489 48H34.6089ZM49.6331 44.16C48.8598 44.16 48.1798 43.9867 47.5931 43.64C47.0198 43.28 46.5731 42.7867 46.2531 42.16C45.9331 41.5333 45.7731 40.8133 45.7731 40V34.08H48.2931V39.8C48.2931 40.5467 48.4731 41.1067 48.8331 41.48C49.2065 41.8533 49.7331 42.04 50.4131 42.04C51.1865 42.04 51.7865 41.7867 52.2131 41.28C52.6398 40.76 52.8531 40.04 52.8531 39.12V34.08H55.3731V44H52.8931V42.7H52.5331C52.3731 43.0333 52.0731 43.36 51.6331 43.68C51.1931 44 50.5265 44.16 49.6331 44.16ZM58.1773 44V30H60.6973V35.3H61.0573C61.164 35.0867 61.3307 34.8733 61.5573 34.66C61.784 34.4467 62.084 34.2733 62.4573 34.14C62.844 33.9933 63.3307 33.92 63.9173 33.92C64.6907 33.92 65.364 34.1 65.9373 34.46C66.524 34.8067 66.9773 35.2933 67.2973 35.92C67.6173 36.5333 67.7773 37.2533 67.7773 38.08V44H65.2573V38.28C65.2573 37.5333 65.0707 36.9733 64.6973 36.6C64.3373 36.2267 63.8173 36.04 63.1373 36.04C62.364 36.04 61.764 36.3 61.3373 36.82C60.9107 37.3267 60.6973 38.04 60.6973 38.96V44H58.1773ZM73.5816 44.28C72.8749 44.28 72.2416 44.16 71.6816 43.92C71.1216 43.6667 70.6749 43.3067 70.3416 42.84C70.0216 42.36 69.8616 41.78 69.8616 41.1C69.8616 40.42 70.0216 39.8533 70.3416 39.4C70.6749 38.9333 71.1282 38.5867 71.7016 38.36C72.2882 38.12 72.9549 38 73.7016 38H76.4216V37.44C76.4216 36.9733 76.2749 36.5933 75.9816 36.3C75.6882 35.9933 75.2216 35.84 74.5816 35.84C73.9549 35.84 73.4882 35.9867 73.1816 36.28C72.8749 36.56 72.6749 36.9267 72.5816 37.38L70.2616 36.6C70.4216 36.0933 70.6749 35.6333 71.0216 35.22C71.3816 34.7933 71.8549 34.4533 72.4416 34.2C73.0416 33.9333 73.7682 33.8 74.6216 33.8C75.9282 33.8 76.9616 34.1267 77.7216 34.78C78.4816 35.4333 78.8616 36.38 78.8616 37.62V41.32C78.8616 41.72 79.0482 41.92 79.4216 41.92H80.2216V44H78.5416C78.0482 44 77.6416 43.88 77.3216 43.64C77.0016 43.4 76.8416 43.08 76.8416 42.68V42.66H76.4616C76.4082 42.82 76.2882 43.0333 76.1016 43.3C75.9149 43.5533 75.6216 43.78 75.2216 43.98C74.8216 44.18 74.2749 44.28 73.5816 44.28ZM74.0216 42.24C74.7282 42.24 75.3016 42.0467 75.7416 41.66C76.1949 41.26 76.4216 40.7333 76.4216 40.08V39.88H73.8816C73.4149 39.88 73.0482 39.98 72.7816 40.18C72.5149 40.38 72.3816 40.66 72.3816 41.02C72.3816 41.38 72.5216 41.6733 72.8016 41.9C73.0816 42.1267 73.4882 42.24 74.0216 42.24ZM85.8688 44.28C85.0821 44.28 84.3421 44.0867 83.6488 43.7C82.9688 43.3 82.4221 42.72 82.0088 41.96C81.5954 41.2 81.3888 40.28 81.3888 39.2V38.88C81.3888 37.8 81.5954 36.88 82.0088 36.12C82.4221 35.36 82.9688 34.7867 83.6488 34.4C84.3288 34 85.0688 33.8 85.8688 33.8C86.4688 33.8 86.9688 33.8733 87.3688 34.02C87.7821 34.1533 88.1154 34.3267 88.3688 34.54C88.6221 34.7533 88.8154 34.98 88.9488 35.22H89.3088V30H91.8288V44H89.3488V42.8H88.9888C88.7621 43.1733 88.4088 43.5133 87.9288 43.82C87.4621 44.1267 86.7754 44.28 85.8688 44.28ZM86.6288 42.08C87.4021 42.08 88.0488 41.8333 88.5688 41.34C89.0888 40.8333 89.3488 40.1 89.3488 39.14V38.94C89.3488 37.98 89.0888 37.2533 88.5688 36.76C88.0621 36.2533 87.4154 36 86.6288 36C85.8554 36 85.2088 36.2533 84.6888 36.76C84.1688 37.2533 83.9088 37.98 83.9088 38.94V39.14C83.9088 40.1 84.1688 40.8333 84.6888 41.34C85.2088 41.8333 85.8554 42.08 86.6288 42.08ZM97.7027 44.28C96.996 44.28 96.3627 44.16 95.8027 43.92C95.2427 43.6667 94.796 43.3067 94.4627 42.84C94.1427 42.36 93.9827 41.78 93.9827 41.1C93.9827 40.42 94.1427 39.8533 94.4627 39.4C94.796 38.9333 95.2493 38.5867 95.8227 38.36C96.4093 38.12 97.076 38 97.8227 38H100.543V37.44C100.543 36.9733 100.396 36.5933 100.103 36.3C99.8093 35.9933 99.3427 35.84 98.7027 35.84C98.076 35.84 97.6093 35.9867 97.3027 36.28C96.996 36.56 96.796 36.9267 96.7027 37.38L94.3827 36.6C94.5427 36.0933 94.796 35.6333 95.1427 35.22C95.5027 34.7933 95.976 34.4533 96.5627 34.2C97.1627 33.9333 97.8893 33.8 98.7427 33.8C100.049 33.8 101.083 34.1267 101.843 34.78C102.603 35.4333 102.983 36.38 102.983 37.62V41.32C102.983 41.72 103.169 41.92 103.543 41.92H104.343V44H102.663C102.169 44 101.763 43.88 101.443 43.64C101.123 43.4 100.963 43.08 100.963 42.68V42.66H100.583C100.529 42.82 100.409 43.0333 100.223 43.3C100.036 43.5533 99.7427 43.78 99.3427 43.98C98.9427 44.18 98.396 44.28 97.7027 44.28ZM98.1427 42.24C98.8493 42.24 99.4227 42.0467 99.8627 41.66C100.316 41.26 100.543 40.7333 100.543 40.08V39.88H98.0027C97.536 39.88 97.1693 39.98 96.9027 40.18C96.636 40.38 96.5027 40.66 96.5027 41.02C96.5027 41.38 96.6427 41.6733 96.9227 41.9C97.2027 42.1267 97.6093 42.24 98.1427 42.24ZM111.183 44V30H113.823V44H111.183ZM120.657 44.28C119.363 44.28 118.303 44 117.477 43.44C116.65 42.88 116.15 42.08 115.977 41.04L118.297 40.44C118.39 40.9067 118.543 41.2733 118.757 41.54C118.983 41.8067 119.257 42 119.577 42.12C119.91 42.2267 120.27 42.28 120.657 42.28C121.243 42.28 121.677 42.18 121.957 41.98C122.237 41.7667 122.377 41.5067 122.377 41.2C122.377 40.8933 122.243 40.66 121.977 40.5C121.71 40.3267 121.283 40.1867 120.697 40.08L120.137 39.98C119.443 39.8467 118.81 39.6667 118.237 39.44C117.663 39.2 117.203 38.8733 116.857 38.46C116.51 38.0467 116.337 37.5133 116.337 36.86C116.337 35.8733 116.697 35.12 117.417 34.6C118.137 34.0667 119.083 33.8 120.257 33.8C121.363 33.8 122.283 34.0467 123.017 34.54C123.75 35.0333 124.23 35.68 124.457 36.48L122.117 37.2C122.01 36.6933 121.79 36.3333 121.457 36.12C121.137 35.9067 120.737 35.8 120.257 35.8C119.777 35.8 119.41 35.8867 119.157 36.06C118.903 36.22 118.777 36.4467 118.777 36.74C118.777 37.06 118.91 37.3 119.177 37.46C119.443 37.6067 119.803 37.72 120.257 37.8L120.817 37.9C121.563 38.0333 122.237 38.2133 122.837 38.44C123.45 38.6533 123.93 38.9667 124.277 39.38C124.637 39.78 124.817 40.3267 124.817 41.02C124.817 42.06 124.437 42.8667 123.677 43.44C122.93 44 121.923 44.28 120.657 44.28ZM127.025 44V34.08H129.505V35.2H129.865C130.012 34.8 130.252 34.5067 130.585 34.32C130.932 34.1333 131.332 34.04 131.785 34.04H132.985V36.28H131.745C131.105 36.28 130.578 36.4533 130.165 36.8C129.752 37.1333 129.545 37.6533 129.545 38.36V44H127.025ZM137.8 44.28C137.094 44.28 136.46 44.16 135.9 43.92C135.34 43.6667 134.894 43.3067 134.56 42.84C134.24 42.36 134.08 41.78 134.08 41.1C134.08 40.42 134.24 39.8533 134.56 39.4C134.894 38.9333 135.347 38.5867 135.92 38.36C136.507 38.12 137.174 38 137.92 38H140.64V37.44C140.64 36.9733 140.494 36.5933 140.2 36.3C139.907 35.9933 139.44 35.84 138.8 35.84C138.174 35.84 137.707 35.9867 137.4 36.28C137.094 36.56 136.894 36.9267 136.8 37.38L134.48 36.6C134.64 36.0933 134.894 35.6333 135.24 35.22C135.6 34.7933 136.074 34.4533 136.66 34.2C137.26 33.9333 137.987 33.8 138.84 33.8C140.147 33.8 141.18 34.1267 141.94 34.78C142.7 35.4333 143.08 36.38 143.08 37.62V41.32C143.08 41.72 143.267 41.92 143.64 41.92H144.44V44H142.76C142.267 44 141.86 43.88 141.54 43.64C141.22 43.4 141.06 43.08 141.06 42.68V42.66H140.68C140.627 42.82 140.507 43.0333 140.32 43.3C140.134 43.5533 139.84 43.78 139.44 43.98C139.04 44.18 138.494 44.28 137.8 44.28ZM138.24 42.24C138.947 42.24 139.52 42.0467 139.96 41.66C140.414 41.26 140.64 40.7333 140.64 40.08V39.88H138.1C137.634 39.88 137.267 39.98 137 40.18C136.734 40.38 136.6 40.66 136.6 41.02C136.6 41.38 136.74 41.6733 137.02 41.9C137.3 42.1267 137.707 42.24 138.24 42.24ZM145.975 36.14V34.78H146.755C147.368 34.78 147.675 34.4733 147.675 33.86V33.22H147.335C146.801 33.22 146.355 33.06 145.995 32.74C145.648 32.42 145.475 32.0133 145.475 31.52C145.475 30.9867 145.648 30.5533 145.995 30.22C146.355 29.8867 146.801 29.72 147.335 29.72C147.881 29.72 148.328 29.8933 148.675 30.24C149.021 30.5733 149.195 31.0267 149.195 31.6V33.9C149.195 35.3933 148.448 36.14 146.955 36.14H145.975ZM156.672 44V30H161.572L163.992 42.2H164.352L166.772 30H171.672V44H169.112V31.94H168.752L166.352 44H161.992L159.592 31.94H159.232V44H156.672ZM174.388 44V34.08H176.908V44H174.388ZM175.648 32.92C175.195 32.92 174.808 32.7733 174.488 32.48C174.182 32.1867 174.028 31.8 174.028 31.32C174.028 30.84 174.182 30.4533 174.488 30.16C174.808 29.8667 175.195 29.72 175.648 29.72C176.115 29.72 176.502 29.8667 176.808 30.16C177.115 30.4533 177.268 30.84 177.268 31.32C177.268 31.8 177.115 32.1867 176.808 32.48C176.502 32.7733 176.115 32.92 175.648 32.92ZM179.881 36.14V34.78H180.661C181.274 34.78 181.581 34.4733 181.581 33.86V33.22H181.241C180.707 33.22 180.261 33.06 179.901 32.74C179.554 32.42 179.381 32.0133 179.381 31.52C179.381 30.9867 179.554 30.5533 179.901 30.22C180.261 29.8867 180.707 29.72 181.241 29.72C181.787 29.72 182.234 29.8933 182.581 30.24C182.927 30.5733 183.101 31.0267 183.101 31.6V33.9C183.101 35.3933 182.354 36.14 180.861 36.14H179.881ZM185.58 44V34.08H188.06V35.2H188.42C188.566 34.8 188.806 34.5067 189.14 34.32C189.486 34.1333 189.886 34.04 190.34 34.04H191.54V36.28H190.3C189.66 36.28 189.133 36.4533 188.72 36.8C188.306 37.1333 188.1 37.6533 188.1 38.36V44H185.58ZM196.355 44.28C195.648 44.28 195.015 44.16 194.455 43.92C193.895 43.6667 193.448 43.3067 193.115 42.84C192.795 42.36 192.635 41.78 192.635 41.1C192.635 40.42 192.795 39.8533 193.115 39.4C193.448 38.9333 193.902 38.5867 194.475 38.36C195.062 38.12 195.728 38 196.475 38H199.195V37.44C199.195 36.9733 199.048 36.5933 198.755 36.3C198.462 35.9933 197.995 35.84 197.355 35.84C196.728 35.84 196.262 35.9867 195.955 36.28C195.648 36.56 195.448 36.9267 195.355 37.38L193.035 36.6C193.195 36.0933 193.448 35.6333 193.795 35.22C194.155 34.7933 194.628 34.4533 195.215 34.2C195.815 33.9333 196.542 33.8 197.395 33.8C198.702 33.8 199.735 34.1267 200.495 34.78C201.255 35.4333 201.635 36.38 201.635 37.62V41.32C201.635 41.72 201.822 41.92 202.195 41.92H202.995V44H201.315C200.822 44 200.415 43.88 200.095 43.64C199.775 43.4 199.615 43.08 199.615 42.68V42.66H199.235C199.182 42.82 199.062 43.0333 198.875 43.3C198.688 43.5533 198.395 43.78 197.995 43.98C197.595 44.18 197.048 44.28 196.355 44.28ZM196.795 42.24C197.502 42.24 198.075 42.0467 198.515 41.66C198.968 41.26 199.195 40.7333 199.195 40.08V39.88H196.655C196.188 39.88 195.822 39.98 195.555 40.18C195.288 40.38 195.155 40.66 195.155 41.02C195.155 41.38 195.295 41.6733 195.575 41.9C195.855 42.1267 196.262 42.24 196.795 42.24ZM202.997 48V45.84H204.318C204.691 45.84 204.878 45.64 204.878 45.24V34.08H207.398V45.76C207.398 46.44 207.198 46.98 206.798 47.38C206.398 47.7933 205.864 48 205.198 48H202.997ZM206.138 32.92C205.684 32.92 205.298 32.7733 204.978 32.48C204.671 32.1867 204.518 31.8 204.518 31.32C204.518 30.84 204.671 30.4533 204.978 30.16C205.298 29.8667 205.684 29.72 206.138 29.72C206.604 29.72 206.991 29.8667 207.298 30.16C207.604 30.4533 207.758 30.84 207.758 31.32C207.758 31.8 207.604 32.1867 207.298 32.48C206.991 32.7733 206.604 32.92 206.138 32.92ZM215.187 44V30H223.987V32.4H217.827V35.78H223.507V38.18H217.827V44H215.187ZM230.393 44.28C229.406 44.28 228.533 44.0733 227.773 43.66C227.026 43.2333 226.439 42.64 226.013 41.88C225.599 41.1067 225.393 40.2 225.393 39.16V38.92C225.393 37.88 225.599 36.98 226.013 36.22C226.426 35.4467 227.006 34.8533 227.753 34.44C228.499 34.0133 229.366 33.8 230.353 33.8C231.326 33.8 232.173 34.02 232.893 34.46C233.613 34.8867 234.173 35.4867 234.573 36.26C234.973 37.02 235.173 37.9067 235.173 38.92V39.78H227.953C227.979 40.46 228.233 41.0133 228.713 41.44C229.193 41.8667 229.779 42.08 230.473 42.08C231.179 42.08 231.699 41.9267 232.033 41.62C232.366 41.3133 232.619 40.9733 232.793 40.6L234.853 41.68C234.666 42.0267 234.393 42.4067 234.033 42.82C233.686 43.22 233.219 43.5667 232.633 43.86C232.046 44.14 231.299 44.28 230.393 44.28ZM227.973 37.9H232.613C232.559 37.3267 232.326 36.8667 231.913 36.52C231.513 36.1733 230.986 36 230.333 36C229.653 36 229.113 36.1733 228.713 36.52C228.313 36.8667 228.066 37.3267 227.973 37.9ZM241.536 44.28C240.242 44.28 239.182 44 238.356 43.44C237.529 42.88 237.029 42.08 236.856 41.04L239.176 40.44C239.269 40.9067 239.422 41.2733 239.636 41.54C239.862 41.8067 240.136 42 240.456 42.12C240.789 42.2267 241.149 42.28 241.536 42.28C242.122 42.28 242.556 42.18 242.836 41.98C243.116 41.7667 243.256 41.5067 243.256 41.2C243.256 40.8933 243.122 40.66 242.856 40.5C242.589 40.3267 242.162 40.1867 241.576 40.08L241.016 39.98C240.322 39.8467 239.689 39.6667 239.116 39.44C238.542 39.2 238.082 38.8733 237.736 38.46C237.389 38.0467 237.216 37.5133 237.216 36.86C237.216 35.8733 237.576 35.12 238.296 34.6C239.016 34.0667 239.962 33.8 241.136 33.8C242.242 33.8 243.162 34.0467 243.896 34.54C244.629 35.0333 245.109 35.68 245.336 36.48L242.996 37.2C242.889 36.6933 242.669 36.3333 242.336 36.12C242.016 35.9067 241.616 35.8 241.136 35.8C240.656 35.8 240.289 35.8867 240.036 36.06C239.782 36.22 239.656 36.4467 239.656 36.74C239.656 37.06 239.789 37.3 240.056 37.46C240.322 37.6067 240.682 37.72 241.136 37.8L241.696 37.9C242.442 38.0333 243.116 38.2133 243.716 38.44C244.329 38.6533 244.809 38.9667 245.156 39.38C245.516 39.78 245.696 40.3267 245.696 41.02C245.696 42.06 245.316 42.8667 244.556 43.44C243.809 44 242.802 44.28 241.536 44.28ZM251.509 44C250.855 44 250.322 43.8 249.909 43.4C249.509 42.9867 249.309 42.44 249.309 41.76V36.16H246.829V34.08H249.309V31H251.829V34.08H254.549V36.16H251.829V41.32C251.829 41.72 252.015 41.92 252.389 41.92H254.309V44H251.509ZM258.41 44.28C257.876 44.28 257.423 44.1067 257.05 43.76C256.69 43.4 256.51 42.94 256.51 42.38C256.51 41.82 256.69 41.3667 257.05 41.02C257.423 40.66 257.876 40.48 258.41 40.48C258.956 40.48 259.41 40.66 259.77 41.02C260.13 41.3667 260.31 41.82 260.31 42.38C260.31 42.94 260.13 43.4 259.77 43.76C259.41 44.1067 258.956 44.28 258.41 44.28Z" fill="black"/>
<rect x="183" y="90" width="77" height="27" fill="#92A760"/>
<path d="M265.016 95.0135C260.922 99.904 255.052 102.968 248.699 103.531C242.346 104.094 236.029 102.11 231.139 98.0159C226.248 93.9217 223.185 88.0524 222.622 81.6993C222.058 75.3461 224.042 69.0294 228.136 64.1389L235.756 70.5181C233.354 73.3877 232.19 77.0941 232.52 80.8219C232.851 84.5498 234.649 87.9937 237.518 90.396C240.388 92.7984 244.094 93.9624 247.822 93.632C251.55 93.3016 254.994 91.5039 257.396 88.6343L265.016 95.0135Z" fill="#F2C41E"/>
</svg>
