<svg width="360" height="327" viewBox="0 0 360 327" fill="none" xmlns="http://www.w3.org/2000/svg">
<rect x="263" width="97" height="184" fill="#92A760"/>
<path d="M0 154H121V214.5C121 247.913 93.9132 275 60.5 275H0V154Z" fill="#92A760"/>
<path d="M-5 154H50V181.5C50 196.688 37.6878 209 22.5 209H-5V154Z" fill="#436129"/>
<path d="M217 183.5C217 177.525 218.177 171.608 220.463 166.088C222.75 160.568 226.102 155.552 230.327 151.327C234.552 147.102 239.568 143.75 245.088 141.463C250.608 139.177 256.525 138 262.5 138L262.5 183.5H217Z" fill="#F2C41E"/>
<path d="M101.846 89.1658C94.1001 98.4187 82.9954 104.215 70.9752 105.281C58.9549 106.346 47.0038 102.593 37.7509 94.8464C28.498 87.1001 22.7013 75.9954 21.636 63.9752C20.5707 51.9549 24.324 40.0038 32.0703 30.7509L46.4872 42.8204C41.9419 48.2497 39.7396 55.2622 40.3647 62.3153C40.9898 69.3684 44.3911 75.8842 49.8204 80.4295C55.2497 84.9748 62.2622 87.1771 69.3153 86.552C76.3684 85.9269 82.8842 82.5256 87.4295 77.0963L101.846 89.1658Z" fill="#F2C41E"/>
<path d="M99 154.5C99 148 97.7196 141.563 95.232 135.557C92.7444 129.552 89.0983 124.095 84.5018 119.498C79.9053 114.902 74.4484 111.256 68.4428 108.768C62.4372 106.28 56.0004 105 49.5 105L49.5 154.5H99Z" fill="#CCD591"/>
<path d="M0 154.5C0 148 1.28036 141.563 3.76796 135.557C6.25557 129.552 9.90172 124.095 14.4982 119.498C19.0947 114.902 24.5516 111.256 30.5572 108.768C36.5628 106.28 42.9996 105 49.5 105L49.5 154.5H0Z" fill="#436129"/>
<rect x="121" y="107" width="48" height="199" fill="#CCD591"/>
<path d="M217 229.5C217 223.525 218.177 217.608 220.463 212.088C222.75 206.568 226.102 201.552 230.327 197.327C234.552 193.102 239.568 189.75 245.088 187.463C250.608 185.177 256.525 184 262.5 184L262.5 229.5H217Z" fill="#F2C41E"/>
<path d="M215 229.5C215 223.525 213.823 217.608 211.537 212.088C209.25 206.568 205.898 201.552 201.673 197.327C197.448 193.102 192.432 189.75 186.912 187.463C181.392 185.177 175.475 184 169.5 184L169.5 229.5H215Z" fill="#92A760"/>
<path d="M169 106.5C169 100.525 170.177 94.6082 172.463 89.0879C174.75 83.5676 178.102 78.5517 182.327 74.3266C186.552 70.1016 191.568 66.7501 197.088 64.4635C202.608 62.1769 208.525 61 214.5 61L214.5 106.5H169Z" fill="#436129"/>
<path d="M214 278.5C214 272.131 215.254 265.824 217.692 259.94C220.129 254.056 223.702 248.709 228.205 244.205C232.709 239.702 238.056 236.129 243.94 233.692C249.824 231.254 256.131 230 262.5 230L262.5 278.5H214Z" fill="#436129"/>
</svg>
