<svg width="305" height="128" viewBox="0 0 305 128" fill="none" xmlns="http://www.w3.org/2000/svg">
<rect width="305" height="128" rx="15" fill="#436129"/>
<path d="M24.5703 88.5098V82.4688H25.6953V88.5098C25.6953 89.0723 25.5801 89.5469 25.3496 89.9336C25.1191 90.3203 24.8008 90.6152 24.3945 90.8184C23.9922 91.0176 23.5293 91.1172 23.0059 91.1172C22.4824 91.1172 22.0176 91.0273 21.6113 90.8477C21.2051 90.668 20.8867 90.3945 20.6562 90.0273C20.4258 89.6602 20.3105 89.1973 20.3105 88.6387H21.4414C21.4414 88.998 21.5078 89.293 21.6406 89.5234C21.7734 89.7539 21.957 89.9238 22.1914 90.0332C22.4297 90.1426 22.7012 90.1973 23.0059 90.1973C23.3027 90.1973 23.5684 90.1348 23.8027 90.0098C24.041 89.8809 24.2285 89.6914 24.3652 89.4414C24.502 89.1875 24.5703 88.877 24.5703 88.5098ZM31.1855 89.916V86.6523C31.1855 86.4023 31.1348 86.1855 31.0332 86.002C30.9355 85.8145 30.7871 85.6699 30.5879 85.5684C30.3887 85.4668 30.1426 85.416 29.8496 85.416C29.5762 85.416 29.3359 85.4629 29.1289 85.5566C28.9258 85.6504 28.7656 85.7734 28.6484 85.9258C28.5352 86.0781 28.4785 86.2422 28.4785 86.418H27.3945C27.3945 86.1914 27.4531 85.9668 27.5703 85.7441C27.6875 85.5215 27.8555 85.3203 28.0742 85.1406C28.2969 84.957 28.5625 84.8125 28.8711 84.707C29.1836 84.5977 29.5312 84.543 29.9141 84.543C30.375 84.543 30.7812 84.6211 31.1328 84.7773C31.4883 84.9336 31.7656 85.1699 31.9648 85.4863C32.168 85.7988 32.2695 86.1914 32.2695 86.6641V89.6172C32.2695 89.8281 32.2871 90.0527 32.3223 90.291C32.3613 90.5293 32.418 90.7344 32.4922 90.9062V91H31.3613C31.3066 90.875 31.2637 90.709 31.2324 90.502C31.2012 90.291 31.1855 90.0957 31.1855 89.916ZM31.373 87.1562L31.3848 87.918H30.2891C29.9805 87.918 29.7051 87.9434 29.4629 87.9941C29.2207 88.041 29.0176 88.1133 28.8535 88.2109C28.6895 88.3086 28.5645 88.4316 28.4785 88.5801C28.3926 88.7246 28.3496 88.8945 28.3496 89.0898C28.3496 89.2891 28.3945 89.4707 28.4844 89.6348C28.5742 89.7988 28.709 89.9297 28.8887 90.0273C29.0723 90.1211 29.2969 90.168 29.5625 90.168C29.8945 90.168 30.1875 90.0977 30.4414 89.957C30.6953 89.8164 30.8965 89.6445 31.0449 89.4414C31.1973 89.2383 31.2793 89.041 31.291 88.8496L31.7539 89.3711C31.7266 89.5352 31.6523 89.7168 31.5312 89.916C31.4102 90.1152 31.248 90.3066 31.0449 90.4902C30.8457 90.6699 30.6074 90.8203 30.3301 90.9414C30.0566 91.0586 29.748 91.1172 29.4043 91.1172C28.9746 91.1172 28.5977 91.0332 28.2734 90.8652C27.9531 90.6973 27.7031 90.4727 27.5234 90.1914C27.3477 89.9062 27.2598 89.5879 27.2598 89.2363C27.2598 88.8965 27.3262 88.5977 27.459 88.3398C27.5918 88.0781 27.7832 87.8613 28.0332 87.6895C28.2832 87.5137 28.584 87.3809 28.9355 87.291C29.2871 87.2012 29.6797 87.1562 30.1133 87.1562H31.373ZM37.9707 89.7695V82H39.0605V91H38.0645L37.9707 89.7695ZM33.7051 87.9004V87.7773C33.7051 87.293 33.7637 86.8535 33.8809 86.459C34.002 86.0605 34.1719 85.7188 34.3906 85.4336C34.6133 85.1484 34.877 84.9297 35.1816 84.7773C35.4902 84.6211 35.834 84.543 36.2129 84.543C36.6113 84.543 36.959 84.6133 37.2559 84.7539C37.5566 84.8906 37.8105 85.0918 38.0176 85.3574C38.2285 85.6191 38.3945 85.9355 38.5156 86.3066C38.6367 86.6777 38.7207 87.0977 38.7676 87.5664V88.1055C38.7246 88.5703 38.6406 88.9883 38.5156 89.3594C38.3945 89.7305 38.2285 90.0469 38.0176 90.3086C37.8105 90.5703 37.5566 90.7715 37.2559 90.9121C36.9551 91.0488 36.6035 91.1172 36.2012 91.1172C35.8301 91.1172 35.4902 91.0371 35.1816 90.877C34.877 90.7168 34.6133 90.4922 34.3906 90.2031C34.1719 89.9141 34.002 89.5742 33.8809 89.1836C33.7637 88.7891 33.7051 88.3613 33.7051 87.9004ZM34.7949 87.7773V87.9004C34.7949 88.2168 34.8262 88.5137 34.8887 88.791C34.9551 89.0684 35.0566 89.3125 35.1934 89.5234C35.3301 89.7344 35.5039 89.9004 35.7148 90.0215C35.9258 90.1387 36.1777 90.1973 36.4707 90.1973C36.8301 90.1973 37.125 90.1211 37.3555 89.9688C37.5898 89.8164 37.7773 89.6152 37.918 89.3652C38.0586 89.1152 38.168 88.8438 38.2461 88.5508V87.1387C38.1992 86.9238 38.1309 86.7168 38.041 86.5176C37.9551 86.3145 37.8418 86.1348 37.7012 85.9785C37.5645 85.8184 37.3945 85.6914 37.1914 85.5977C36.9922 85.5039 36.7559 85.457 36.4824 85.457C36.1855 85.457 35.9297 85.5195 35.7148 85.6445C35.5039 85.7656 35.3301 85.9336 35.1934 86.1484C35.0566 86.3594 34.9551 86.6055 34.8887 86.8867C34.8262 87.1641 34.7949 87.4609 34.7949 87.7773ZM41.9258 84.6602V91H40.8359V84.6602H41.9258ZM40.7539 82.9785C40.7539 82.8027 40.8066 82.6543 40.9121 82.5332C41.0215 82.4121 41.1816 82.3516 41.3926 82.3516C41.5996 82.3516 41.7578 82.4121 41.8672 82.5332C41.9805 82.6543 42.0371 82.8027 42.0371 82.9785C42.0371 83.1465 41.9805 83.291 41.8672 83.4121C41.7578 83.5293 41.5996 83.5879 41.3926 83.5879C41.1816 83.5879 41.0215 83.5293 40.9121 83.4121C40.8066 83.291 40.7539 83.1465 40.7539 82.9785ZM44.8438 82V91H43.7539V82H44.8438ZM50.3223 89.916V86.6523C50.3223 86.4023 50.2715 86.1855 50.1699 86.002C50.0723 85.8145 49.9238 85.6699 49.7246 85.5684C49.5254 85.4668 49.2793 85.416 48.9863 85.416C48.7129 85.416 48.4727 85.4629 48.2656 85.5566C48.0625 85.6504 47.9023 85.7734 47.7852 85.9258C47.6719 86.0781 47.6152 86.2422 47.6152 86.418H46.5312C46.5312 86.1914 46.5898 85.9668 46.707 85.7441C46.8242 85.5215 46.9922 85.3203 47.2109 85.1406C47.4336 84.957 47.6992 84.8125 48.0078 84.707C48.3203 84.5977 48.668 84.543 49.0508 84.543C49.5117 84.543 49.918 84.6211 50.2695 84.7773C50.625 84.9336 50.9023 85.1699 51.1016 85.4863C51.3047 85.7988 51.4062 86.1914 51.4062 86.6641V89.6172C51.4062 89.8281 51.4238 90.0527 51.459 90.291C51.498 90.5293 51.5547 90.7344 51.6289 90.9062V91H50.498C50.4434 90.875 50.4004 90.709 50.3691 90.502C50.3379 90.291 50.3223 90.0957 50.3223 89.916ZM50.5098 87.1562L50.5215 87.918H49.4258C49.1172 87.918 48.8418 87.9434 48.5996 87.9941C48.3574 88.041 48.1543 88.1133 47.9902 88.2109C47.8262 88.3086 47.7012 88.4316 47.6152 88.5801C47.5293 88.7246 47.4863 88.8945 47.4863 89.0898C47.4863 89.2891 47.5312 89.4707 47.6211 89.6348C47.7109 89.7988 47.8457 89.9297 48.0254 90.0273C48.209 90.1211 48.4336 90.168 48.6992 90.168C49.0312 90.168 49.3242 90.0977 49.5781 89.957C49.832 89.8164 50.0332 89.6445 50.1816 89.4414C50.334 89.2383 50.416 89.041 50.4277 88.8496L50.8906 89.3711C50.8633 89.5352 50.7891 89.7168 50.668 89.916C50.5469 90.1152 50.3848 90.3066 50.1816 90.4902C49.9824 90.6699 49.7441 90.8203 49.4668 90.9414C49.1934 91.0586 48.8848 91.1172 48.541 91.1172C48.1113 91.1172 47.7344 91.0332 47.4102 90.8652C47.0898 90.6973 46.8398 90.4727 46.6602 90.1914C46.4844 89.9062 46.3965 89.5879 46.3965 89.2363C46.3965 88.8965 46.4629 88.5977 46.5957 88.3398C46.7285 88.0781 46.9199 87.8613 47.1699 87.6895C47.4199 87.5137 47.7207 87.3809 48.0723 87.291C48.4238 87.2012 48.8164 87.1562 49.25 87.1562H50.5098ZM54.1953 82V91H53.1113V82H54.1953ZM53.9375 87.5898L53.4863 87.5723C53.4902 87.1387 53.5547 86.7383 53.6797 86.3711C53.8047 86 53.9805 85.6777 54.207 85.4043C54.4336 85.1309 54.7031 84.9199 55.0156 84.7715C55.332 84.6191 55.6816 84.543 56.0645 84.543C56.377 84.543 56.6582 84.5859 56.9082 84.6719C57.1582 84.7539 57.3711 84.8867 57.5469 85.0703C57.7266 85.2539 57.8633 85.4922 57.957 85.7852C58.0508 86.0742 58.0977 86.4277 58.0977 86.8457V91H57.0078V86.834C57.0078 86.502 56.959 86.2363 56.8613 86.0371C56.7637 85.834 56.6211 85.6875 56.4336 85.5977C56.2461 85.5039 56.0156 85.457 55.7422 85.457C55.4727 85.457 55.2266 85.5137 55.0039 85.627C54.7852 85.7402 54.5957 85.8965 54.4355 86.0957C54.2793 86.2949 54.1562 86.5234 54.0664 86.7812C53.9805 87.0352 53.9375 87.3047 53.9375 87.5898ZM62.6914 82H63.7812V89.7695L63.6875 91H62.6914V82ZM68.0645 87.7773V87.9004C68.0645 88.3613 68.0098 88.7891 67.9004 89.1836C67.791 89.5742 67.6309 89.9141 67.4199 90.2031C67.209 90.4922 66.9512 90.7168 66.6465 90.877C66.3418 91.0371 65.9922 91.1172 65.5977 91.1172C65.1953 91.1172 64.8418 91.0488 64.5371 90.9121C64.2363 90.7715 63.9824 90.5703 63.7754 90.3086C63.5684 90.0469 63.4023 89.7305 63.2773 89.3594C63.1562 88.9883 63.0723 88.5703 63.0254 88.1055V87.5664C63.0723 87.0977 63.1562 86.6777 63.2773 86.3066C63.4023 85.9355 63.5684 85.6191 63.7754 85.3574C63.9824 85.0918 64.2363 84.8906 64.5371 84.7539C64.8379 84.6133 65.1875 84.543 65.5859 84.543C65.9844 84.543 66.3379 84.6211 66.6465 84.7773C66.9551 84.9297 67.2129 85.1484 67.4199 85.4336C67.6309 85.7188 67.791 86.0605 67.9004 86.459C68.0098 86.8535 68.0645 87.293 68.0645 87.7773ZM66.9746 87.9004V87.7773C66.9746 87.4609 66.9453 87.1641 66.8867 86.8867C66.8281 86.6055 66.7344 86.3594 66.6055 86.1484C66.4766 85.9336 66.3066 85.7656 66.0957 85.6445C65.8848 85.5195 65.625 85.457 65.3164 85.457C65.043 85.457 64.8047 85.5039 64.6016 85.5977C64.4023 85.6914 64.2324 85.8184 64.0918 85.9785C63.9512 86.1348 63.8359 86.3145 63.7461 86.5176C63.6602 86.7168 63.5957 86.9238 63.5527 87.1387V88.5508C63.6152 88.8242 63.7168 89.0879 63.8574 89.3418C64.002 89.5918 64.1934 89.7969 64.4316 89.957C64.6738 90.1172 64.9727 90.1973 65.3281 90.1973C65.6211 90.1973 65.8711 90.1387 66.0781 90.0215C66.2891 89.9004 66.459 89.7344 66.5879 89.5234C66.7207 89.3125 66.8184 89.0684 66.8809 88.791C66.9434 88.5137 66.9746 88.2168 66.9746 87.9004ZM73.1738 89.916V86.6523C73.1738 86.4023 73.123 86.1855 73.0215 86.002C72.9238 85.8145 72.7754 85.6699 72.5762 85.5684C72.377 85.4668 72.1309 85.416 71.8379 85.416C71.5645 85.416 71.3242 85.4629 71.1172 85.5566C70.9141 85.6504 70.7539 85.7734 70.6367 85.9258C70.5234 86.0781 70.4668 86.2422 70.4668 86.418H69.3828C69.3828 86.1914 69.4414 85.9668 69.5586 85.7441C69.6758 85.5215 69.8438 85.3203 70.0625 85.1406C70.2852 84.957 70.5508 84.8125 70.8594 84.707C71.1719 84.5977 71.5195 84.543 71.9023 84.543C72.3633 84.543 72.7695 84.6211 73.1211 84.7773C73.4766 84.9336 73.7539 85.1699 73.9531 85.4863C74.1562 85.7988 74.2578 86.1914 74.2578 86.6641V89.6172C74.2578 89.8281 74.2754 90.0527 74.3105 90.291C74.3496 90.5293 74.4062 90.7344 74.4805 90.9062V91H73.3496C73.2949 90.875 73.252 90.709 73.2207 90.502C73.1895 90.291 73.1738 90.0957 73.1738 89.916ZM73.3613 87.1562L73.373 87.918H72.2773C71.9688 87.918 71.6934 87.9434 71.4512 87.9941C71.209 88.041 71.0059 88.1133 70.8418 88.2109C70.6777 88.3086 70.5527 88.4316 70.4668 88.5801C70.3809 88.7246 70.3379 88.8945 70.3379 89.0898C70.3379 89.2891 70.3828 89.4707 70.4727 89.6348C70.5625 89.7988 70.6973 89.9297 70.877 90.0273C71.0605 90.1211 71.2852 90.168 71.5508 90.168C71.8828 90.168 72.1758 90.0977 72.4297 89.957C72.6836 89.8164 72.8848 89.6445 73.0332 89.4414C73.1855 89.2383 73.2676 89.041 73.2793 88.8496L73.7422 89.3711C73.7148 89.5352 73.6406 89.7168 73.5195 89.916C73.3984 90.1152 73.2363 90.3066 73.0332 90.4902C72.834 90.6699 72.5957 90.8203 72.3184 90.9414C72.0449 91.0586 71.7363 91.1172 71.3926 91.1172C70.9629 91.1172 70.5859 91.0332 70.2617 90.8652C69.9414 90.6973 69.6914 90.4727 69.5117 90.1914C69.3359 89.9062 69.248 89.5879 69.248 89.2363C69.248 88.8965 69.3145 88.5977 69.4473 88.3398C69.5801 88.0781 69.7715 87.8613 70.0215 87.6895C70.2715 87.5137 70.5723 87.3809 70.9238 87.291C71.2754 87.2012 71.668 87.1562 72.1016 87.1562H73.3613ZM80.0703 84.6602H81.0547V90.8652C81.0547 91.4238 80.9414 91.9004 80.7148 92.2949C80.4883 92.6895 80.1719 92.9883 79.7656 93.1914C79.3633 93.3984 78.8984 93.502 78.3711 93.502C78.1523 93.502 77.8945 93.4668 77.5977 93.3965C77.3047 93.3301 77.0156 93.2148 76.7305 93.0508C76.4492 92.8906 76.2129 92.6738 76.0215 92.4004L76.5898 91.7559C76.8555 92.0762 77.1328 92.2988 77.4219 92.4238C77.7148 92.5488 78.0039 92.6113 78.2891 92.6113C78.6328 92.6113 78.9297 92.5469 79.1797 92.418C79.4297 92.2891 79.623 92.0977 79.7598 91.8438C79.9004 91.5938 79.9707 91.2852 79.9707 90.918V86.0547L80.0703 84.6602ZM75.7051 87.9004V87.7773C75.7051 87.293 75.7617 86.8535 75.875 86.459C75.9922 86.0605 76.1582 85.7188 76.373 85.4336C76.5918 85.1484 76.8555 84.9297 77.1641 84.7773C77.4727 84.6211 77.8203 84.543 78.207 84.543C78.6055 84.543 78.9531 84.6133 79.25 84.7539C79.5508 84.8906 79.8047 85.0918 80.0117 85.3574C80.2227 85.6191 80.3887 85.9355 80.5098 86.3066C80.6309 86.6777 80.7148 87.0977 80.7617 87.5664V88.1055C80.7188 88.5703 80.6348 88.9883 80.5098 89.3594C80.3887 89.7305 80.2227 90.0469 80.0117 90.3086C79.8047 90.5703 79.5508 90.7715 79.25 90.9121C78.9492 91.0488 78.5977 91.1172 78.1953 91.1172C77.8164 91.1172 77.4727 91.0371 77.1641 90.877C76.8594 90.7168 76.5977 90.4922 76.3789 90.2031C76.1602 89.9141 75.9922 89.5742 75.875 89.1836C75.7617 88.7891 75.7051 88.3613 75.7051 87.9004ZM76.7891 87.7773V87.9004C76.7891 88.2168 76.8203 88.5137 76.8828 88.791C76.9492 89.0684 77.0488 89.3125 77.1816 89.5234C77.3184 89.7344 77.4922 89.9004 77.7031 90.0215C77.9141 90.1387 78.166 90.1973 78.459 90.1973C78.8184 90.1973 79.1152 90.1211 79.3496 89.9688C79.584 89.8164 79.7695 89.6152 79.9062 89.3652C80.0469 89.1152 80.1562 88.8438 80.2344 88.5508V87.1387C80.1914 86.9238 80.125 86.7168 80.0352 86.5176C79.9492 86.3145 79.8359 86.1348 79.6953 85.9785C79.5586 85.8184 79.3887 85.6914 79.1855 85.5977C78.9824 85.5039 78.7441 85.457 78.4707 85.457C78.1738 85.457 77.918 85.5195 77.7031 85.6445C77.4922 85.7656 77.3184 85.9336 77.1816 86.1484C77.0488 86.3594 76.9492 86.6055 76.8828 86.8867C76.8203 87.1641 76.7891 87.4609 76.7891 87.7773ZM83.8789 84.6602V91H82.7891V84.6602H83.8789ZM82.707 82.9785C82.707 82.8027 82.7598 82.6543 82.8652 82.5332C82.9746 82.4121 83.1348 82.3516 83.3457 82.3516C83.5527 82.3516 83.7109 82.4121 83.8203 82.5332C83.9336 82.6543 83.9902 82.8027 83.9902 82.9785C83.9902 83.1465 83.9336 83.291 83.8203 83.4121C83.7109 83.5293 83.5527 83.5879 83.3457 83.5879C83.1348 83.5879 82.9746 83.5293 82.8652 83.4121C82.7598 83.291 82.707 83.1465 82.707 82.9785ZM89.3574 89.916V86.6523C89.3574 86.4023 89.3066 86.1855 89.2051 86.002C89.1074 85.8145 88.959 85.6699 88.7598 85.5684C88.5605 85.4668 88.3145 85.416 88.0215 85.416C87.748 85.416 87.5078 85.4629 87.3008 85.5566C87.0977 85.6504 86.9375 85.7734 86.8203 85.9258C86.707 86.0781 86.6504 86.2422 86.6504 86.418H85.5664C85.5664 86.1914 85.625 85.9668 85.7422 85.7441C85.8594 85.5215 86.0273 85.3203 86.2461 85.1406C86.4688 84.957 86.7344 84.8125 87.043 84.707C87.3555 84.5977 87.7031 84.543 88.0859 84.543C88.5469 84.543 88.9531 84.6211 89.3047 84.7773C89.6602 84.9336 89.9375 85.1699 90.1367 85.4863C90.3398 85.7988 90.4414 86.1914 90.4414 86.6641V89.6172C90.4414 89.8281 90.459 90.0527 90.4941 90.291C90.5332 90.5293 90.5898 90.7344 90.6641 90.9062V91H89.5332C89.4785 90.875 89.4355 90.709 89.4043 90.502C89.373 90.291 89.3574 90.0957 89.3574 89.916ZM89.5449 87.1562L89.5566 87.918H88.4609C88.1523 87.918 87.877 87.9434 87.6348 87.9941C87.3926 88.041 87.1895 88.1133 87.0254 88.2109C86.8613 88.3086 86.7363 88.4316 86.6504 88.5801C86.5645 88.7246 86.5215 88.8945 86.5215 89.0898C86.5215 89.2891 86.5664 89.4707 86.6562 89.6348C86.7461 89.7988 86.8809 89.9297 87.0605 90.0273C87.2441 90.1211 87.4688 90.168 87.7344 90.168C88.0664 90.168 88.3594 90.0977 88.6133 89.957C88.8672 89.8164 89.0684 89.6445 89.2168 89.4414C89.3691 89.2383 89.4512 89.041 89.4629 88.8496L89.9258 89.3711C89.8984 89.5352 89.8242 89.7168 89.7031 89.916C89.582 90.1152 89.4199 90.3066 89.2168 90.4902C89.0176 90.6699 88.7793 90.8203 88.502 90.9414C88.2285 91.0586 87.9199 91.1172 87.5762 91.1172C87.1465 91.1172 86.7695 91.0332 86.4453 90.8652C86.125 90.6973 85.875 90.4727 85.6953 90.1914C85.5195 89.9062 85.4316 89.5879 85.4316 89.2363C85.4316 88.8965 85.498 88.5977 85.6309 88.3398C85.7637 88.0781 85.9551 87.8613 86.2051 87.6895C86.4551 87.5137 86.7559 87.3809 87.1074 87.291C87.459 87.2012 87.8516 87.1562 88.2852 87.1562H89.5449ZM93.2305 86.0137V91H92.1465V84.6602H93.1719L93.2305 86.0137ZM92.9727 87.5898L92.5215 87.5723C92.5254 87.1387 92.5898 86.7383 92.7148 86.3711C92.8398 86 93.0156 85.6777 93.2422 85.4043C93.4688 85.1309 93.7383 84.9199 94.0508 84.7715C94.3672 84.6191 94.7168 84.543 95.0996 84.543C95.4121 84.543 95.6934 84.5859 95.9434 84.6719C96.1934 84.7539 96.4062 84.8867 96.582 85.0703C96.7617 85.2539 96.8984 85.4922 96.9922 85.7852C97.0859 86.0742 97.1328 86.4277 97.1328 86.8457V91H96.043V86.834C96.043 86.502 95.9941 86.2363 95.8965 86.0371C95.7988 85.834 95.6562 85.6875 95.4688 85.5977C95.2812 85.5039 95.0508 85.457 94.7773 85.457C94.5078 85.457 94.2617 85.5137 94.0391 85.627C93.8203 85.7402 93.6309 85.8965 93.4707 86.0957C93.3145 86.2949 93.1914 86.5234 93.1016 86.7812C93.0156 87.0352 92.9727 87.3047 92.9727 87.5898ZM105.752 89.7695V82H106.842V91H105.846L105.752 89.7695ZM101.486 87.9004V87.7773C101.486 87.293 101.545 86.8535 101.662 86.459C101.783 86.0605 101.953 85.7188 102.172 85.4336C102.395 85.1484 102.658 84.9297 102.963 84.7773C103.271 84.6211 103.615 84.543 103.994 84.543C104.393 84.543 104.74 84.6133 105.037 84.7539C105.338 84.8906 105.592 85.0918 105.799 85.3574C106.01 85.6191 106.176 85.9355 106.297 86.3066C106.418 86.6777 106.502 87.0977 106.549 87.5664V88.1055C106.506 88.5703 106.422 88.9883 106.297 89.3594C106.176 89.7305 106.01 90.0469 105.799 90.3086C105.592 90.5703 105.338 90.7715 105.037 90.9121C104.736 91.0488 104.385 91.1172 103.982 91.1172C103.611 91.1172 103.271 91.0371 102.963 90.877C102.658 90.7168 102.395 90.4922 102.172 90.2031C101.953 89.9141 101.783 89.5742 101.662 89.1836C101.545 88.7891 101.486 88.3613 101.486 87.9004ZM102.576 87.7773V87.9004C102.576 88.2168 102.607 88.5137 102.67 88.791C102.736 89.0684 102.838 89.3125 102.975 89.5234C103.111 89.7344 103.285 89.9004 103.496 90.0215C103.707 90.1387 103.959 90.1973 104.252 90.1973C104.611 90.1973 104.906 90.1211 105.137 89.9688C105.371 89.8164 105.559 89.6152 105.699 89.3652C105.84 89.1152 105.949 88.8438 106.027 88.5508V87.1387C105.98 86.9238 105.912 86.7168 105.822 86.5176C105.736 86.3145 105.623 86.1348 105.482 85.9785C105.346 85.8184 105.176 85.6914 104.973 85.5977C104.773 85.5039 104.537 85.457 104.264 85.457C103.967 85.457 103.711 85.5195 103.496 85.6445C103.285 85.7656 103.111 85.9336 102.975 86.1484C102.838 86.3594 102.736 86.6055 102.67 86.8867C102.607 87.1641 102.576 87.4609 102.576 87.7773ZM112.268 89.916V86.6523C112.268 86.4023 112.217 86.1855 112.115 86.002C112.018 85.8145 111.869 85.6699 111.67 85.5684C111.471 85.4668 111.225 85.416 110.932 85.416C110.658 85.416 110.418 85.4629 110.211 85.5566C110.008 85.6504 109.848 85.7734 109.73 85.9258C109.617 86.0781 109.561 86.2422 109.561 86.418H108.477C108.477 86.1914 108.535 85.9668 108.652 85.7441C108.77 85.5215 108.938 85.3203 109.156 85.1406C109.379 84.957 109.645 84.8125 109.953 84.707C110.266 84.5977 110.613 84.543 110.996 84.543C111.457 84.543 111.863 84.6211 112.215 84.7773C112.57 84.9336 112.848 85.1699 113.047 85.4863C113.25 85.7988 113.352 86.1914 113.352 86.6641V89.6172C113.352 89.8281 113.369 90.0527 113.404 90.291C113.443 90.5293 113.5 90.7344 113.574 90.9062V91H112.443C112.389 90.875 112.346 90.709 112.314 90.502C112.283 90.291 112.268 90.0957 112.268 89.916ZM112.455 87.1562L112.467 87.918H111.371C111.062 87.918 110.787 87.9434 110.545 87.9941C110.303 88.041 110.1 88.1133 109.936 88.2109C109.771 88.3086 109.646 88.4316 109.561 88.5801C109.475 88.7246 109.432 88.8945 109.432 89.0898C109.432 89.2891 109.477 89.4707 109.566 89.6348C109.656 89.7988 109.791 89.9297 109.971 90.0273C110.154 90.1211 110.379 90.168 110.645 90.168C110.977 90.168 111.27 90.0977 111.523 89.957C111.777 89.8164 111.979 89.6445 112.127 89.4414C112.279 89.2383 112.361 89.041 112.373 88.8496L112.836 89.3711C112.809 89.5352 112.734 89.7168 112.613 89.916C112.492 90.1152 112.33 90.3066 112.127 90.4902C111.928 90.6699 111.689 90.8203 111.412 90.9414C111.139 91.0586 110.83 91.1172 110.486 91.1172C110.057 91.1172 109.68 91.0332 109.355 90.8652C109.035 90.6973 108.785 90.4727 108.605 90.1914C108.43 89.9062 108.342 89.5879 108.342 89.2363C108.342 88.8965 108.408 88.5977 108.541 88.3398C108.674 88.0781 108.865 87.8613 109.115 87.6895C109.365 87.5137 109.666 87.3809 110.018 87.291C110.369 87.2012 110.762 87.1562 111.195 87.1562H112.455ZM116.141 85.6562V91H115.057V84.6602H116.111L116.141 85.6562ZM118.121 84.625L118.115 85.6328C118.025 85.6133 117.939 85.6016 117.857 85.5977C117.779 85.5898 117.689 85.5859 117.588 85.5859C117.338 85.5859 117.117 85.625 116.926 85.7031C116.734 85.7812 116.572 85.8906 116.439 86.0312C116.307 86.1719 116.201 86.3398 116.123 86.5352C116.049 86.7266 116 86.9375 115.977 87.168L115.672 87.3438C115.672 86.9609 115.709 86.6016 115.783 86.2656C115.861 85.9297 115.98 85.6328 116.141 85.375C116.301 85.1133 116.504 84.9102 116.75 84.7656C117 84.6172 117.297 84.543 117.641 84.543C117.719 84.543 117.809 84.5527 117.91 84.5723C118.012 84.5879 118.082 84.6055 118.121 84.625ZM120.301 84.6602V91H119.211V84.6602H120.301ZM119.129 82.9785C119.129 82.8027 119.182 82.6543 119.287 82.5332C119.396 82.4121 119.557 82.3516 119.768 82.3516C119.975 82.3516 120.133 82.4121 120.242 82.5332C120.355 82.6543 120.412 82.8027 120.412 82.9785C120.412 83.1465 120.355 83.291 120.242 83.4121C120.133 83.5293 119.975 83.5879 119.768 83.5879C119.557 83.5879 119.396 83.5293 119.287 83.4121C119.182 83.291 119.129 83.1465 119.129 82.9785ZM128.709 89.3184C128.709 89.1621 128.674 89.0176 128.604 88.8848C128.537 88.748 128.398 88.625 128.188 88.5156C127.98 88.4023 127.668 88.3047 127.25 88.2227C126.898 88.1484 126.58 88.0605 126.295 87.959C126.014 87.8574 125.773 87.7344 125.574 87.5898C125.379 87.4453 125.229 87.2754 125.123 87.0801C125.018 86.8848 124.965 86.6562 124.965 86.3945C124.965 86.1445 125.02 85.9082 125.129 85.6855C125.242 85.4629 125.4 85.2656 125.604 85.0938C125.811 84.9219 126.059 84.7871 126.348 84.6895C126.637 84.5918 126.959 84.543 127.314 84.543C127.822 84.543 128.256 84.6328 128.615 84.8125C128.975 84.9922 129.25 85.2324 129.441 85.5332C129.633 85.8301 129.729 86.1602 129.729 86.5234H128.645C128.645 86.3477 128.592 86.1777 128.486 86.0137C128.385 85.8457 128.234 85.707 128.035 85.5977C127.84 85.4883 127.6 85.4336 127.314 85.4336C127.014 85.4336 126.77 85.4805 126.582 85.5742C126.398 85.6641 126.264 85.7793 126.178 85.9199C126.096 86.0605 126.055 86.209 126.055 86.3652C126.055 86.4824 126.074 86.5879 126.113 86.6816C126.156 86.7715 126.23 86.8555 126.336 86.9336C126.441 87.0078 126.59 87.0781 126.781 87.1445C126.973 87.2109 127.217 87.2773 127.514 87.3438C128.033 87.4609 128.461 87.6016 128.797 87.7656C129.133 87.9297 129.383 88.1309 129.547 88.3691C129.711 88.6074 129.793 88.8965 129.793 89.2363C129.793 89.5137 129.734 89.7676 129.617 89.998C129.504 90.2285 129.338 90.4277 129.119 90.5957C128.904 90.7598 128.646 90.8887 128.346 90.9824C128.049 91.0723 127.715 91.1172 127.344 91.1172C126.785 91.1172 126.312 91.0176 125.926 90.8184C125.539 90.6191 125.246 90.3613 125.047 90.0449C124.848 89.7285 124.748 89.3945 124.748 89.043H125.838C125.854 89.3398 125.939 89.5762 126.096 89.752C126.252 89.9238 126.443 90.0469 126.67 90.1211C126.896 90.1914 127.121 90.2266 127.344 90.2266C127.641 90.2266 127.889 90.1875 128.088 90.1094C128.291 90.0312 128.445 89.9238 128.551 89.7871C128.656 89.6504 128.709 89.4941 128.709 89.3184ZM133.848 91.1172C133.406 91.1172 133.006 91.043 132.646 90.8945C132.291 90.7422 131.984 90.5293 131.727 90.2559C131.473 89.9824 131.277 89.6582 131.141 89.2832C131.004 88.9082 130.936 88.498 130.936 88.0527V87.8066C130.936 87.291 131.012 86.832 131.164 86.4297C131.316 86.0234 131.523 85.6797 131.785 85.3984C132.047 85.1172 132.344 84.9043 132.676 84.7598C133.008 84.6152 133.352 84.543 133.707 84.543C134.16 84.543 134.551 84.6211 134.879 84.7773C135.211 84.9336 135.482 85.1523 135.693 85.4336C135.904 85.7109 136.061 86.0391 136.162 86.418C136.264 86.793 136.314 87.2031 136.314 87.6484V88.1348H131.58V87.25H135.23V87.168C135.215 86.8867 135.156 86.6133 135.055 86.3477C134.957 86.082 134.801 85.8633 134.586 85.6914C134.371 85.5195 134.078 85.4336 133.707 85.4336C133.461 85.4336 133.234 85.4863 133.027 85.5918C132.82 85.6934 132.643 85.8457 132.494 86.0488C132.346 86.252 132.23 86.5 132.148 86.793C132.066 87.0859 132.025 87.4238 132.025 87.8066V88.0527C132.025 88.3535 132.066 88.6367 132.148 88.9023C132.234 89.1641 132.357 89.3945 132.518 89.5938C132.682 89.793 132.879 89.9492 133.109 90.0625C133.344 90.1758 133.609 90.2324 133.906 90.2324C134.289 90.2324 134.613 90.1543 134.879 89.998C135.145 89.8418 135.377 89.6328 135.576 89.3711L136.232 89.8926C136.096 90.0996 135.922 90.2969 135.711 90.4844C135.5 90.6719 135.24 90.8242 134.932 90.9414C134.627 91.0586 134.266 91.1172 133.848 91.1172ZM138.658 85.9199V91H137.568V84.6602H138.6L138.658 85.9199ZM138.436 87.5898L137.932 87.5723C137.936 87.1387 137.992 86.7383 138.102 86.3711C138.211 86 138.373 85.6777 138.588 85.4043C138.803 85.1309 139.07 84.9199 139.391 84.7715C139.711 84.6191 140.082 84.543 140.504 84.543C140.801 84.543 141.074 84.5859 141.324 84.6719C141.574 84.7539 141.791 84.8848 141.975 85.0645C142.158 85.2441 142.301 85.4746 142.402 85.7559C142.504 86.0371 142.555 86.377 142.555 86.7754V91H141.471V86.8281C141.471 86.4961 141.414 86.2305 141.301 86.0312C141.191 85.832 141.035 85.6875 140.832 85.5977C140.629 85.5039 140.391 85.457 140.117 85.457C139.797 85.457 139.529 85.5137 139.314 85.627C139.1 85.7402 138.928 85.8965 138.799 86.0957C138.67 86.2949 138.576 86.5234 138.518 86.7812C138.463 87.0352 138.436 87.3047 138.436 87.5898ZM142.543 86.9922L141.816 87.2148C141.82 86.8672 141.877 86.5332 141.986 86.2129C142.1 85.8926 142.262 85.6074 142.473 85.3574C142.688 85.1074 142.951 84.9102 143.264 84.7656C143.576 84.6172 143.934 84.543 144.336 84.543C144.676 84.543 144.977 84.5879 145.238 84.6777C145.504 84.7676 145.727 84.9062 145.906 85.0938C146.09 85.2773 146.229 85.5137 146.322 85.8027C146.416 86.0918 146.463 86.4355 146.463 86.834V91H145.373V86.8223C145.373 86.4668 145.316 86.1914 145.203 85.9961C145.094 85.7969 144.938 85.6582 144.734 85.5801C144.535 85.498 144.297 85.457 144.02 85.457C143.781 85.457 143.57 85.498 143.387 85.5801C143.203 85.6621 143.049 85.7754 142.924 85.9199C142.799 86.0605 142.703 86.2227 142.637 86.4062C142.574 86.5898 142.543 86.7852 142.543 86.9922ZM151.842 89.916V86.6523C151.842 86.4023 151.791 86.1855 151.689 86.002C151.592 85.8145 151.443 85.6699 151.244 85.5684C151.045 85.4668 150.799 85.416 150.506 85.416C150.232 85.416 149.992 85.4629 149.785 85.5566C149.582 85.6504 149.422 85.7734 149.305 85.9258C149.191 86.0781 149.135 86.2422 149.135 86.418H148.051C148.051 86.1914 148.109 85.9668 148.227 85.7441C148.344 85.5215 148.512 85.3203 148.73 85.1406C148.953 84.957 149.219 84.8125 149.527 84.707C149.84 84.5977 150.188 84.543 150.57 84.543C151.031 84.543 151.438 84.6211 151.789 84.7773C152.145 84.9336 152.422 85.1699 152.621 85.4863C152.824 85.7988 152.926 86.1914 152.926 86.6641V89.6172C152.926 89.8281 152.943 90.0527 152.979 90.291C153.018 90.5293 153.074 90.7344 153.148 90.9062V91H152.018C151.963 90.875 151.92 90.709 151.889 90.502C151.857 90.291 151.842 90.0957 151.842 89.916ZM152.029 87.1562L152.041 87.918H150.945C150.637 87.918 150.361 87.9434 150.119 87.9941C149.877 88.041 149.674 88.1133 149.51 88.2109C149.346 88.3086 149.221 88.4316 149.135 88.5801C149.049 88.7246 149.006 88.8945 149.006 89.0898C149.006 89.2891 149.051 89.4707 149.141 89.6348C149.23 89.7988 149.365 89.9297 149.545 90.0273C149.729 90.1211 149.953 90.168 150.219 90.168C150.551 90.168 150.844 90.0977 151.098 89.957C151.352 89.8164 151.553 89.6445 151.701 89.4414C151.854 89.2383 151.936 89.041 151.947 88.8496L152.41 89.3711C152.383 89.5352 152.309 89.7168 152.188 89.916C152.066 90.1152 151.904 90.3066 151.701 90.4902C151.502 90.6699 151.264 90.8203 150.986 90.9414C150.713 91.0586 150.404 91.1172 150.061 91.1172C149.631 91.1172 149.254 91.0332 148.93 90.8652C148.609 90.6973 148.359 90.4727 148.18 90.1914C148.004 89.9062 147.916 89.5879 147.916 89.2363C147.916 88.8965 147.982 88.5977 148.115 88.3398C148.248 88.0781 148.439 87.8613 148.689 87.6895C148.939 87.5137 149.24 87.3809 149.592 87.291C149.943 87.2012 150.336 87.1562 150.77 87.1562H152.029ZM155.715 85.6562V91H154.631V84.6602H155.686L155.715 85.6562ZM157.695 84.625L157.689 85.6328C157.6 85.6133 157.514 85.6016 157.432 85.5977C157.354 85.5898 157.264 85.5859 157.162 85.5859C156.912 85.5859 156.691 85.625 156.5 85.7031C156.309 85.7812 156.146 85.8906 156.014 86.0312C155.881 86.1719 155.775 86.3398 155.697 86.5352C155.623 86.7266 155.574 86.9375 155.551 87.168L155.246 87.3438C155.246 86.9609 155.283 86.6016 155.357 86.2656C155.436 85.9297 155.555 85.6328 155.715 85.375C155.875 85.1133 156.078 84.9102 156.324 84.7656C156.574 84.6172 156.871 84.543 157.215 84.543C157.293 84.543 157.383 84.5527 157.484 84.5723C157.586 84.5879 157.656 84.6055 157.695 84.625ZM162.201 89.916V86.6523C162.201 86.4023 162.15 86.1855 162.049 86.002C161.951 85.8145 161.803 85.6699 161.604 85.5684C161.404 85.4668 161.158 85.416 160.865 85.416C160.592 85.416 160.352 85.4629 160.145 85.5566C159.941 85.6504 159.781 85.7734 159.664 85.9258C159.551 86.0781 159.494 86.2422 159.494 86.418H158.41C158.41 86.1914 158.469 85.9668 158.586 85.7441C158.703 85.5215 158.871 85.3203 159.09 85.1406C159.312 84.957 159.578 84.8125 159.887 84.707C160.199 84.5977 160.547 84.543 160.93 84.543C161.391 84.543 161.797 84.6211 162.148 84.7773C162.504 84.9336 162.781 85.1699 162.98 85.4863C163.184 85.7988 163.285 86.1914 163.285 86.6641V89.6172C163.285 89.8281 163.303 90.0527 163.338 90.291C163.377 90.5293 163.434 90.7344 163.508 90.9062V91H162.377C162.322 90.875 162.279 90.709 162.248 90.502C162.217 90.291 162.201 90.0957 162.201 89.916ZM162.389 87.1562L162.4 87.918H161.305C160.996 87.918 160.721 87.9434 160.479 87.9941C160.236 88.041 160.033 88.1133 159.869 88.2109C159.705 88.3086 159.58 88.4316 159.494 88.5801C159.408 88.7246 159.365 88.8945 159.365 89.0898C159.365 89.2891 159.41 89.4707 159.5 89.6348C159.59 89.7988 159.725 89.9297 159.904 90.0273C160.088 90.1211 160.312 90.168 160.578 90.168C160.91 90.168 161.203 90.0977 161.457 89.957C161.711 89.8164 161.912 89.6445 162.061 89.4414C162.213 89.2383 162.295 89.041 162.307 88.8496L162.77 89.3711C162.742 89.5352 162.668 89.7168 162.547 89.916C162.426 90.1152 162.264 90.3066 162.061 90.4902C161.861 90.6699 161.623 90.8203 161.346 90.9414C161.072 91.0586 160.764 91.1172 160.42 91.1172C159.99 91.1172 159.613 91.0332 159.289 90.8652C158.969 90.6973 158.719 90.4727 158.539 90.1914C158.363 89.9062 158.275 89.5879 158.275 89.2363C158.275 88.8965 158.342 88.5977 158.475 88.3398C158.607 88.0781 158.799 87.8613 159.049 87.6895C159.299 87.5137 159.6 87.3809 159.951 87.291C160.303 87.2012 160.695 87.1562 161.129 87.1562H162.389ZM166.08 82V91H164.99V82H166.08ZM169.953 84.6602L167.188 87.6191L165.641 89.2246L165.553 88.0703L166.66 86.7461L168.629 84.6602H169.953ZM168.963 91L166.701 87.9766L167.264 87.0098L170.24 91H168.963ZM21.9102 99.6562V105H20.8262V98.6602H21.8809L21.9102 99.6562ZM23.8906 98.625L23.8848 99.6328C23.7949 99.6133 23.709 99.6016 23.627 99.5977C23.5488 99.5898 23.459 99.5859 23.3574 99.5859C23.1074 99.5859 22.8867 99.625 22.6953 99.7031C22.5039 99.7812 22.3418 99.8906 22.209 100.031C22.0762 100.172 21.9707 100.34 21.8926 100.535C21.8184 100.727 21.7695 100.938 21.7461 101.168L21.4414 101.344C21.4414 100.961 21.4785 100.602 21.5527 100.266C21.6309 99.9297 21.75 99.6328 21.9102 99.375C22.0703 99.1133 22.2734 98.9102 22.5195 98.7656C22.7695 98.6172 23.0664 98.543 23.4102 98.543C23.4883 98.543 23.5781 98.5527 23.6797 98.5723C23.7812 98.5879 23.8516 98.6055 23.8906 98.625ZM28.3965 103.916V100.652C28.3965 100.402 28.3457 100.186 28.2441 100.002C28.1465 99.8145 27.998 99.6699 27.7988 99.5684C27.5996 99.4668 27.3535 99.416 27.0605 99.416C26.7871 99.416 26.5469 99.4629 26.3398 99.5566C26.1367 99.6504 25.9766 99.7734 25.8594 99.9258C25.7461 100.078 25.6895 100.242 25.6895 100.418H24.6055C24.6055 100.191 24.6641 99.9668 24.7812 99.7441C24.8984 99.5215 25.0664 99.3203 25.2852 99.1406C25.5078 98.957 25.7734 98.8125 26.082 98.707C26.3945 98.5977 26.7422 98.543 27.125 98.543C27.5859 98.543 27.9922 98.6211 28.3438 98.7773C28.6992 98.9336 28.9766 99.1699 29.1758 99.4863C29.3789 99.7988 29.4805 100.191 29.4805 100.664V103.617C29.4805 103.828 29.498 104.053 29.5332 104.291C29.5723 104.529 29.6289 104.734 29.7031 104.906V105H28.5723C28.5176 104.875 28.4746 104.709 28.4434 104.502C28.4121 104.291 28.3965 104.096 28.3965 103.916ZM28.584 101.156L28.5957 101.918H27.5C27.1914 101.918 26.916 101.943 26.6738 101.994C26.4316 102.041 26.2285 102.113 26.0645 102.211C25.9004 102.309 25.7754 102.432 25.6895 102.58C25.6035 102.725 25.5605 102.895 25.5605 103.09C25.5605 103.289 25.6055 103.471 25.6953 103.635C25.7852 103.799 25.9199 103.93 26.0996 104.027C26.2832 104.121 26.5078 104.168 26.7734 104.168C27.1055 104.168 27.3984 104.098 27.6523 103.957C27.9062 103.816 28.1074 103.645 28.2559 103.441C28.4082 103.238 28.4902 103.041 28.502 102.85L28.9648 103.371C28.9375 103.535 28.8633 103.717 28.7422 103.916C28.6211 104.115 28.459 104.307 28.2559 104.49C28.0566 104.67 27.8184 104.82 27.541 104.941C27.2676 105.059 26.959 105.117 26.6152 105.117C26.1855 105.117 25.8086 105.033 25.4844 104.865C25.1641 104.697 24.9141 104.473 24.7344 104.191C24.5586 103.906 24.4707 103.588 24.4707 103.236C24.4707 102.896 24.5371 102.598 24.6699 102.34C24.8027 102.078 24.9941 101.861 25.2441 101.689C25.4941 101.514 25.7949 101.381 26.1465 101.291C26.498 101.201 26.8906 101.156 27.3242 101.156H28.584ZM32.2637 99.9199V105H31.1738V98.6602H32.2051L32.2637 99.9199ZM32.041 101.59L31.5371 101.572C31.541 101.139 31.5977 100.738 31.707 100.371C31.8164 100 31.9785 99.6777 32.1934 99.4043C32.4082 99.1309 32.6758 98.9199 32.9961 98.7715C33.3164 98.6191 33.6875 98.543 34.1094 98.543C34.4062 98.543 34.6797 98.5859 34.9297 98.6719C35.1797 98.7539 35.3965 98.8848 35.5801 99.0645C35.7637 99.2441 35.9062 99.4746 36.0078 99.7559C36.1094 100.037 36.1602 100.377 36.1602 100.775V105H35.0762V100.828C35.0762 100.496 35.0195 100.23 34.9062 100.031C34.7969 99.832 34.6406 99.6875 34.4375 99.5977C34.2344 99.5039 33.9961 99.457 33.7227 99.457C33.4023 99.457 33.1348 99.5137 32.9199 99.627C32.7051 99.7402 32.5332 99.8965 32.4043 100.096C32.2754 100.295 32.1816 100.523 32.123 100.781C32.0684 101.035 32.041 101.305 32.041 101.59ZM36.1484 100.992L35.4219 101.215C35.4258 100.867 35.4824 100.533 35.5918 100.213C35.7051 99.8926 35.8672 99.6074 36.0781 99.3574C36.293 99.1074 36.5566 98.9102 36.8691 98.7656C37.1816 98.6172 37.5391 98.543 37.9414 98.543C38.2812 98.543 38.582 98.5879 38.8438 98.6777C39.1094 98.7676 39.332 98.9062 39.5117 99.0938C39.6953 99.2773 39.834 99.5137 39.9277 99.8027C40.0215 100.092 40.0684 100.436 40.0684 100.834V105H38.9785V100.822C38.9785 100.467 38.9219 100.191 38.8086 99.9961C38.6992 99.7969 38.543 99.6582 38.3398 99.5801C38.1406 99.498 37.9023 99.457 37.625 99.457C37.3867 99.457 37.1758 99.498 36.9922 99.5801C36.8086 99.6621 36.6543 99.7754 36.5293 99.9199C36.4043 100.061 36.3086 100.223 36.2422 100.406C36.1797 100.59 36.1484 100.785 36.1484 100.992ZM45.4473 103.916V100.652C45.4473 100.402 45.3965 100.186 45.2949 100.002C45.1973 99.8145 45.0488 99.6699 44.8496 99.5684C44.6504 99.4668 44.4043 99.416 44.1113 99.416C43.8379 99.416 43.5977 99.4629 43.3906 99.5566C43.1875 99.6504 43.0273 99.7734 42.9102 99.9258C42.7969 100.078 42.7402 100.242 42.7402 100.418H41.6562C41.6562 100.191 41.7148 99.9668 41.832 99.7441C41.9492 99.5215 42.1172 99.3203 42.3359 99.1406C42.5586 98.957 42.8242 98.8125 43.1328 98.707C43.4453 98.5977 43.793 98.543 44.1758 98.543C44.6367 98.543 45.043 98.6211 45.3945 98.7773C45.75 98.9336 46.0273 99.1699 46.2266 99.4863C46.4297 99.7988 46.5312 100.191 46.5312 100.664V103.617C46.5312 103.828 46.5488 104.053 46.584 104.291C46.623 104.529 46.6797 104.734 46.7539 104.906V105H45.623C45.5684 104.875 45.5254 104.709 45.4941 104.502C45.4629 104.291 45.4473 104.096 45.4473 103.916ZM45.6348 101.156L45.6465 101.918H44.5508C44.2422 101.918 43.9668 101.943 43.7246 101.994C43.4824 102.041 43.2793 102.113 43.1152 102.211C42.9512 102.309 42.8262 102.432 42.7402 102.58C42.6543 102.725 42.6113 102.895 42.6113 103.09C42.6113 103.289 42.6562 103.471 42.7461 103.635C42.8359 103.799 42.9707 103.93 43.1504 104.027C43.334 104.121 43.5586 104.168 43.8242 104.168C44.1562 104.168 44.4492 104.098 44.7031 103.957C44.957 103.816 45.1582 103.645 45.3066 103.441C45.459 103.238 45.541 103.041 45.5527 102.85L46.0156 103.371C45.9883 103.535 45.9141 103.717 45.793 103.916C45.6719 104.115 45.5098 104.307 45.3066 104.49C45.1074 104.67 44.8691 104.82 44.5918 104.941C44.3184 105.059 44.0098 105.117 43.666 105.117C43.2363 105.117 42.8594 105.033 42.5352 104.865C42.2148 104.697 41.9648 104.473 41.7852 104.191C41.6094 103.906 41.5215 103.588 41.5215 103.236C41.5215 102.896 41.5879 102.598 41.7207 102.34C41.8535 102.078 42.0449 101.861 42.2949 101.689C42.5449 101.514 42.8457 101.381 43.1973 101.291C43.5488 101.201 43.9414 101.156 44.375 101.156H45.6348ZM52.2324 103.77V96H53.3223V105H52.3262L52.2324 103.77ZM47.9668 101.9V101.777C47.9668 101.293 48.0254 100.854 48.1426 100.459C48.2637 100.061 48.4336 99.7188 48.6523 99.4336C48.875 99.1484 49.1387 98.9297 49.4434 98.7773C49.752 98.6211 50.0957 98.543 50.4746 98.543C50.873 98.543 51.2207 98.6133 51.5176 98.7539C51.8184 98.8906 52.0723 99.0918 52.2793 99.3574C52.4902 99.6191 52.6562 99.9355 52.7773 100.307C52.8984 100.678 52.9824 101.098 53.0293 101.566V102.105C52.9863 102.57 52.9023 102.988 52.7773 103.359C52.6562 103.73 52.4902 104.047 52.2793 104.309C52.0723 104.57 51.8184 104.771 51.5176 104.912C51.2168 105.049 50.8652 105.117 50.4629 105.117C50.0918 105.117 49.752 105.037 49.4434 104.877C49.1387 104.717 48.875 104.492 48.6523 104.203C48.4336 103.914 48.2637 103.574 48.1426 103.184C48.0254 102.789 47.9668 102.361 47.9668 101.9ZM49.0566 101.777V101.9C49.0566 102.217 49.0879 102.514 49.1504 102.791C49.2168 103.068 49.3184 103.312 49.4551 103.523C49.5918 103.734 49.7656 103.9 49.9766 104.021C50.1875 104.139 50.4395 104.197 50.7324 104.197C51.0918 104.197 51.3867 104.121 51.6172 103.969C51.8516 103.816 52.0391 103.615 52.1797 103.365C52.3203 103.115 52.4297 102.844 52.5078 102.551V101.139C52.4609 100.924 52.3926 100.717 52.3027 100.518C52.2168 100.314 52.1035 100.135 51.9629 99.9785C51.8262 99.8184 51.6562 99.6914 51.4531 99.5977C51.2539 99.5039 51.0176 99.457 50.7441 99.457C50.4473 99.457 50.1914 99.5195 49.9766 99.6445C49.7656 99.7656 49.5918 99.9336 49.4551 100.148C49.3184 100.359 49.2168 100.605 49.1504 100.887C49.0879 101.164 49.0566 101.461 49.0566 101.777ZM56.0938 96V105H55.0098V96H56.0938ZM55.8359 101.59L55.3848 101.572C55.3887 101.139 55.4531 100.738 55.5781 100.371C55.7031 100 55.8789 99.6777 56.1055 99.4043C56.332 99.1309 56.6016 98.9199 56.9141 98.7715C57.2305 98.6191 57.5801 98.543 57.9629 98.543C58.2754 98.543 58.5566 98.5859 58.8066 98.6719C59.0566 98.7539 59.2695 98.8867 59.4453 99.0703C59.625 99.2539 59.7617 99.4922 59.8555 99.7852C59.9492 100.074 59.9961 100.428 59.9961 100.846V105H58.9062V100.834C58.9062 100.502 58.8574 100.236 58.7598 100.037C58.6621 99.834 58.5195 99.6875 58.332 99.5977C58.1445 99.5039 57.9141 99.457 57.6406 99.457C57.3711 99.457 57.125 99.5137 56.9023 99.627C56.6836 99.7402 56.4941 99.8965 56.334 100.096C56.1777 100.295 56.0547 100.523 55.9648 100.781C55.8789 101.035 55.8359 101.305 55.8359 101.59ZM65.3574 103.916V100.652C65.3574 100.402 65.3066 100.186 65.2051 100.002C65.1074 99.8145 64.959 99.6699 64.7598 99.5684C64.5605 99.4668 64.3145 99.416 64.0215 99.416C63.748 99.416 63.5078 99.4629 63.3008 99.5566C63.0977 99.6504 62.9375 99.7734 62.8203 99.9258C62.707 100.078 62.6504 100.242 62.6504 100.418H61.5664C61.5664 100.191 61.625 99.9668 61.7422 99.7441C61.8594 99.5215 62.0273 99.3203 62.2461 99.1406C62.4688 98.957 62.7344 98.8125 63.043 98.707C63.3555 98.5977 63.7031 98.543 64.0859 98.543C64.5469 98.543 64.9531 98.6211 65.3047 98.7773C65.6602 98.9336 65.9375 99.1699 66.1367 99.4863C66.3398 99.7988 66.4414 100.191 66.4414 100.664V103.617C66.4414 103.828 66.459 104.053 66.4941 104.291C66.5332 104.529 66.5898 104.734 66.6641 104.906V105H65.5332C65.4785 104.875 65.4355 104.709 65.4043 104.502C65.373 104.291 65.3574 104.096 65.3574 103.916ZM65.5449 101.156L65.5566 101.918H64.4609C64.1523 101.918 63.877 101.943 63.6348 101.994C63.3926 102.041 63.1895 102.113 63.0254 102.211C62.8613 102.309 62.7363 102.432 62.6504 102.58C62.5645 102.725 62.5215 102.895 62.5215 103.09C62.5215 103.289 62.5664 103.471 62.6562 103.635C62.7461 103.799 62.8809 103.93 63.0605 104.027C63.2441 104.121 63.4688 104.168 63.7344 104.168C64.0664 104.168 64.3594 104.098 64.6133 103.957C64.8672 103.816 65.0684 103.645 65.2168 103.441C65.3691 103.238 65.4512 103.041 65.4629 102.85L65.9258 103.371C65.8984 103.535 65.8242 103.717 65.7031 103.916C65.582 104.115 65.4199 104.307 65.2168 104.49C65.0176 104.67 64.7793 104.82 64.502 104.941C64.2285 105.059 63.9199 105.117 63.5762 105.117C63.1465 105.117 62.7695 105.033 62.4453 104.865C62.125 104.697 61.875 104.473 61.6953 104.191C61.5195 103.906 61.4316 103.588 61.4316 103.236C61.4316 102.896 61.498 102.598 61.6309 102.34C61.7637 102.078 61.9551 101.861 62.2051 101.689C62.4551 101.514 62.7559 101.381 63.1074 101.291C63.459 101.201 63.8516 101.156 64.2852 101.156H65.5449ZM69.2305 100.014V105H68.1465V98.6602H69.1719L69.2305 100.014ZM68.9727 101.59L68.5215 101.572C68.5254 101.139 68.5898 100.738 68.7148 100.371C68.8398 100 69.0156 99.6777 69.2422 99.4043C69.4688 99.1309 69.7383 98.9199 70.0508 98.7715C70.3672 98.6191 70.7168 98.543 71.0996 98.543C71.4121 98.543 71.6934 98.5859 71.9434 98.6719C72.1934 98.7539 72.4062 98.8867 72.582 99.0703C72.7617 99.2539 72.8984 99.4922 72.9922 99.7852C73.0859 100.074 73.1328 100.428 73.1328 100.846V105H72.043V100.834C72.043 100.502 71.9941 100.236 71.8965 100.037C71.7988 99.834 71.6562 99.6875 71.4688 99.5977C71.2812 99.5039 71.0508 99.457 70.7773 99.457C70.5078 99.457 70.2617 99.5137 70.0391 99.627C69.8203 99.7402 69.6309 99.8965 69.4707 100.096C69.3145 100.295 69.1914 100.523 69.1016 100.781C69.0156 101.035 68.9727 101.305 68.9727 101.59ZM81.752 103.77V96H82.8418V105H81.8457L81.752 103.77ZM77.4863 101.9V101.777C77.4863 101.293 77.5449 100.854 77.6621 100.459C77.7832 100.061 77.9531 99.7188 78.1719 99.4336C78.3945 99.1484 78.6582 98.9297 78.9629 98.7773C79.2715 98.6211 79.6152 98.543 79.9941 98.543C80.3926 98.543 80.7402 98.6133 81.0371 98.7539C81.3379 98.8906 81.5918 99.0918 81.7988 99.3574C82.0098 99.6191 82.1758 99.9355 82.2969 100.307C82.418 100.678 82.502 101.098 82.5488 101.566V102.105C82.5059 102.57 82.4219 102.988 82.2969 103.359C82.1758 103.73 82.0098 104.047 81.7988 104.309C81.5918 104.57 81.3379 104.771 81.0371 104.912C80.7363 105.049 80.3848 105.117 79.9824 105.117C79.6113 105.117 79.2715 105.037 78.9629 104.877C78.6582 104.717 78.3945 104.492 78.1719 104.203C77.9531 103.914 77.7832 103.574 77.6621 103.184C77.5449 102.789 77.4863 102.361 77.4863 101.9ZM78.5762 101.777V101.9C78.5762 102.217 78.6074 102.514 78.6699 102.791C78.7363 103.068 78.8379 103.312 78.9746 103.523C79.1113 103.734 79.2852 103.9 79.4961 104.021C79.707 104.139 79.959 104.197 80.252 104.197C80.6113 104.197 80.9062 104.121 81.1367 103.969C81.3711 103.816 81.5586 103.615 81.6992 103.365C81.8398 103.115 81.9492 102.844 82.0273 102.551V101.139C81.9805 100.924 81.9121 100.717 81.8223 100.518C81.7363 100.314 81.623 100.135 81.4824 99.9785C81.3457 99.8184 81.1758 99.6914 80.9727 99.5977C80.7734 99.5039 80.5371 99.457 80.2637 99.457C79.9668 99.457 79.7109 99.5195 79.4961 99.6445C79.2852 99.7656 79.1113 99.9336 78.9746 100.148C78.8379 100.359 78.7363 100.605 78.6699 100.887C78.6074 101.164 78.5762 101.461 78.5762 101.777ZM85.707 98.6602V105H84.6172V98.6602H85.707ZM84.5352 96.9785C84.5352 96.8027 84.5879 96.6543 84.6934 96.5332C84.8027 96.4121 84.9629 96.3516 85.1738 96.3516C85.3809 96.3516 85.5391 96.4121 85.6484 96.5332C85.7617 96.6543 85.8184 96.8027 85.8184 96.9785C85.8184 97.1465 85.7617 97.291 85.6484 97.4121C85.5391 97.5293 85.3809 97.5879 85.1738 97.5879C84.9629 97.5879 84.8027 97.5293 84.6934 97.4121C84.5879 97.291 84.5352 97.1465 84.5352 96.9785ZM90.9453 96.4688H92.041L94.8359 103.424L97.625 96.4688H98.7266L95.2578 105H94.4023L90.9453 96.4688ZM90.5879 96.4688H91.5547L91.7129 101.672V105H90.5879V96.4688ZM98.1113 96.4688H99.0781V105H97.9531V101.672L98.1113 96.4688ZM104.639 103.916V100.652C104.639 100.402 104.588 100.186 104.486 100.002C104.389 99.8145 104.24 99.6699 104.041 99.5684C103.842 99.4668 103.596 99.416 103.303 99.416C103.029 99.416 102.789 99.4629 102.582 99.5566C102.379 99.6504 102.219 99.7734 102.102 99.9258C101.988 100.078 101.932 100.242 101.932 100.418H100.848C100.848 100.191 100.906 99.9668 101.023 99.7441C101.141 99.5215 101.309 99.3203 101.527 99.1406C101.75 98.957 102.016 98.8125 102.324 98.707C102.637 98.5977 102.984 98.543 103.367 98.543C103.828 98.543 104.234 98.6211 104.586 98.7773C104.941 98.9336 105.219 99.1699 105.418 99.4863C105.621 99.7988 105.723 100.191 105.723 100.664V103.617C105.723 103.828 105.74 104.053 105.775 104.291C105.814 104.529 105.871 104.734 105.945 104.906V105H104.814C104.76 104.875 104.717 104.709 104.686 104.502C104.654 104.291 104.639 104.096 104.639 103.916ZM104.826 101.156L104.838 101.918H103.742C103.434 101.918 103.158 101.943 102.916 101.994C102.674 102.041 102.471 102.113 102.307 102.211C102.143 102.309 102.018 102.432 101.932 102.58C101.846 102.725 101.803 102.895 101.803 103.09C101.803 103.289 101.848 103.471 101.938 103.635C102.027 103.799 102.162 103.93 102.342 104.027C102.525 104.121 102.75 104.168 103.016 104.168C103.348 104.168 103.641 104.098 103.895 103.957C104.148 103.816 104.35 103.645 104.498 103.441C104.65 103.238 104.732 103.041 104.744 102.85L105.207 103.371C105.18 103.535 105.105 103.717 104.984 103.916C104.863 104.115 104.701 104.307 104.498 104.49C104.299 104.67 104.061 104.82 103.783 104.941C103.51 105.059 103.201 105.117 102.857 105.117C102.428 105.117 102.051 105.033 101.727 104.865C101.406 104.697 101.156 104.473 100.977 104.191C100.801 103.906 100.713 103.588 100.713 103.236C100.713 102.896 100.779 102.598 100.912 102.34C101.045 102.078 101.236 101.861 101.486 101.689C101.736 101.514 102.037 101.381 102.389 101.291C102.74 101.201 103.133 101.156 103.566 101.156H104.826ZM111.119 103.318C111.119 103.162 111.084 103.018 111.014 102.885C110.947 102.748 110.809 102.625 110.598 102.516C110.391 102.402 110.078 102.305 109.66 102.223C109.309 102.148 108.99 102.061 108.705 101.959C108.424 101.857 108.184 101.734 107.984 101.59C107.789 101.445 107.639 101.275 107.533 101.08C107.428 100.885 107.375 100.656 107.375 100.395C107.375 100.145 107.43 99.9082 107.539 99.6855C107.652 99.4629 107.811 99.2656 108.014 99.0938C108.221 98.9219 108.469 98.7871 108.758 98.6895C109.047 98.5918 109.369 98.543 109.725 98.543C110.232 98.543 110.666 98.6328 111.025 98.8125C111.385 98.9922 111.66 99.2324 111.852 99.5332C112.043 99.8301 112.139 100.16 112.139 100.523H111.055C111.055 100.348 111.002 100.178 110.896 100.014C110.795 99.8457 110.645 99.707 110.445 99.5977C110.25 99.4883 110.01 99.4336 109.725 99.4336C109.424 99.4336 109.18 99.4805 108.992 99.5742C108.809 99.6641 108.674 99.7793 108.588 99.9199C108.506 100.061 108.465 100.209 108.465 100.365C108.465 100.482 108.484 100.588 108.523 100.682C108.566 100.771 108.641 100.855 108.746 100.934C108.852 101.008 109 101.078 109.191 101.145C109.383 101.211 109.627 101.277 109.924 101.344C110.443 101.461 110.871 101.602 111.207 101.766C111.543 101.93 111.793 102.131 111.957 102.369C112.121 102.607 112.203 102.896 112.203 103.236C112.203 103.514 112.145 103.768 112.027 103.998C111.914 104.229 111.748 104.428 111.529 104.596C111.314 104.76 111.057 104.889 110.756 104.982C110.459 105.072 110.125 105.117 109.754 105.117C109.195 105.117 108.723 105.018 108.336 104.818C107.949 104.619 107.656 104.361 107.457 104.045C107.258 103.729 107.158 103.395 107.158 103.043H108.248C108.264 103.34 108.35 103.576 108.506 103.752C108.662 103.924 108.854 104.047 109.08 104.121C109.307 104.191 109.531 104.227 109.754 104.227C110.051 104.227 110.299 104.188 110.498 104.109C110.701 104.031 110.855 103.924 110.961 103.787C111.066 103.65 111.119 103.494 111.119 103.318ZM113.656 98.6602H114.746V105.756C114.746 106.143 114.684 106.471 114.559 106.74C114.438 107.01 114.254 107.213 114.008 107.35C113.766 107.49 113.459 107.561 113.088 107.561C112.99 107.561 112.877 107.551 112.748 107.531C112.615 107.512 112.504 107.488 112.414 107.461L112.42 106.588C112.494 106.604 112.578 106.615 112.672 106.623C112.766 106.635 112.848 106.641 112.918 106.641C113.078 106.641 113.213 106.611 113.322 106.553C113.432 106.494 113.514 106.4 113.568 106.271C113.627 106.143 113.656 105.971 113.656 105.756V98.6602ZM113.545 96.9785C113.545 96.8027 113.6 96.6543 113.709 96.5332C113.818 96.4121 113.977 96.3516 114.184 96.3516C114.395 96.3516 114.555 96.4121 114.664 96.5332C114.773 96.6543 114.828 96.8027 114.828 96.9785C114.828 97.1465 114.773 97.291 114.664 97.4121C114.555 97.5293 114.395 97.5879 114.184 97.5879C113.977 97.5879 113.818 97.5293 113.709 97.4121C113.6 97.291 113.545 97.1465 113.545 96.9785ZM117.676 98.6602V105H116.586V98.6602H117.676ZM116.504 96.9785C116.504 96.8027 116.557 96.6543 116.662 96.5332C116.771 96.4121 116.932 96.3516 117.143 96.3516C117.35 96.3516 117.508 96.4121 117.617 96.5332C117.73 96.6543 117.787 96.8027 117.787 96.9785C117.787 97.1465 117.73 97.291 117.617 97.4121C117.508 97.5293 117.35 97.5879 117.143 97.5879C116.932 97.5879 116.771 97.5293 116.662 97.4121C116.557 97.291 116.504 97.1465 116.504 96.9785ZM123.412 103.77V96H124.502V105H123.506L123.412 103.77ZM119.146 101.9V101.777C119.146 101.293 119.205 100.854 119.322 100.459C119.443 100.061 119.613 99.7188 119.832 99.4336C120.055 99.1484 120.318 98.9297 120.623 98.7773C120.932 98.6211 121.275 98.543 121.654 98.543C122.053 98.543 122.4 98.6133 122.697 98.7539C122.998 98.8906 123.252 99.0918 123.459 99.3574C123.67 99.6191 123.836 99.9355 123.957 100.307C124.078 100.678 124.162 101.098 124.209 101.566V102.105C124.166 102.57 124.082 102.988 123.957 103.359C123.836 103.73 123.67 104.047 123.459 104.309C123.252 104.57 122.998 104.771 122.697 104.912C122.396 105.049 122.045 105.117 121.643 105.117C121.271 105.117 120.932 105.037 120.623 104.877C120.318 104.717 120.055 104.492 119.832 104.203C119.613 103.914 119.443 103.574 119.322 103.184C119.205 102.789 119.146 102.361 119.146 101.9ZM120.236 101.777V101.9C120.236 102.217 120.268 102.514 120.33 102.791C120.396 103.068 120.498 103.312 120.635 103.523C120.771 103.734 120.945 103.9 121.156 104.021C121.367 104.139 121.619 104.197 121.912 104.197C122.271 104.197 122.566 104.121 122.797 103.969C123.031 103.816 123.219 103.615 123.359 103.365C123.5 103.115 123.609 102.844 123.688 102.551V101.139C123.641 100.924 123.572 100.717 123.482 100.518C123.396 100.314 123.283 100.135 123.143 99.9785C123.006 99.8184 122.836 99.6914 122.633 99.5977C122.434 99.5039 122.197 99.457 121.924 99.457C121.627 99.457 121.371 99.5195 121.156 99.6445C120.945 99.7656 120.771 99.9336 120.635 100.148C120.498 100.359 120.396 100.605 120.33 100.887C120.268 101.164 120.236 101.461 120.236 101.777ZM133.877 102.844C133.877 102.645 133.846 102.469 133.783 102.316C133.725 102.16 133.619 102.02 133.467 101.895C133.318 101.77 133.111 101.65 132.846 101.537C132.584 101.424 132.252 101.309 131.85 101.191C131.428 101.066 131.047 100.928 130.707 100.775C130.367 100.619 130.076 100.441 129.834 100.242C129.592 100.043 129.406 99.8145 129.277 99.5566C129.148 99.2988 129.084 99.0039 129.084 98.6719C129.084 98.3398 129.152 98.0332 129.289 97.752C129.426 97.4707 129.621 97.2266 129.875 97.0195C130.133 96.8086 130.439 96.6445 130.795 96.5273C131.15 96.4102 131.547 96.3516 131.984 96.3516C132.625 96.3516 133.168 96.4746 133.613 96.7207C134.062 96.9629 134.404 97.2812 134.639 97.6758C134.873 98.0664 134.99 98.4844 134.99 98.9297H133.865C133.865 98.6094 133.797 98.3262 133.66 98.0801C133.523 97.8301 133.316 97.6348 133.039 97.4941C132.762 97.3496 132.41 97.2773 131.984 97.2773C131.582 97.2773 131.25 97.3379 130.988 97.459C130.727 97.5801 130.531 97.7441 130.402 97.9512C130.277 98.1582 130.215 98.3945 130.215 98.6602C130.215 98.8398 130.252 99.0039 130.326 99.1523C130.404 99.2969 130.523 99.4316 130.684 99.5566C130.848 99.6816 131.055 99.7969 131.305 99.9023C131.559 100.008 131.861 100.109 132.213 100.207C132.697 100.344 133.115 100.496 133.467 100.664C133.818 100.832 134.107 101.021 134.334 101.232C134.564 101.439 134.734 101.676 134.844 101.941C134.957 102.203 135.014 102.5 135.014 102.832C135.014 103.18 134.943 103.494 134.803 103.775C134.662 104.057 134.461 104.297 134.199 104.496C133.938 104.695 133.623 104.85 133.256 104.959C132.893 105.064 132.486 105.117 132.037 105.117C131.643 105.117 131.254 105.062 130.871 104.953C130.492 104.844 130.146 104.68 129.834 104.461C129.525 104.242 129.277 103.973 129.09 103.652C128.906 103.328 128.814 102.953 128.814 102.527H129.939C129.939 102.82 129.996 103.072 130.109 103.283C130.223 103.49 130.377 103.662 130.572 103.799C130.771 103.936 130.996 104.037 131.246 104.104C131.5 104.166 131.764 104.197 132.037 104.197C132.432 104.197 132.766 104.143 133.039 104.033C133.312 103.924 133.52 103.768 133.66 103.564C133.805 103.361 133.877 103.121 133.877 102.844ZM138.072 104.344L139.836 98.6602H140.996L138.453 105.979C138.395 106.135 138.316 106.303 138.219 106.482C138.125 106.666 138.004 106.84 137.855 107.004C137.707 107.168 137.527 107.301 137.316 107.402C137.109 107.508 136.861 107.561 136.572 107.561C136.486 107.561 136.377 107.549 136.244 107.525C136.111 107.502 136.018 107.482 135.963 107.467L135.957 106.588C135.988 106.592 136.037 106.596 136.104 106.6C136.174 106.607 136.223 106.611 136.25 106.611C136.496 106.611 136.705 106.578 136.877 106.512C137.049 106.449 137.193 106.342 137.311 106.189C137.432 106.041 137.535 105.836 137.621 105.574L138.072 104.344ZM136.777 98.6602L138.424 103.582L138.705 104.725L137.926 105.123L135.594 98.6602H136.777ZM145.854 103.535V98.6602H146.943V105H145.906L145.854 103.535ZM146.059 102.199L146.51 102.188C146.51 102.609 146.465 103 146.375 103.359C146.289 103.715 146.148 104.023 145.953 104.285C145.758 104.547 145.502 104.752 145.186 104.9C144.869 105.045 144.484 105.117 144.031 105.117C143.723 105.117 143.439 105.072 143.182 104.982C142.928 104.893 142.709 104.754 142.525 104.566C142.342 104.379 142.199 104.135 142.098 103.834C142 103.533 141.951 103.172 141.951 102.75V98.6602H143.035V102.762C143.035 103.047 143.066 103.283 143.129 103.471C143.195 103.654 143.283 103.801 143.393 103.91C143.506 104.016 143.631 104.09 143.768 104.133C143.908 104.176 144.053 104.197 144.201 104.197C144.662 104.197 145.027 104.109 145.297 103.934C145.566 103.754 145.76 103.514 145.877 103.213C145.998 102.908 146.059 102.57 146.059 102.199ZM149.68 96V105H148.596V96H149.68ZM149.422 101.59L148.971 101.572C148.975 101.139 149.039 100.738 149.164 100.371C149.289 100 149.465 99.6777 149.691 99.4043C149.918 99.1309 150.188 98.9199 150.5 98.7715C150.816 98.6191 151.166 98.543 151.549 98.543C151.861 98.543 152.143 98.5859 152.393 98.6719C152.643 98.7539 152.855 98.8867 153.031 99.0703C153.211 99.2539 153.348 99.4922 153.441 99.7852C153.535 100.074 153.582 100.428 153.582 100.846V105H152.492V100.834C152.492 100.502 152.443 100.236 152.346 100.037C152.248 99.834 152.105 99.6875 151.918 99.5977C151.73 99.5039 151.5 99.457 151.227 99.457C150.957 99.457 150.711 99.5137 150.488 99.627C150.27 99.7402 150.08 99.8965 149.92 100.096C149.764 100.295 149.641 100.523 149.551 100.781C149.465 101.035 149.422 101.305 149.422 101.59ZM158.943 103.916V100.652C158.943 100.402 158.893 100.186 158.791 100.002C158.693 99.8145 158.545 99.6699 158.346 99.5684C158.146 99.4668 157.9 99.416 157.607 99.416C157.334 99.416 157.094 99.4629 156.887 99.5566C156.684 99.6504 156.523 99.7734 156.406 99.9258C156.293 100.078 156.236 100.242 156.236 100.418H155.152C155.152 100.191 155.211 99.9668 155.328 99.7441C155.445 99.5215 155.613 99.3203 155.832 99.1406C156.055 98.957 156.32 98.8125 156.629 98.707C156.941 98.5977 157.289 98.543 157.672 98.543C158.133 98.543 158.539 98.6211 158.891 98.7773C159.246 98.9336 159.523 99.1699 159.723 99.4863C159.926 99.7988 160.027 100.191 160.027 100.664V103.617C160.027 103.828 160.045 104.053 160.08 104.291C160.119 104.529 160.176 104.734 160.25 104.906V105H159.119C159.064 104.875 159.021 104.709 158.99 104.502C158.959 104.291 158.943 104.096 158.943 103.916ZM159.131 101.156L159.143 101.918H158.047C157.738 101.918 157.463 101.943 157.221 101.994C156.979 102.041 156.775 102.113 156.611 102.211C156.447 102.309 156.322 102.432 156.236 102.58C156.15 102.725 156.107 102.895 156.107 103.09C156.107 103.289 156.152 103.471 156.242 103.635C156.332 103.799 156.467 103.93 156.646 104.027C156.83 104.121 157.055 104.168 157.32 104.168C157.652 104.168 157.945 104.098 158.199 103.957C158.453 103.816 158.654 103.645 158.803 103.441C158.955 103.238 159.037 103.041 159.049 102.85L159.512 103.371C159.484 103.535 159.41 103.717 159.289 103.916C159.168 104.115 159.006 104.307 158.803 104.49C158.604 104.67 158.365 104.82 158.088 104.941C157.814 105.059 157.506 105.117 157.162 105.117C156.732 105.117 156.355 105.033 156.031 104.865C155.711 104.697 155.461 104.473 155.281 104.191C155.105 103.906 155.018 103.588 155.018 103.236C155.018 102.896 155.084 102.598 155.217 102.34C155.35 102.078 155.541 101.861 155.791 101.689C156.041 101.514 156.342 101.381 156.693 101.291C157.045 101.201 157.438 101.156 157.871 101.156H159.131ZM165.729 103.77V96H166.818V105H165.822L165.729 103.77ZM161.463 101.9V101.777C161.463 101.293 161.521 100.854 161.639 100.459C161.76 100.061 161.93 99.7188 162.148 99.4336C162.371 99.1484 162.635 98.9297 162.939 98.7773C163.248 98.6211 163.592 98.543 163.971 98.543C164.369 98.543 164.717 98.6133 165.014 98.7539C165.314 98.8906 165.568 99.0918 165.775 99.3574C165.986 99.6191 166.152 99.9355 166.273 100.307C166.395 100.678 166.479 101.098 166.525 101.566V102.105C166.482 102.57 166.398 102.988 166.273 103.359C166.152 103.73 165.986 104.047 165.775 104.309C165.568 104.57 165.314 104.771 165.014 104.912C164.713 105.049 164.361 105.117 163.959 105.117C163.588 105.117 163.248 105.037 162.939 104.877C162.635 104.717 162.371 104.492 162.148 104.203C161.93 103.914 161.76 103.574 161.639 103.184C161.521 102.789 161.463 102.361 161.463 101.9ZM162.553 101.777V101.9C162.553 102.217 162.584 102.514 162.646 102.791C162.713 103.068 162.814 103.312 162.951 103.523C163.088 103.734 163.262 103.9 163.473 104.021C163.684 104.139 163.936 104.197 164.229 104.197C164.588 104.197 164.883 104.121 165.113 103.969C165.348 103.816 165.535 103.615 165.676 103.365C165.816 103.115 165.926 102.844 166.004 102.551V101.139C165.957 100.924 165.889 100.717 165.799 100.518C165.713 100.314 165.6 100.135 165.459 99.9785C165.322 99.8184 165.152 99.6914 164.949 99.5977C164.75 99.5039 164.514 99.457 164.24 99.457C163.943 99.457 163.688 99.5195 163.473 99.6445C163.262 99.7656 163.088 99.9336 162.951 100.148C162.814 100.359 162.713 100.605 162.646 100.887C162.584 101.164 162.553 101.461 162.553 101.777ZM172.244 103.916V100.652C172.244 100.402 172.193 100.186 172.092 100.002C171.994 99.8145 171.846 99.6699 171.646 99.5684C171.447 99.4668 171.201 99.416 170.908 99.416C170.635 99.416 170.395 99.4629 170.188 99.5566C169.984 99.6504 169.824 99.7734 169.707 99.9258C169.594 100.078 169.537 100.242 169.537 100.418H168.453C168.453 100.191 168.512 99.9668 168.629 99.7441C168.746 99.5215 168.914 99.3203 169.133 99.1406C169.355 98.957 169.621 98.8125 169.93 98.707C170.242 98.5977 170.59 98.543 170.973 98.543C171.434 98.543 171.84 98.6211 172.191 98.7773C172.547 98.9336 172.824 99.1699 173.023 99.4863C173.227 99.7988 173.328 100.191 173.328 100.664V103.617C173.328 103.828 173.346 104.053 173.381 104.291C173.42 104.529 173.477 104.734 173.551 104.906V105H172.42C172.365 104.875 172.322 104.709 172.291 104.502C172.26 104.291 172.244 104.096 172.244 103.916ZM172.432 101.156L172.443 101.918H171.348C171.039 101.918 170.764 101.943 170.521 101.994C170.279 102.041 170.076 102.113 169.912 102.211C169.748 102.309 169.623 102.432 169.537 102.58C169.451 102.725 169.408 102.895 169.408 103.09C169.408 103.289 169.453 103.471 169.543 103.635C169.633 103.799 169.768 103.93 169.947 104.027C170.131 104.121 170.355 104.168 170.621 104.168C170.953 104.168 171.246 104.098 171.5 103.957C171.754 103.816 171.955 103.645 172.104 103.441C172.256 103.238 172.338 103.041 172.35 102.85L172.812 103.371C172.785 103.535 172.711 103.717 172.59 103.916C172.469 104.115 172.307 104.307 172.104 104.49C171.904 104.67 171.666 104.82 171.389 104.941C171.115 105.059 170.807 105.117 170.463 105.117C170.033 105.117 169.656 105.033 169.332 104.865C169.012 104.697 168.762 104.473 168.582 104.191C168.406 103.906 168.318 103.588 168.318 103.236C168.318 102.896 168.385 102.598 168.518 102.34C168.65 102.078 168.842 101.861 169.092 101.689C169.342 101.514 169.643 101.381 169.994 101.291C170.346 101.201 170.738 101.156 171.172 101.156H172.432ZM176.322 96.4688L176.246 102.592H175.268L175.186 96.4688H176.322ZM175.15 104.455C175.15 104.279 175.203 104.131 175.309 104.01C175.418 103.889 175.578 103.828 175.789 103.828C175.996 103.828 176.154 103.889 176.264 104.01C176.377 104.131 176.434 104.279 176.434 104.455C176.434 104.623 176.377 104.768 176.264 104.889C176.154 105.01 175.996 105.07 175.789 105.07C175.578 105.07 175.418 105.01 175.309 104.889C175.203 104.768 175.15 104.623 175.15 104.455Z" fill="white"/>
<path d="M205.522 78.1761C210.636 81.9881 217.054 83.6125 223.366 82.6921C229.677 81.7717 235.364 78.3819 239.176 73.2683C242.988 68.1547 244.613 61.7362 243.692 55.4249C242.772 49.1136 239.382 43.4264 234.268 39.6144L228.329 47.5819C231.329 49.8186 233.318 53.1557 233.859 56.859C234.399 60.5622 233.445 64.3284 231.209 67.3289C228.972 70.3294 225.635 72.3184 221.932 72.8585C218.228 73.3985 214.462 72.4454 211.462 70.2086L205.522 78.1761Z" fill="#F2C41E"/>
<rect x="249" y="17" width="39" height="98" fill="#CCD591"/>
<path d="M21.32 44V30H27.4C28.28 30 29.0467 30.1533 29.7 30.46C30.3533 30.7667 30.86 31.2 31.22 31.76C31.58 32.32 31.76 32.98 31.76 33.74V33.98C31.76 34.82 31.56 35.5 31.16 36.02C30.76 36.54 30.2667 36.92 29.68 37.16V37.52C30.2133 37.5467 30.6267 37.7333 30.92 38.08C31.2133 38.4133 31.36 38.86 31.36 39.42V44H28.72V39.8C28.72 39.48 28.6333 39.22 28.46 39.02C28.3 38.82 28.0267 38.72 27.64 38.72H23.96V44H21.32ZM23.96 36.32H27.12C27.7467 36.32 28.2333 36.1533 28.58 35.82C28.94 35.4733 29.12 35.02 29.12 34.46V34.26C29.12 33.7 28.9467 33.2533 28.6 32.92C28.2533 32.5733 27.76 32.4 27.12 32.4H23.96V36.32ZM37.1167 44.28C36.4101 44.28 35.7767 44.16 35.2167 43.92C34.6567 43.6667 34.2101 43.3067 33.8767 42.84C33.5567 42.36 33.3967 41.78 33.3967 41.1C33.3967 40.42 33.5567 39.8533 33.8767 39.4C34.2101 38.9333 34.6634 38.5867 35.2367 38.36C35.8234 38.12 36.4901 38 37.2367 38H39.9567V37.44C39.9567 36.9733 39.8101 36.5933 39.5167 36.3C39.2234 35.9933 38.7567 35.84 38.1167 35.84C37.4901 35.84 37.0234 35.9867 36.7167 36.28C36.4101 36.56 36.2101 36.9267 36.1167 37.38L33.7967 36.6C33.9567 36.0933 34.2101 35.6333 34.5567 35.22C34.9167 34.7933 35.3901 34.4533 35.9767 34.2C36.5767 33.9333 37.3034 33.8 38.1567 33.8C39.4634 33.8 40.4967 34.1267 41.2567 34.78C42.0167 35.4333 42.3967 36.38 42.3967 37.62V41.32C42.3967 41.72 42.5834 41.92 42.9567 41.92H43.7567V44H42.0767C41.5834 44 41.1767 43.88 40.8567 43.64C40.5367 43.4 40.3767 43.08 40.3767 42.68V42.66H39.9967C39.9434 42.82 39.8234 43.0333 39.6367 43.3C39.4501 43.5533 39.1567 43.78 38.7567 43.98C38.3567 44.18 37.8101 44.28 37.1167 44.28ZM37.5567 42.24C38.2634 42.24 38.8367 42.0467 39.2767 41.66C39.7301 41.26 39.9567 40.7333 39.9567 40.08V39.88H37.4167C36.9501 39.88 36.5834 39.98 36.3167 40.18C36.0501 40.38 35.9167 40.66 35.9167 41.02C35.9167 41.38 36.0567 41.6733 36.3367 41.9C36.6167 42.1267 37.0234 42.24 37.5567 42.24ZM45.5992 44V34.08H48.0792V35.16H48.4392C48.6126 34.8267 48.8992 34.54 49.2992 34.3C49.6992 34.0467 50.2259 33.92 50.8792 33.92C51.5859 33.92 52.1526 34.06 52.5792 34.34C53.0059 34.6067 53.3326 34.96 53.5592 35.4H53.9192C54.1459 34.9733 54.4659 34.62 54.8792 34.34C55.2926 34.06 55.8792 33.92 56.6392 33.92C57.2526 33.92 57.8059 34.0533 58.2992 34.32C58.8059 34.5733 59.2059 34.9667 59.4992 35.5C59.8059 36.02 59.9592 36.68 59.9592 37.48V44H57.4392V37.66C57.4392 37.1133 57.2992 36.7067 57.0192 36.44C56.7392 36.16 56.3459 36.02 55.8392 36.02C55.2659 36.02 54.8192 36.2067 54.4992 36.58C54.1926 36.94 54.0392 37.46 54.0392 38.14V44H51.5192V37.66C51.5192 37.1133 51.3792 36.7067 51.0992 36.44C50.8192 36.16 50.4259 36.02 49.9192 36.02C49.3459 36.02 48.8992 36.2067 48.5792 36.58C48.2726 36.94 48.1192 37.46 48.1192 38.14V44H45.5992ZM65.7495 44.28C65.0429 44.28 64.4095 44.16 63.8495 43.92C63.2895 43.6667 62.8429 43.3067 62.5095 42.84C62.1895 42.36 62.0295 41.78 62.0295 41.1C62.0295 40.42 62.1895 39.8533 62.5095 39.4C62.8429 38.9333 63.2962 38.5867 63.8695 38.36C64.4562 38.12 65.1229 38 65.8695 38H68.5895V37.44C68.5895 36.9733 68.4429 36.5933 68.1495 36.3C67.8562 35.9933 67.3895 35.84 66.7495 35.84C66.1229 35.84 65.6562 35.9867 65.3495 36.28C65.0429 36.56 64.8429 36.9267 64.7495 37.38L62.4295 36.6C62.5895 36.0933 62.8429 35.6333 63.1895 35.22C63.5495 34.7933 64.0229 34.4533 64.6095 34.2C65.2095 33.9333 65.9362 33.8 66.7895 33.8C68.0962 33.8 69.1295 34.1267 69.8895 34.78C70.6495 35.4333 71.0295 36.38 71.0295 37.62V41.32C71.0295 41.72 71.2162 41.92 71.5895 41.92H72.3895V44H70.7095C70.2162 44 69.8095 43.88 69.4895 43.64C69.1695 43.4 69.0095 43.08 69.0095 42.68V42.66H68.6295C68.5762 42.82 68.4562 43.0333 68.2695 43.3C68.0829 43.5533 67.7895 43.78 67.3895 43.98C66.9895 44.18 66.4429 44.28 65.7495 44.28ZM66.1895 42.24C66.8962 42.24 67.4695 42.0467 67.9095 41.66C68.3629 41.26 68.5895 40.7333 68.5895 40.08V39.88H66.0495C65.5829 39.88 65.2162 39.98 64.9495 40.18C64.6829 40.38 64.5495 40.66 64.5495 41.02C64.5495 41.38 64.6895 41.6733 64.9695 41.9C65.2495 42.1267 65.6562 42.24 66.1895 42.24ZM78.0367 44.28C77.2501 44.28 76.5101 44.0867 75.8167 43.7C75.1367 43.3 74.5901 42.72 74.1767 41.96C73.7634 41.2 73.5567 40.28 73.5567 39.2V38.88C73.5567 37.8 73.7634 36.88 74.1767 36.12C74.5901 35.36 75.1367 34.7867 75.8167 34.4C76.4967 34 77.2367 33.8 78.0367 33.8C78.6367 33.8 79.1367 33.8733 79.5367 34.02C79.9501 34.1533 80.2834 34.3267 80.5367 34.54C80.7901 34.7533 80.9834 34.98 81.1167 35.22H81.4767V30H83.9967V44H81.5167V42.8H81.1567C80.9301 43.1733 80.5767 43.5133 80.0967 43.82C79.6301 44.1267 78.9434 44.28 78.0367 44.28ZM78.7967 42.08C79.5701 42.08 80.2167 41.8333 80.7367 41.34C81.2567 40.8333 81.5167 40.1 81.5167 39.14V38.94C81.5167 37.98 81.2567 37.2533 80.7367 36.76C80.2301 36.2533 79.5834 36 78.7967 36C78.0234 36 77.3767 36.2533 76.8567 36.76C76.3367 37.2533 76.0767 37.98 76.0767 38.94V39.14C76.0767 40.1 76.3367 40.8333 76.8567 41.34C77.3767 41.8333 78.0234 42.08 78.7967 42.08ZM86.7906 44V30H89.3106V35.3H89.6706C89.7773 35.0867 89.944 34.8733 90.1706 34.66C90.3973 34.4467 90.6973 34.2733 91.0706 34.14C91.4573 33.9933 91.944 33.92 92.5306 33.92C93.304 33.92 93.9773 34.1 94.5506 34.46C95.1373 34.8067 95.5906 35.2933 95.9106 35.92C96.2306 36.5333 96.3906 37.2533 96.3906 38.08V44H93.8706V38.28C93.8706 37.5333 93.684 36.9733 93.3106 36.6C92.9506 36.2267 92.4306 36.04 91.7506 36.04C90.9773 36.04 90.3773 36.3 89.9506 36.82C89.524 37.3267 89.3106 38.04 89.3106 38.96V44H86.7906ZM102.195 44.28C101.488 44.28 100.855 44.16 100.295 43.92C99.7348 43.6667 99.2882 43.3067 98.9548 42.84C98.6348 42.36 98.4748 41.78 98.4748 41.1C98.4748 40.42 98.6348 39.8533 98.9548 39.4C99.2882 38.9333 99.7415 38.5867 100.315 38.36C100.902 38.12 101.568 38 102.315 38H105.035V37.44C105.035 36.9733 104.888 36.5933 104.595 36.3C104.302 35.9933 103.835 35.84 103.195 35.84C102.568 35.84 102.102 35.9867 101.795 36.28C101.488 36.56 101.288 36.9267 101.195 37.38L98.8748 36.6C99.0348 36.0933 99.2882 35.6333 99.6348 35.22C99.9948 34.7933 100.468 34.4533 101.055 34.2C101.655 33.9333 102.382 33.8 103.235 33.8C104.542 33.8 105.575 34.1267 106.335 34.78C107.095 35.4333 107.475 36.38 107.475 37.62V41.32C107.475 41.72 107.662 41.92 108.035 41.92H108.835V44H107.155C106.662 44 106.255 43.88 105.935 43.64C105.615 43.4 105.455 43.08 105.455 42.68V42.66H105.075C105.022 42.82 104.902 43.0333 104.715 43.3C104.528 43.5533 104.235 43.78 103.835 43.98C103.435 44.18 102.888 44.28 102.195 44.28ZM102.635 42.24C103.342 42.24 103.915 42.0467 104.355 41.66C104.808 41.26 105.035 40.7333 105.035 40.08V39.88H102.495C102.028 39.88 101.662 39.98 101.395 40.18C101.128 40.38 100.995 40.66 100.995 41.02C100.995 41.38 101.135 41.6733 101.415 41.9C101.695 42.1267 102.102 42.24 102.635 42.24ZM110.677 44V34.08H113.157V35.38H113.517C113.677 35.0333 113.977 34.7067 114.417 34.4C114.857 34.08 115.524 33.92 116.417 33.92C117.191 33.92 117.864 34.1 118.437 34.46C119.024 34.8067 119.477 35.2933 119.797 35.92C120.117 36.5333 120.277 37.2533 120.277 38.08V44H117.757V38.28C117.757 37.5333 117.571 36.9733 117.197 36.6C116.837 36.2267 116.317 36.04 115.637 36.04C114.864 36.04 114.264 36.3 113.837 36.82C113.411 37.3267 113.197 38.04 113.197 38.96V44H110.677ZM132.86 44.28C131.78 44.28 130.826 44.0867 130 43.7C129.173 43.3133 128.526 42.76 128.06 42.04C127.593 41.32 127.36 40.4533 127.36 39.44V38.88H129.96V39.44C129.96 40.28 130.22 40.9133 130.74 41.34C131.26 41.7533 131.966 41.96 132.86 41.96C133.766 41.96 134.44 41.78 134.88 41.42C135.333 41.06 135.56 40.6 135.56 40.04C135.56 39.6533 135.446 39.34 135.22 39.1C135.006 38.86 134.686 38.6667 134.26 38.52C133.846 38.36 133.34 38.2133 132.74 38.08L132.28 37.98C131.32 37.7667 130.493 37.5 129.8 37.18C129.12 36.8467 128.593 36.4133 128.22 35.88C127.86 35.3467 127.68 34.6533 127.68 33.8C127.68 32.9467 127.88 32.22 128.28 31.62C128.693 31.0067 129.266 30.54 130 30.22C130.746 29.8867 131.62 29.72 132.62 29.72C133.62 29.72 134.506 29.8933 135.28 30.24C136.066 30.5733 136.68 31.08 137.12 31.76C137.573 32.4267 137.8 33.2667 137.8 34.28V34.88H135.2V34.28C135.2 33.7467 135.093 33.32 134.88 33C134.68 32.6667 134.386 32.4267 134 32.28C133.613 32.12 133.153 32.04 132.62 32.04C131.82 32.04 131.226 32.1933 130.84 32.5C130.466 32.7933 130.28 33.2 130.28 33.72C130.28 34.0667 130.366 34.36 130.54 34.6C130.726 34.84 131 35.04 131.36 35.2C131.72 35.36 132.18 35.5 132.74 35.62L133.2 35.72C134.2 35.9333 135.066 36.2067 135.8 36.54C136.546 36.8733 137.126 37.3133 137.54 37.86C137.953 38.4067 138.16 39.1067 138.16 39.96C138.16 40.8133 137.94 41.5667 137.5 42.22C137.073 42.86 136.46 43.3667 135.66 43.74C134.873 44.1 133.94 44.28 132.86 44.28ZM141.289 48V45.8H146.689C147.062 45.8 147.249 45.6 147.249 45.2V42.7H146.889C146.782 42.9267 146.615 43.1533 146.389 43.38C146.162 43.6067 145.855 43.7933 145.469 43.94C145.082 44.0867 144.589 44.16 143.989 44.16C143.215 44.16 142.535 43.9867 141.949 43.64C141.375 43.28 140.929 42.7867 140.609 42.16C140.289 41.5333 140.129 40.8133 140.129 40V34.08H142.649V39.8C142.649 40.5467 142.829 41.1067 143.189 41.48C143.562 41.8533 144.089 42.04 144.769 42.04C145.542 42.04 146.142 41.7867 146.569 41.28C146.995 40.76 147.209 40.04 147.209 39.12V34.08H149.729V45.76C149.729 46.44 149.529 46.98 149.129 47.38C148.729 47.7933 148.195 48 147.529 48H141.289ZM156.313 44.16C155.539 44.16 154.859 43.9867 154.273 43.64C153.699 43.28 153.253 42.7867 152.933 42.16C152.613 41.5333 152.453 40.8133 152.453 40V34.08H154.973V39.8C154.973 40.5467 155.153 41.1067 155.513 41.48C155.886 41.8533 156.413 42.04 157.093 42.04C157.866 42.04 158.466 41.7867 158.893 41.28C159.319 40.76 159.533 40.04 159.533 39.12V34.08H162.053V44H159.573V42.7H159.213C159.053 43.0333 158.753 43.36 158.313 43.68C157.873 44 157.206 44.16 156.313 44.16ZM164.857 44V30H167.377V35.3H167.737C167.844 35.0867 168.01 34.8733 168.237 34.66C168.464 34.4467 168.764 34.2733 169.137 34.14C169.524 33.9933 170.01 33.92 170.597 33.92C171.37 33.92 172.044 34.1 172.617 34.46C173.204 34.8067 173.657 35.2933 173.977 35.92C174.297 36.5333 174.457 37.2533 174.457 38.08V44H171.937V38.28C171.937 37.5333 171.75 36.9733 171.377 36.6C171.017 36.2267 170.497 36.04 169.817 36.04C169.044 36.04 168.444 36.3 168.017 36.82C167.59 37.3267 167.377 38.04 167.377 38.96V44H164.857ZM180.261 44.28C179.555 44.28 178.921 44.16 178.361 43.92C177.801 43.6667 177.355 43.3067 177.021 42.84C176.701 42.36 176.541 41.78 176.541 41.1C176.541 40.42 176.701 39.8533 177.021 39.4C177.355 38.9333 177.808 38.5867 178.381 38.36C178.968 38.12 179.635 38 180.381 38H183.101V37.44C183.101 36.9733 182.955 36.5933 182.661 36.3C182.368 35.9933 181.901 35.84 181.261 35.84C180.635 35.84 180.168 35.9867 179.861 36.28C179.555 36.56 179.355 36.9267 179.261 37.38L176.941 36.6C177.101 36.0933 177.355 35.6333 177.701 35.22C178.061 34.7933 178.535 34.4533 179.121 34.2C179.721 33.9333 180.448 33.8 181.301 33.8C182.608 33.8 183.641 34.1267 184.401 34.78C185.161 35.4333 185.541 36.38 185.541 37.62V41.32C185.541 41.72 185.728 41.92 186.101 41.92H186.901V44H185.221C184.728 44 184.321 43.88 184.001 43.64C183.681 43.4 183.521 43.08 183.521 42.68V42.66H183.141C183.088 42.82 182.968 43.0333 182.781 43.3C182.595 43.5533 182.301 43.78 181.901 43.98C181.501 44.18 180.955 44.28 180.261 44.28ZM180.701 42.24C181.408 42.24 181.981 42.0467 182.421 41.66C182.875 41.26 183.101 40.7333 183.101 40.08V39.88H180.561C180.095 39.88 179.728 39.98 179.461 40.18C179.195 40.38 179.061 40.66 179.061 41.02C179.061 41.38 179.201 41.6733 179.481 41.9C179.761 42.1267 180.168 42.24 180.701 42.24ZM192.548 44.28C191.762 44.28 191.022 44.0867 190.328 43.7C189.648 43.3 189.102 42.72 188.688 41.96C188.275 41.2 188.068 40.28 188.068 39.2V38.88C188.068 37.8 188.275 36.88 188.688 36.12C189.102 35.36 189.648 34.7867 190.328 34.4C191.008 34 191.748 33.8 192.548 33.8C193.148 33.8 193.648 33.8733 194.048 34.02C194.462 34.1533 194.795 34.3267 195.048 34.54C195.302 34.7533 195.495 34.98 195.628 35.22H195.988V30H198.508V44H196.028V42.8H195.668C195.442 43.1733 195.088 43.5133 194.608 43.82C194.142 44.1267 193.455 44.28 192.548 44.28ZM193.308 42.08C194.082 42.08 194.728 41.8333 195.248 41.34C195.768 40.8333 196.028 40.1 196.028 39.14V38.94C196.028 37.98 195.768 37.2533 195.248 36.76C194.742 36.2533 194.095 36 193.308 36C192.535 36 191.888 36.2533 191.368 36.76C190.848 37.2533 190.588 37.98 190.588 38.94V39.14C190.588 40.1 190.848 40.8333 191.368 41.34C191.888 41.8333 192.535 42.08 193.308 42.08ZM204.382 44.28C203.676 44.28 203.042 44.16 202.482 43.92C201.922 43.6667 201.476 43.3067 201.142 42.84C200.822 42.36 200.662 41.78 200.662 41.1C200.662 40.42 200.822 39.8533 201.142 39.4C201.476 38.9333 201.929 38.5867 202.502 38.36C203.089 38.12 203.756 38 204.502 38H207.222V37.44C207.222 36.9733 207.076 36.5933 206.782 36.3C206.489 35.9933 206.022 35.84 205.382 35.84C204.756 35.84 204.289 35.9867 203.982 36.28C203.676 36.56 203.476 36.9267 203.382 37.38L201.062 36.6C201.222 36.0933 201.476 35.6333 201.822 35.22C202.182 34.7933 202.656 34.4533 203.242 34.2C203.842 33.9333 204.569 33.8 205.422 33.8C206.729 33.8 207.762 34.1267 208.522 34.78C209.282 35.4333 209.662 36.38 209.662 37.62V41.32C209.662 41.72 209.849 41.92 210.222 41.92H211.022V44H209.342C208.849 44 208.442 43.88 208.122 43.64C207.802 43.4 207.642 43.08 207.642 42.68V42.66H207.262C207.209 42.82 207.089 43.0333 206.902 43.3C206.716 43.5533 206.422 43.78 206.022 43.98C205.622 44.18 205.076 44.28 204.382 44.28ZM204.822 42.24C205.529 42.24 206.102 42.0467 206.542 41.66C206.996 41.26 207.222 40.7333 207.222 40.08V39.88H204.682C204.216 39.88 203.849 39.98 203.582 40.18C203.316 40.38 203.182 40.66 203.182 41.02C203.182 41.38 203.322 41.6733 203.602 41.9C203.882 42.1267 204.289 42.24 204.822 42.24ZM25.16 70V57.88H24.8L22.92 62.32H20.24L23.1 56H27.72V70H25.16ZM36.443 70V67.16H29.563V64.2L34.403 56H39.003V64.88H41.323V67.16H39.003V70H36.443ZM32.003 64.88H36.443V57.64H36.083L32.003 64.56V64.88ZM49.1578 70V67.16H42.2778V64.2L47.1178 56H51.7178V64.88H54.0378V67.16H51.7178V70H49.1578ZM44.7178 64.88H49.1578V57.64H48.7978L44.7178 64.56V64.88ZM61.8727 70V67.16H54.9927V64.2L59.8327 56H64.4327V64.88H66.7527V67.16H64.4327V70H61.8727ZM57.4327 64.88H61.8727V57.64H61.5127L57.4327 64.56V64.88ZM73.5856 70V56H76.2256V61.78H81.4256V56H84.0656V70H81.4256V64.18H76.2256V70H73.5856Z" fill="white"/>
<rect x="233" y="70" width="24" height="40" fill="#92A760"/>
</svg>
