<svg width="359" height="359" viewBox="0 0 359 359" fill="none" xmlns="http://www.w3.org/2000/svg">
<path d="M359 185.5C359 174.403 356.814 163.415 352.568 153.163C348.321 142.911 342.097 133.596 334.251 125.749C326.404 117.903 317.089 111.679 306.837 107.432C296.585 103.186 285.597 101 274.5 101V185.5H359Z" fill="#CCD591"/>
<path d="M190 185.5C190 174.403 192.186 163.415 196.432 153.163C200.679 142.911 206.903 133.596 214.749 125.749C222.596 117.903 231.911 111.679 242.163 107.432C252.415 103.186 263.403 101 274.5 101V185.5H190Z" fill="#436129"/>
<rect x="113" y="47" width="77" height="139" fill="#92A760"/>
<path d="M321.846 85.1658C314.1 94.4187 302.995 100.215 290.975 101.281C278.955 102.346 267.004 98.5927 257.751 90.8464C248.498 83.1001 242.701 71.9954 241.636 59.9752C240.571 47.9549 244.324 36.0038 252.07 26.7509L266.487 38.8204C261.942 44.2497 259.74 51.2622 260.365 58.3153C260.99 65.3684 264.391 71.8842 269.82 76.4295C275.25 80.9748 282.262 83.1771 289.315 82.552C296.368 81.9269 302.884 78.5256 307.43 73.0963L321.846 85.1658Z" fill="#F2C41E"/>
<rect x="41" y="150" width="72" height="117" fill="#436129"/>
<path d="M97 149.5C97 143.131 95.7455 136.824 93.3082 130.94C90.8708 125.056 87.2983 119.709 82.7947 115.205C78.291 110.702 72.9444 107.129 67.0601 104.692C61.1759 102.254 54.8691 101 48.5 101L48.5 149.5H97Z" fill="#CCD591"/>
<path d="M0 149.5C0 143.131 1.25449 136.824 3.69184 130.94C6.1292 125.056 9.70168 119.709 14.2053 115.205C18.709 110.702 24.0556 107.129 29.9399 104.692C35.8241 102.254 42.1309 101 48.5 101L48.5 149.5H0Z" fill="#436129"/>
<path d="M113 266.5C113 260.525 114.177 254.608 116.463 249.088C118.75 243.568 122.102 238.552 126.327 234.327C130.552 230.102 135.568 226.75 141.088 224.463C146.608 222.177 152.525 221 158.5 221L158.5 266.5H113Z" fill="#F2C41E"/>
<rect x="279" y="16" width="48" height="48" fill="#CCD591"/>
<path d="M275 186H330V286.5C330 301.688 317.688 314 302.5 314H275V186Z" fill="#436129"/>
<path d="M230 313.5C230 307.525 231.177 301.608 233.463 296.088C235.75 290.568 239.102 285.552 243.327 281.327C247.552 277.102 252.568 273.75 258.088 271.463C263.608 269.177 269.525 268 275.5 268L275.5 313.5H230Z" fill="#92A760"/>
<path d="M203 277.5C203 271.525 204.177 265.608 206.463 260.088C208.75 254.568 212.102 249.552 216.327 245.327C220.552 241.102 225.568 237.75 231.088 235.463C236.608 233.177 242.525 232 248.5 232L248.5 277.5H203Z" fill="#92A760"/>
</svg>
